<?xml version="1.0" standalone="no"?>
 <!DOCTYPE svg PUBLIC "-//W3C//DTD SVG 1.1//EN" 
 "http://www.w3.org/Graphics/SVG/1.1/DTD/svg11.dtd"> 
<svg
  xmlns:svg="http://www.w3.org/2000/svg"
  xmlns="http://www.w3.org/2000/svg"
  xmlns:xlink="http://www.w3.org/1999/xlink"
  version="1.1"
  width="29.700220cm" height="21.000720cm" viewBox="0 0 116930 82680">
<title>SVG Picture created as karca-Thermocouples.svg date 2022/12/23 10:30:12 </title>
  <desc>Picture generated by Eeschema-SVG </desc>
<g style="fill:#000000; fill-opacity:1.000000;stroke:#000000; stroke-opacity:1.000000;
stroke-linecap:round; stroke-linejoin:round;"
 transform="translate(0 0) scale(1 1)">
</g>
<g style="fill:#000000; fill-opacity:0.0; 
stroke:#000000; stroke-width:60.000000; stroke-opacity:1; 
stroke-linecap:round; stroke-linejoin:round;">
<g >
</g>
<g style="fill:#840000; fill-opacity:0.0; 
stroke:#840000; stroke-width:60.000000; stroke-opacity:1; 
stroke-linecap:round; stroke-linejoin:round;">
</g>
<g style="fill:#FFFFC2; fill-opacity:0.0; 
stroke:#FFFFC2; stroke-width:60.000000; stroke-opacity:1; 
stroke-linecap:round; stroke-linejoin:round;">
</g>
<g style="fill:#FFFFC2; fill-opacity:0.6; 
stroke:#FFFFC2; stroke-width:0.039370; stroke-opacity:1; 
stroke-linecap:round; stroke-linejoin:round;">
<rect x="13000.000000" y="13500.000000" width="1000.000000" height="3000.000000" rx="0.000000" />
</g>
<g style="fill:#840000; fill-opacity:0.6; 
stroke:#840000; stroke-width:0.039370; stroke-opacity:1; 
stroke-linecap:round; stroke-linejoin:round;">
</g>
<g style="fill:#840000; fill-opacity:0.0; 
stroke:#840000; stroke-width:100.000000; stroke-opacity:1; 
stroke-linecap:round; stroke-linejoin:round;">
<rect x="13000.000000" y="13500.000000" width="1000.000000" height="3000.000000" rx="0.000000" />
<rect x="13000.000000" y="13500.000000" width="1000.000000" height="3000.000000" rx="0.000000" />
</g>
<g style="fill:#840000; fill-opacity:0.0; 
stroke:#840000; stroke-width:60.000000; stroke-opacity:1; 
stroke-linecap:round; stroke-linejoin:round;">
<circle cx="13500.000000" cy="16000.000000" r="250.000000" /> 
<path style="fill:#840000; fill-opacity:0.0; 
stroke:#840000; stroke-width:60.000000; stroke-opacity:1; 
stroke-linecap:round; stroke-linejoin:round;fill:none"
d="M 13710.000000,15870.000000
13370.000000,16200.000000
" /> 
<path style="fill:#840000; fill-opacity:0.0; 
stroke:#840000; stroke-width:60.000000; stroke-opacity:1; 
stroke-linecap:round; stroke-linejoin:round;fill:none"
d="M 13710.000000,14870.000000
13370.000000,15200.000000
" /> 
<path style="fill:#840000; fill-opacity:0.0; 
stroke:#840000; stroke-width:60.000000; stroke-opacity:1; 
stroke-linecap:round; stroke-linejoin:round;fill:none"
d="M 13710.000000,13870.000000
13370.000000,14200.000000
" /> 
<path style="fill:#840000; fill-opacity:0.0; 
stroke:#840000; stroke-width:60.000000; stroke-opacity:1; 
stroke-linecap:round; stroke-linejoin:round;fill:none"
d="M 13640.000000,15800.000000
13300.000000,16130.000000
" /> 
<path style="fill:#840000; fill-opacity:0.0; 
stroke:#840000; stroke-width:60.000000; stroke-opacity:1; 
stroke-linecap:round; stroke-linejoin:round;fill:none"
d="M 13640.000000,14800.000000
13300.000000,15130.000000
" /> 
<path style="fill:#840000; fill-opacity:0.0; 
stroke:#840000; stroke-width:60.000000; stroke-opacity:1; 
stroke-linecap:round; stroke-linejoin:round;fill:none"
d="M 13640.000000,13800.000000
13300.000000,14130.000000
" /> 
<circle cx="13500.000000" cy="15000.000000" r="250.000000" /> 
<circle cx="13500.000000" cy="14000.000000" r="250.000000" /> 
<path d="M14000 14000
L15500 14000
" />
</g>
<g style="fill:#A90000; fill-opacity:0.0; 
stroke:#A90000; stroke-width:60.000000; stroke-opacity:1; 
stroke-linecap:round; stroke-linejoin:round;">
<text x="14750.000000" y="13900.000000"
textLength="538.700787" font-size="666.653543" lengthAdjust="spacingAndGlyphs"
text-anchor="middle" opacity="0">1</text>
<g class="stroked-text"><desc>1</desc>
<path d="M14892 13876
L14607 13876
" />
<path d="M14750 13876
L14750 13376
L14702 13447
L14654 13495
L14607 13519
" />
</g></g>
<g style="fill:#840000; fill-opacity:0.0; 
stroke:#840000; stroke-width:60.000000; stroke-opacity:1; 
stroke-linecap:round; stroke-linejoin:round;">
<path d="M14000 15000
L15500 15000
" />
</g>
<g style="fill:#A90000; fill-opacity:0.0; 
stroke:#A90000; stroke-width:60.000000; stroke-opacity:1; 
stroke-linecap:round; stroke-linejoin:round;">
<text x="14750.000000" y="14900.000000"
textLength="536.181102" font-size="666.653543" lengthAdjust="spacingAndGlyphs"
text-anchor="middle" opacity="0">2</text>
<g class="stroked-text"><desc>2</desc>
<path d="M14607 14423
L14630 14400
L14678 14376
L14797 14376
L14845 14400
L14869 14423
L14892 14471
L14892 14519
L14869 14590
L14583 14876
L14892 14876
" />
</g></g>
<g style="fill:#840000; fill-opacity:0.0; 
stroke:#840000; stroke-width:60.000000; stroke-opacity:1; 
stroke-linecap:round; stroke-linejoin:round;">
<path d="M14000 16000
L15500 16000
" />
</g>
<g style="fill:#A90000; fill-opacity:0.0; 
stroke:#A90000; stroke-width:60.000000; stroke-opacity:1; 
stroke-linecap:round; stroke-linejoin:round;">
<text x="14750.000000" y="15900.000000"
textLength="536.181102" font-size="666.653543" lengthAdjust="spacingAndGlyphs"
text-anchor="middle" opacity="0">3</text>
<g class="stroked-text"><desc>3</desc>
<path d="M14583 15376
L14892 15376
L14726 15566
L14797 15566
L14845 15590
L14869 15614
L14892 15661
L14892 15780
L14869 15828
L14845 15852
L14797 15876
L14654 15876
L14607 15852
L14583 15828
" />
</g></g>
<g style="fill:#006464; fill-opacity:0.0; 
stroke:#006464; stroke-width:60.000000; stroke-opacity:1; 
stroke-linecap:round; stroke-linejoin:round;">
<text x="13499.960630" y="12749.960630"
textLength="3345.708661" font-size="666.653543" lengthAdjust="spacingAndGlyphs"
text-anchor="middle" opacity="0">CON_TC1</text>
<g class="stroked-text"><desc>CON_TC1</desc>
<path d="M12261 12678
L12238 12702
L12166 12726
L12118 12726
L12047 12702
L11999 12654
L11976 12607
L11952 12511
L11952 12440
L11976 12345
L11999 12297
L12047 12249
L12118 12226
L12166 12226
L12238 12249
L12261 12273
" />
<path d="M12571 12226
L12666 12226
L12714 12249
L12761 12297
L12785 12392
L12785 12559
L12761 12654
L12714 12702
L12666 12726
L12571 12726
L12523 12702
L12476 12654
L12452 12559
L12452 12392
L12476 12297
L12523 12249
L12571 12226
" />
<path d="M12999 12726
L12999 12226
L13285 12726
L13285 12226
" />
<path d="M13404 12773
L13785 12773
" />
<path d="M13833 12226
L14118 12226
" />
<path d="M13976 12726
L13976 12226
" />
<path d="M14571 12678
L14547 12702
L14476 12726
L14428 12726
L14357 12702
L14309 12654
L14285 12607
L14261 12511
L14261 12440
L14285 12345
L14309 12297
L14357 12249
L14428 12226
L14476 12226
L14547 12249
L14571 12273
" />
<path d="M15047 12726
L14761 12726
" />
<path d="M14904 12726
L14904 12226
L14857 12297
L14809 12345
L14761 12368
" />
</g></g>
</g>
<g style="fill:#006464; fill-opacity:0.0; 
stroke:#006464; stroke-width:60.000000; stroke-opacity:1; 
stroke-linecap:round; stroke-linejoin:round;">
<g >
</g>
<g style="fill:#840000; fill-opacity:0.0; 
stroke:#840000; stroke-width:60.000000; stroke-opacity:1; 
stroke-linecap:round; stroke-linejoin:round;">
<path style="fill:#840000; fill-opacity:0.0; 
stroke:#840000; stroke-width:60.000000; stroke-opacity:1; 
stroke-linecap:round; stroke-linejoin:round;fill:none"
d="M 16700.000000,12500.000000
17000.000000,12000.000000
" /> 
<path style="fill:#840000; fill-opacity:0.0; 
stroke:#840000; stroke-width:60.000000; stroke-opacity:1; 
stroke-linecap:round; stroke-linejoin:round;fill:none"
d="M 17000.000000,13000.000000
17000.000000,12000.000000
" /> 
<path style="fill:#840000; fill-opacity:0.0; 
stroke:#840000; stroke-width:60.000000; stroke-opacity:1; 
stroke-linecap:round; stroke-linejoin:round;fill:none"
d="M 17000.000000,12000.000000
17300.000000,12500.000000
" /> 
</g>
<g style="fill:#006464; fill-opacity:0.0; 
stroke:#006464; stroke-width:60.000000; stroke-opacity:1; 
stroke-linecap:round; stroke-linejoin:round;">
<text x="17000.000000" y="11249.960630"
textLength="1583.818898" font-size="666.653543" lengthAdjust="spacingAndGlyphs"
text-anchor="middle" opacity="0">+5V</text>
<g class="stroked-text"><desc>+5V</desc>
<path d="M16357 11035
L16738 11035
" />
<path d="M16547 11226
L16547 10845
" />
<path d="M17214 10726
L16976 10726
L16952 10964
L16976 10940
L17023 10916
L17142 10916
L17190 10940
L17214 10964
L17238 11011
L17238 11130
L17214 11178
L17190 11202
L17142 11226
L17023 11226
L16976 11202
L16952 11178
" />
<path d="M17380 10726
L17547 11226
L17714 10726
" />
</g></g>
</g>
<g style="fill:#006464; fill-opacity:0.0; 
stroke:#006464; stroke-width:60.000000; stroke-opacity:1; 
stroke-linecap:round; stroke-linejoin:round;">
<g >
</g>
<g style="fill:#840000; fill-opacity:0.0; 
stroke:#840000; stroke-width:60.000000; stroke-opacity:1; 
stroke-linecap:round; stroke-linejoin:round;">
<path style="fill:#840000; fill-opacity:0.0; 
stroke:#840000; stroke-width:60.000000; stroke-opacity:1; 
stroke-linecap:round; stroke-linejoin:round;fill:none"
d="M 17000.000000,17500.000000
17000.000000,18000.000000
17500.000000,18000.000000
17000.000000,18500.000000
16500.000000,18000.000000
17000.000000,18000.000000
" /> 
</g>
<g style="fill:#006464; fill-opacity:0.0; 
stroke:#006464; stroke-width:60.000000; stroke-opacity:1; 
stroke-linecap:round; stroke-linejoin:round;">
<text x="17000.000000" y="19749.960630"
textLength="1583.818898" font-size="666.653543" lengthAdjust="spacingAndGlyphs"
text-anchor="middle" opacity="0">GND</text>
<g class="stroked-text"><desc>GND</desc>
<path d="M16619 19249
L16571 19226
L16500 19226
L16428 19249
L16380 19297
L16357 19345
L16333 19440
L16333 19511
L16357 19607
L16380 19654
L16428 19702
L16500 19726
L16547 19726
L16619 19702
L16642 19678
L16642 19511
L16547 19511
" />
<path d="M16857 19726
L16857 19226
L17142 19726
L17142 19226
" />
<path d="M17380 19726
L17380 19226
L17500 19226
L17571 19249
L17619 19297
L17642 19345
L17666 19440
L17666 19511
L17642 19607
L17619 19654
L17571 19702
L17500 19726
L17380 19726
" />
</g></g>
</g>
<g style="fill:#006464; fill-opacity:0.0; 
stroke:#006464; stroke-width:60.000000; stroke-opacity:1; 
stroke-linecap:round; stroke-linejoin:round;">
<g >
</g>
<g style="fill:#840000; fill-opacity:0.0; 
stroke:#840000; stroke-width:60.000000; stroke-opacity:1; 
stroke-linecap:round; stroke-linejoin:round;">
<path style="fill:#840000; fill-opacity:0.0; 
stroke:#840000; stroke-width:60.000000; stroke-opacity:1; 
stroke-linecap:round; stroke-linejoin:round;fill:none"
d="M 17000.000000,45000.000000
17000.000000,45500.000000
17500.000000,45500.000000
17000.000000,46000.000000
16500.000000,45500.000000
17000.000000,45500.000000
" /> 
</g>
<g style="fill:#006464; fill-opacity:0.0; 
stroke:#006464; stroke-width:60.000000; stroke-opacity:1; 
stroke-linecap:round; stroke-linejoin:round;">
<text x="17000.000000" y="47249.960630"
textLength="1583.818898" font-size="666.653543" lengthAdjust="spacingAndGlyphs"
text-anchor="middle" opacity="0">GND</text>
<g class="stroked-text"><desc>GND</desc>
<path d="M16619 46749
L16571 46726
L16500 46726
L16428 46749
L16380 46797
L16357 46845
L16333 46940
L16333 47011
L16357 47107
L16380 47154
L16428 47202
L16500 47226
L16547 47226
L16619 47202
L16642 47178
L16642 47011
L16547 47011
" />
<path d="M16857 47226
L16857 46726
L17142 47226
L17142 46726
" />
<path d="M17380 47226
L17380 46726
L17500 46726
L17571 46749
L17619 46797
L17642 46845
L17666 46940
L17666 47011
L17642 47107
L17619 47154
L17571 47202
L17500 47226
L17380 47226
" />
</g></g>
</g>
<g style="fill:#006464; fill-opacity:0.0; 
stroke:#006464; stroke-width:60.000000; stroke-opacity:1; 
stroke-linecap:round; stroke-linejoin:round;">
<g >
</g>
<g style="fill:#840000; fill-opacity:0.0; 
stroke:#840000; stroke-width:60.000000; stroke-opacity:1; 
stroke-linecap:round; stroke-linejoin:round;">
<path style="fill:#840000; fill-opacity:0.0; 
stroke:#840000; stroke-width:60.000000; stroke-opacity:1; 
stroke-linecap:round; stroke-linejoin:round;fill:none"
d="M 16700.000000,26500.000000
17000.000000,26000.000000
" /> 
<path style="fill:#840000; fill-opacity:0.0; 
stroke:#840000; stroke-width:60.000000; stroke-opacity:1; 
stroke-linecap:round; stroke-linejoin:round;fill:none"
d="M 17000.000000,27000.000000
17000.000000,26000.000000
" /> 
<path style="fill:#840000; fill-opacity:0.0; 
stroke:#840000; stroke-width:60.000000; stroke-opacity:1; 
stroke-linecap:round; stroke-linejoin:round;fill:none"
d="M 17000.000000,26000.000000
17300.000000,26500.000000
" /> 
</g>
<g style="fill:#006464; fill-opacity:0.0; 
stroke:#006464; stroke-width:60.000000; stroke-opacity:1; 
stroke-linecap:round; stroke-linejoin:round;">
<text x="17000.000000" y="25249.960630"
textLength="1583.818898" font-size="666.653543" lengthAdjust="spacingAndGlyphs"
text-anchor="middle" opacity="0">+5V</text>
<g class="stroked-text"><desc>+5V</desc>
<path d="M16357 25035
L16738 25035
" />
<path d="M16547 25226
L16547 24845
" />
<path d="M17214 24726
L16976 24726
L16952 24964
L16976 24940
L17023 24916
L17142 24916
L17190 24940
L17214 24964
L17238 25011
L17238 25130
L17214 25178
L17190 25202
L17142 25226
L17023 25226
L16976 25202
L16952 25178
" />
<path d="M17380 24726
L17547 25226
L17714 24726
" />
</g></g>
</g>
<g style="fill:#006464; fill-opacity:0.0; 
stroke:#006464; stroke-width:60.000000; stroke-opacity:1; 
stroke-linecap:round; stroke-linejoin:round;">
<g >
</g>
<g style="fill:#840000; fill-opacity:0.0; 
stroke:#840000; stroke-width:60.000000; stroke-opacity:1; 
stroke-linecap:round; stroke-linejoin:round;">
</g>
<g style="fill:#FFFFC2; fill-opacity:0.0; 
stroke:#FFFFC2; stroke-width:60.000000; stroke-opacity:1; 
stroke-linecap:round; stroke-linejoin:round;">
</g>
<g style="fill:#FFFFC2; fill-opacity:0.6; 
stroke:#FFFFC2; stroke-width:0.039370; stroke-opacity:1; 
stroke-linecap:round; stroke-linejoin:round;">
<rect x="13000.000000" y="27500.000000" width="1000.000000" height="3000.000000" rx="0.000000" />
</g>
<g style="fill:#840000; fill-opacity:0.6; 
stroke:#840000; stroke-width:0.039370; stroke-opacity:1; 
stroke-linecap:round; stroke-linejoin:round;">
</g>
<g style="fill:#840000; fill-opacity:0.0; 
stroke:#840000; stroke-width:100.000000; stroke-opacity:1; 
stroke-linecap:round; stroke-linejoin:round;">
<rect x="13000.000000" y="27500.000000" width="1000.000000" height="3000.000000" rx="0.000000" />
<rect x="13000.000000" y="27500.000000" width="1000.000000" height="3000.000000" rx="0.000000" />
</g>
<g style="fill:#840000; fill-opacity:0.0; 
stroke:#840000; stroke-width:60.000000; stroke-opacity:1; 
stroke-linecap:round; stroke-linejoin:round;">
<circle cx="13500.000000" cy="30000.000000" r="250.000000" /> 
<path style="fill:#840000; fill-opacity:0.0; 
stroke:#840000; stroke-width:60.000000; stroke-opacity:1; 
stroke-linecap:round; stroke-linejoin:round;fill:none"
d="M 13710.000000,29870.000000
13370.000000,30200.000000
" /> 
<path style="fill:#840000; fill-opacity:0.0; 
stroke:#840000; stroke-width:60.000000; stroke-opacity:1; 
stroke-linecap:round; stroke-linejoin:round;fill:none"
d="M 13710.000000,28870.000000
13370.000000,29200.000000
" /> 
<path style="fill:#840000; fill-opacity:0.0; 
stroke:#840000; stroke-width:60.000000; stroke-opacity:1; 
stroke-linecap:round; stroke-linejoin:round;fill:none"
d="M 13710.000000,27870.000000
13370.000000,28200.000000
" /> 
<path style="fill:#840000; fill-opacity:0.0; 
stroke:#840000; stroke-width:60.000000; stroke-opacity:1; 
stroke-linecap:round; stroke-linejoin:round;fill:none"
d="M 13640.000000,29800.000000
13300.000000,30130.000000
" /> 
<path style="fill:#840000; fill-opacity:0.0; 
stroke:#840000; stroke-width:60.000000; stroke-opacity:1; 
stroke-linecap:round; stroke-linejoin:round;fill:none"
d="M 13640.000000,28800.000000
13300.000000,29130.000000
" /> 
<path style="fill:#840000; fill-opacity:0.0; 
stroke:#840000; stroke-width:60.000000; stroke-opacity:1; 
stroke-linecap:round; stroke-linejoin:round;fill:none"
d="M 13640.000000,27800.000000
13300.000000,28130.000000
" /> 
<circle cx="13500.000000" cy="29000.000000" r="250.000000" /> 
<circle cx="13500.000000" cy="28000.000000" r="250.000000" /> 
<path d="M14000 28000
L15500 28000
" />
</g>
<g style="fill:#A90000; fill-opacity:0.0; 
stroke:#A90000; stroke-width:60.000000; stroke-opacity:1; 
stroke-linecap:round; stroke-linejoin:round;">
<text x="14750.000000" y="27900.000000"
textLength="536.181102" font-size="666.653543" lengthAdjust="spacingAndGlyphs"
text-anchor="middle" opacity="0">1</text>
<g class="stroked-text"><desc>1</desc>
<path d="M14892 27876
L14607 27876
" />
<path d="M14750 27876
L14750 27376
L14702 27447
L14654 27495
L14607 27519
" />
</g></g>
<g style="fill:#840000; fill-opacity:0.0; 
stroke:#840000; stroke-width:60.000000; stroke-opacity:1; 
stroke-linecap:round; stroke-linejoin:round;">
<path d="M14000 29000
L15500 29000
" />
</g>
<g style="fill:#A90000; fill-opacity:0.0; 
stroke:#A90000; stroke-width:60.000000; stroke-opacity:1; 
stroke-linecap:round; stroke-linejoin:round;">
<text x="14750.000000" y="28900.000000"
textLength="536.181102" font-size="666.653543" lengthAdjust="spacingAndGlyphs"
text-anchor="middle" opacity="0">2</text>
<g class="stroked-text"><desc>2</desc>
<path d="M14607 28423
L14630 28400
L14678 28376
L14797 28376
L14845 28400
L14869 28423
L14892 28471
L14892 28519
L14869 28590
L14583 28876
L14892 28876
" />
</g></g>
<g style="fill:#840000; fill-opacity:0.0; 
stroke:#840000; stroke-width:60.000000; stroke-opacity:1; 
stroke-linecap:round; stroke-linejoin:round;">
<path d="M14000 30000
L15500 30000
" />
</g>
<g style="fill:#A90000; fill-opacity:0.0; 
stroke:#A90000; stroke-width:60.000000; stroke-opacity:1; 
stroke-linecap:round; stroke-linejoin:round;">
<text x="14750.000000" y="29900.000000"
textLength="536.181102" font-size="666.653543" lengthAdjust="spacingAndGlyphs"
text-anchor="middle" opacity="0">3</text>
<g class="stroked-text"><desc>3</desc>
<path d="M14583 29376
L14892 29376
L14726 29566
L14797 29566
L14845 29590
L14869 29614
L14892 29661
L14892 29780
L14869 29828
L14845 29852
L14797 29876
L14654 29876
L14607 29852
L14583 29828
" />
</g></g>
<g style="fill:#006464; fill-opacity:0.0; 
stroke:#006464; stroke-width:60.000000; stroke-opacity:1; 
stroke-linecap:round; stroke-linejoin:round;">
<text x="13499.960630" y="26749.960630"
textLength="3345.708661" font-size="666.653543" lengthAdjust="spacingAndGlyphs"
text-anchor="middle" opacity="0">CON_TC2</text>
<g class="stroked-text"><desc>CON_TC2</desc>
<path d="M12261 26678
L12238 26702
L12166 26726
L12118 26726
L12047 26702
L11999 26654
L11976 26607
L11952 26511
L11952 26440
L11976 26345
L11999 26297
L12047 26249
L12118 26226
L12166 26226
L12238 26249
L12261 26273
" />
<path d="M12571 26226
L12666 26226
L12714 26249
L12761 26297
L12785 26392
L12785 26559
L12761 26654
L12714 26702
L12666 26726
L12571 26726
L12523 26702
L12476 26654
L12452 26559
L12452 26392
L12476 26297
L12523 26249
L12571 26226
" />
<path d="M12999 26726
L12999 26226
L13285 26726
L13285 26226
" />
<path d="M13404 26773
L13785 26773
" />
<path d="M13833 26226
L14118 26226
" />
<path d="M13976 26726
L13976 26226
" />
<path d="M14571 26678
L14547 26702
L14476 26726
L14428 26726
L14357 26702
L14309 26654
L14285 26607
L14261 26511
L14261 26440
L14285 26345
L14309 26297
L14357 26249
L14428 26226
L14476 26226
L14547 26249
L14571 26273
" />
<path d="M14761 26273
L14785 26249
L14833 26226
L14952 26226
L14999 26249
L15023 26273
L15047 26321
L15047 26368
L15023 26440
L14738 26726
L15047 26726
" />
</g></g>
</g>
<g style="fill:#006464; fill-opacity:0.0; 
stroke:#006464; stroke-width:60.000000; stroke-opacity:1; 
stroke-linecap:round; stroke-linejoin:round;">
<g >
</g>
<g style="fill:#840000; fill-opacity:0.0; 
stroke:#840000; stroke-width:60.000000; stroke-opacity:1; 
stroke-linecap:round; stroke-linejoin:round;">
<path style="fill:#840000; fill-opacity:0.0; 
stroke:#840000; stroke-width:60.000000; stroke-opacity:1; 
stroke-linecap:round; stroke-linejoin:round;fill:none"
d="M 17000.000000,31500.000000
17000.000000,32000.000000
17500.000000,32000.000000
17000.000000,32500.000000
16500.000000,32000.000000
17000.000000,32000.000000
" /> 
</g>
<g style="fill:#006464; fill-opacity:0.0; 
stroke:#006464; stroke-width:60.000000; stroke-opacity:1; 
stroke-linecap:round; stroke-linejoin:round;">
<text x="17000.000000" y="33749.960630"
textLength="1583.818898" font-size="666.653543" lengthAdjust="spacingAndGlyphs"
text-anchor="middle" opacity="0">GND</text>
<g class="stroked-text"><desc>GND</desc>
<path d="M16619 33249
L16571 33226
L16500 33226
L16428 33249
L16380 33297
L16357 33345
L16333 33440
L16333 33511
L16357 33607
L16380 33654
L16428 33702
L16500 33726
L16547 33726
L16619 33702
L16642 33678
L16642 33511
L16547 33511
" />
<path d="M16857 33726
L16857 33226
L17142 33726
L17142 33226
" />
<path d="M17380 33726
L17380 33226
L17500 33226
L17571 33249
L17619 33297
L17642 33345
L17666 33440
L17666 33511
L17642 33607
L17619 33654
L17571 33702
L17500 33726
L17380 33726
" />
</g></g>
</g>
<g style="fill:#006464; fill-opacity:0.0; 
stroke:#006464; stroke-width:60.000000; stroke-opacity:1; 
stroke-linecap:round; stroke-linejoin:round;">
<g >
</g>
<g style="fill:#840000; fill-opacity:0.0; 
stroke:#840000; stroke-width:60.000000; stroke-opacity:1; 
stroke-linecap:round; stroke-linejoin:round;">
</g>
<g style="fill:#FFFFC2; fill-opacity:0.0; 
stroke:#FFFFC2; stroke-width:60.000000; stroke-opacity:1; 
stroke-linecap:round; stroke-linejoin:round;">
</g>
<g style="fill:#FFFFC2; fill-opacity:0.6; 
stroke:#FFFFC2; stroke-width:0.039370; stroke-opacity:1; 
stroke-linecap:round; stroke-linejoin:round;">
<rect x="13000.000000" y="41000.000000" width="1000.000000" height="3000.000000" rx="0.000000" />
</g>
<g style="fill:#840000; fill-opacity:0.6; 
stroke:#840000; stroke-width:0.039370; stroke-opacity:1; 
stroke-linecap:round; stroke-linejoin:round;">
</g>
<g style="fill:#840000; fill-opacity:0.0; 
stroke:#840000; stroke-width:100.000000; stroke-opacity:1; 
stroke-linecap:round; stroke-linejoin:round;">
<rect x="13000.000000" y="41000.000000" width="1000.000000" height="3000.000000" rx="0.000000" />
<rect x="13000.000000" y="41000.000000" width="1000.000000" height="3000.000000" rx="0.000000" />
</g>
<g style="fill:#840000; fill-opacity:0.0; 
stroke:#840000; stroke-width:60.000000; stroke-opacity:1; 
stroke-linecap:round; stroke-linejoin:round;">
<circle cx="13500.000000" cy="43500.000000" r="250.000000" /> 
<path style="fill:#840000; fill-opacity:0.0; 
stroke:#840000; stroke-width:60.000000; stroke-opacity:1; 
stroke-linecap:round; stroke-linejoin:round;fill:none"
d="M 13710.000000,43370.000000
13370.000000,43700.000000
" /> 
<path style="fill:#840000; fill-opacity:0.0; 
stroke:#840000; stroke-width:60.000000; stroke-opacity:1; 
stroke-linecap:round; stroke-linejoin:round;fill:none"
d="M 13710.000000,42370.000000
13370.000000,42700.000000
" /> 
<path style="fill:#840000; fill-opacity:0.0; 
stroke:#840000; stroke-width:60.000000; stroke-opacity:1; 
stroke-linecap:round; stroke-linejoin:round;fill:none"
d="M 13710.000000,41370.000000
13370.000000,41700.000000
" /> 
<path style="fill:#840000; fill-opacity:0.0; 
stroke:#840000; stroke-width:60.000000; stroke-opacity:1; 
stroke-linecap:round; stroke-linejoin:round;fill:none"
d="M 13640.000000,43300.000000
13300.000000,43630.000000
" /> 
<path style="fill:#840000; fill-opacity:0.0; 
stroke:#840000; stroke-width:60.000000; stroke-opacity:1; 
stroke-linecap:round; stroke-linejoin:round;fill:none"
d="M 13640.000000,42300.000000
13300.000000,42630.000000
" /> 
<path style="fill:#840000; fill-opacity:0.0; 
stroke:#840000; stroke-width:60.000000; stroke-opacity:1; 
stroke-linecap:round; stroke-linejoin:round;fill:none"
d="M 13640.000000,41300.000000
13300.000000,41630.000000
" /> 
<circle cx="13500.000000" cy="42500.000000" r="250.000000" /> 
<circle cx="13500.000000" cy="41500.000000" r="250.000000" /> 
<path d="M14000 41500
L15500 41500
" />
</g>
<g style="fill:#A90000; fill-opacity:0.0; 
stroke:#A90000; stroke-width:60.000000; stroke-opacity:1; 
stroke-linecap:round; stroke-linejoin:round;">
<text x="14750.000000" y="41400.000000"
textLength="536.181102" font-size="666.653543" lengthAdjust="spacingAndGlyphs"
text-anchor="middle" opacity="0">1</text>
<g class="stroked-text"><desc>1</desc>
<path d="M14892 41376
L14607 41376
" />
<path d="M14750 41376
L14750 40876
L14702 40947
L14654 40995
L14607 41019
" />
</g></g>
<g style="fill:#840000; fill-opacity:0.0; 
stroke:#840000; stroke-width:60.000000; stroke-opacity:1; 
stroke-linecap:round; stroke-linejoin:round;">
<path d="M14000 42500
L15500 42500
" />
</g>
<g style="fill:#A90000; fill-opacity:0.0; 
stroke:#A90000; stroke-width:60.000000; stroke-opacity:1; 
stroke-linecap:round; stroke-linejoin:round;">
<text x="14750.000000" y="42400.000000"
textLength="536.181102" font-size="666.653543" lengthAdjust="spacingAndGlyphs"
text-anchor="middle" opacity="0">2</text>
<g class="stroked-text"><desc>2</desc>
<path d="M14607 41923
L14630 41900
L14678 41876
L14797 41876
L14845 41900
L14869 41923
L14892 41971
L14892 42019
L14869 42090
L14583 42376
L14892 42376
" />
</g></g>
<g style="fill:#840000; fill-opacity:0.0; 
stroke:#840000; stroke-width:60.000000; stroke-opacity:1; 
stroke-linecap:round; stroke-linejoin:round;">
<path d="M14000 43500
L15500 43500
" />
</g>
<g style="fill:#A90000; fill-opacity:0.0; 
stroke:#A90000; stroke-width:60.000000; stroke-opacity:1; 
stroke-linecap:round; stroke-linejoin:round;">
<text x="14750.000000" y="43400.000000"
textLength="536.181102" font-size="666.653543" lengthAdjust="spacingAndGlyphs"
text-anchor="middle" opacity="0">3</text>
<g class="stroked-text"><desc>3</desc>
<path d="M14583 42876
L14892 42876
L14726 43066
L14797 43066
L14845 43090
L14869 43114
L14892 43161
L14892 43280
L14869 43328
L14845 43352
L14797 43376
L14654 43376
L14607 43352
L14583 43328
" />
</g></g>
<g style="fill:#006464; fill-opacity:0.0; 
stroke:#006464; stroke-width:60.000000; stroke-opacity:1; 
stroke-linecap:round; stroke-linejoin:round;">
<text x="13499.960630" y="40249.960630"
textLength="3345.708661" font-size="666.653543" lengthAdjust="spacingAndGlyphs"
text-anchor="middle" opacity="0">CON_TC3</text>
<g class="stroked-text"><desc>CON_TC3</desc>
<path d="M12261 40178
L12238 40202
L12166 40226
L12118 40226
L12047 40202
L11999 40154
L11976 40107
L11952 40011
L11952 39940
L11976 39845
L11999 39797
L12047 39749
L12118 39726
L12166 39726
L12238 39749
L12261 39773
" />
<path d="M12571 39726
L12666 39726
L12714 39749
L12761 39797
L12785 39892
L12785 40059
L12761 40154
L12714 40202
L12666 40226
L12571 40226
L12523 40202
L12476 40154
L12452 40059
L12452 39892
L12476 39797
L12523 39749
L12571 39726
" />
<path d="M12999 40226
L12999 39726
L13285 40226
L13285 39726
" />
<path d="M13404 40273
L13785 40273
" />
<path d="M13833 39726
L14118 39726
" />
<path d="M13976 40226
L13976 39726
" />
<path d="M14571 40178
L14547 40202
L14476 40226
L14428 40226
L14357 40202
L14309 40154
L14285 40107
L14261 40011
L14261 39940
L14285 39845
L14309 39797
L14357 39749
L14428 39726
L14476 39726
L14547 39749
L14571 39773
" />
<path d="M14738 39726
L15047 39726
L14880 39916
L14952 39916
L14999 39940
L15023 39964
L15047 40011
L15047 40130
L15023 40178
L14999 40202
L14952 40226
L14809 40226
L14761 40202
L14738 40178
" />
</g></g>
</g>
<g style="fill:#006464; fill-opacity:0.0; 
stroke:#006464; stroke-width:60.000000; stroke-opacity:1; 
stroke-linecap:round; stroke-linejoin:round;">
<g >
</g>
<g style="fill:#840000; fill-opacity:0.0; 
stroke:#840000; stroke-width:60.000000; stroke-opacity:1; 
stroke-linecap:round; stroke-linejoin:round;">
<path style="fill:#840000; fill-opacity:0.0; 
stroke:#840000; stroke-width:60.000000; stroke-opacity:1; 
stroke-linecap:round; stroke-linejoin:round;fill:none"
d="M 16700.000000,40000.000000
17000.000000,39500.000000
" /> 
<path style="fill:#840000; fill-opacity:0.0; 
stroke:#840000; stroke-width:60.000000; stroke-opacity:1; 
stroke-linecap:round; stroke-linejoin:round;fill:none"
d="M 17000.000000,40500.000000
17000.000000,39500.000000
" /> 
<path style="fill:#840000; fill-opacity:0.0; 
stroke:#840000; stroke-width:60.000000; stroke-opacity:1; 
stroke-linecap:round; stroke-linejoin:round;fill:none"
d="M 17000.000000,39500.000000
17300.000000,40000.000000
" /> 
</g>
<g style="fill:#006464; fill-opacity:0.0; 
stroke:#006464; stroke-width:60.000000; stroke-opacity:1; 
stroke-linecap:round; stroke-linejoin:round;">
<text x="17000.000000" y="38749.960630"
textLength="1583.818898" font-size="666.653543" lengthAdjust="spacingAndGlyphs"
text-anchor="middle" opacity="0">+5V</text>
<g class="stroked-text"><desc>+5V</desc>
<path d="M16357 38535
L16738 38535
" />
<path d="M16547 38726
L16547 38345
" />
<path d="M17214 38226
L16976 38226
L16952 38464
L16976 38440
L17023 38416
L17142 38416
L17190 38440
L17214 38464
L17238 38511
L17238 38630
L17214 38678
L17190 38702
L17142 38726
L17023 38726
L16976 38702
L16952 38678
" />
<path d="M17380 38226
L17547 38726
L17714 38226
" />
</g></g>
</g>
<g style="fill:#006464; fill-opacity:0.0; 
stroke:#006464; stroke-width:60.000000; stroke-opacity:1; 
stroke-linecap:round; stroke-linejoin:round;">
<g >
</g>
<g style="fill:#840000; fill-opacity:0.0; 
stroke:#840000; stroke-width:60.000000; stroke-opacity:1; 
stroke-linecap:round; stroke-linejoin:round;">
</g>
<g style="fill:#FFFFC2; fill-opacity:0.0; 
stroke:#FFFFC2; stroke-width:60.000000; stroke-opacity:1; 
stroke-linecap:round; stroke-linejoin:round;">
</g>
<g style="fill:#FFFFC2; fill-opacity:0.6; 
stroke:#FFFFC2; stroke-width:0.039370; stroke-opacity:1; 
stroke-linecap:round; stroke-linejoin:round;">
<rect x="13000.000000" y="56500.000000" width="1000.000000" height="3000.000000" rx="0.000000" />
</g>
<g style="fill:#840000; fill-opacity:0.6; 
stroke:#840000; stroke-width:0.039370; stroke-opacity:1; 
stroke-linecap:round; stroke-linejoin:round;">
</g>
<g style="fill:#840000; fill-opacity:0.0; 
stroke:#840000; stroke-width:100.000000; stroke-opacity:1; 
stroke-linecap:round; stroke-linejoin:round;">
<rect x="13000.000000" y="56500.000000" width="1000.000000" height="3000.000000" rx="0.000000" />
<rect x="13000.000000" y="56500.000000" width="1000.000000" height="3000.000000" rx="0.000000" />
</g>
<g style="fill:#840000; fill-opacity:0.0; 
stroke:#840000; stroke-width:60.000000; stroke-opacity:1; 
stroke-linecap:round; stroke-linejoin:round;">
<circle cx="13500.000000" cy="59000.000000" r="250.000000" /> 
<path style="fill:#840000; fill-opacity:0.0; 
stroke:#840000; stroke-width:60.000000; stroke-opacity:1; 
stroke-linecap:round; stroke-linejoin:round;fill:none"
d="M 13710.000000,58870.000000
13370.000000,59200.000000
" /> 
<path style="fill:#840000; fill-opacity:0.0; 
stroke:#840000; stroke-width:60.000000; stroke-opacity:1; 
stroke-linecap:round; stroke-linejoin:round;fill:none"
d="M 13710.000000,57870.000000
13370.000000,58200.000000
" /> 
<path style="fill:#840000; fill-opacity:0.0; 
stroke:#840000; stroke-width:60.000000; stroke-opacity:1; 
stroke-linecap:round; stroke-linejoin:round;fill:none"
d="M 13710.000000,56870.000000
13370.000000,57200.000000
" /> 
<path style="fill:#840000; fill-opacity:0.0; 
stroke:#840000; stroke-width:60.000000; stroke-opacity:1; 
stroke-linecap:round; stroke-linejoin:round;fill:none"
d="M 13640.000000,58800.000000
13300.000000,59130.000000
" /> 
<path style="fill:#840000; fill-opacity:0.0; 
stroke:#840000; stroke-width:60.000000; stroke-opacity:1; 
stroke-linecap:round; stroke-linejoin:round;fill:none"
d="M 13640.000000,57800.000000
13300.000000,58130.000000
" /> 
<path style="fill:#840000; fill-opacity:0.0; 
stroke:#840000; stroke-width:60.000000; stroke-opacity:1; 
stroke-linecap:round; stroke-linejoin:round;fill:none"
d="M 13640.000000,56800.000000
13300.000000,57130.000000
" /> 
<circle cx="13500.000000" cy="58000.000000" r="250.000000" /> 
<circle cx="13500.000000" cy="57000.000000" r="250.000000" /> 
<path d="M14000 57000
L15500 57000
" />
</g>
<g style="fill:#A90000; fill-opacity:0.0; 
stroke:#A90000; stroke-width:60.000000; stroke-opacity:1; 
stroke-linecap:round; stroke-linejoin:round;">
<text x="14750.000000" y="56900.000000"
textLength="536.181102" font-size="666.653543" lengthAdjust="spacingAndGlyphs"
text-anchor="middle" opacity="0">1</text>
<g class="stroked-text"><desc>1</desc>
<path d="M14892 56876
L14607 56876
" />
<path d="M14750 56876
L14750 56376
L14702 56447
L14654 56495
L14607 56519
" />
</g></g>
<g style="fill:#840000; fill-opacity:0.0; 
stroke:#840000; stroke-width:60.000000; stroke-opacity:1; 
stroke-linecap:round; stroke-linejoin:round;">
<path d="M14000 58000
L15500 58000
" />
</g>
<g style="fill:#A90000; fill-opacity:0.0; 
stroke:#A90000; stroke-width:60.000000; stroke-opacity:1; 
stroke-linecap:round; stroke-linejoin:round;">
<text x="14750.000000" y="57900.000000"
textLength="536.181102" font-size="666.653543" lengthAdjust="spacingAndGlyphs"
text-anchor="middle" opacity="0">2</text>
<g class="stroked-text"><desc>2</desc>
<path d="M14607 57423
L14630 57400
L14678 57376
L14797 57376
L14845 57400
L14869 57423
L14892 57471
L14892 57519
L14869 57590
L14583 57876
L14892 57876
" />
</g></g>
<g style="fill:#840000; fill-opacity:0.0; 
stroke:#840000; stroke-width:60.000000; stroke-opacity:1; 
stroke-linecap:round; stroke-linejoin:round;">
<path d="M14000 59000
L15500 59000
" />
</g>
<g style="fill:#A90000; fill-opacity:0.0; 
stroke:#A90000; stroke-width:60.000000; stroke-opacity:1; 
stroke-linecap:round; stroke-linejoin:round;">
<text x="14750.000000" y="58900.000000"
textLength="536.181102" font-size="666.653543" lengthAdjust="spacingAndGlyphs"
text-anchor="middle" opacity="0">3</text>
<g class="stroked-text"><desc>3</desc>
<path d="M14583 58376
L14892 58376
L14726 58566
L14797 58566
L14845 58590
L14869 58614
L14892 58661
L14892 58780
L14869 58828
L14845 58852
L14797 58876
L14654 58876
L14607 58852
L14583 58828
" />
</g></g>
<g style="fill:#006464; fill-opacity:0.0; 
stroke:#006464; stroke-width:60.000000; stroke-opacity:1; 
stroke-linecap:round; stroke-linejoin:round;">
<text x="13499.960630" y="55749.960630"
textLength="3345.708661" font-size="666.653543" lengthAdjust="spacingAndGlyphs"
text-anchor="middle" opacity="0">CON_TC4</text>
<g class="stroked-text"><desc>CON_TC4</desc>
<path d="M12261 55678
L12238 55702
L12166 55726
L12118 55726
L12047 55702
L11999 55654
L11976 55607
L11952 55511
L11952 55440
L11976 55345
L11999 55297
L12047 55249
L12118 55226
L12166 55226
L12238 55249
L12261 55273
" />
<path d="M12571 55226
L12666 55226
L12714 55249
L12761 55297
L12785 55392
L12785 55559
L12761 55654
L12714 55702
L12666 55726
L12571 55726
L12523 55702
L12476 55654
L12452 55559
L12452 55392
L12476 55297
L12523 55249
L12571 55226
" />
<path d="M12999 55726
L12999 55226
L13285 55726
L13285 55226
" />
<path d="M13404 55773
L13785 55773
" />
<path d="M13833 55226
L14118 55226
" />
<path d="M13976 55726
L13976 55226
" />
<path d="M14571 55678
L14547 55702
L14476 55726
L14428 55726
L14357 55702
L14309 55654
L14285 55607
L14261 55511
L14261 55440
L14285 55345
L14309 55297
L14357 55249
L14428 55226
L14476 55226
L14547 55249
L14571 55273
" />
<path d="M14999 55392
L14999 55726
" />
<path d="M14880 55202
L14761 55559
L15071 55559
" />
</g></g>
</g>
<g style="fill:#006464; fill-opacity:0.0; 
stroke:#006464; stroke-width:60.000000; stroke-opacity:1; 
stroke-linecap:round; stroke-linejoin:round;">
<g >
</g>
<g style="fill:#840000; fill-opacity:0.0; 
stroke:#840000; stroke-width:60.000000; stroke-opacity:1; 
stroke-linecap:round; stroke-linejoin:round;">
<path style="fill:#840000; fill-opacity:0.0; 
stroke:#840000; stroke-width:60.000000; stroke-opacity:1; 
stroke-linecap:round; stroke-linejoin:round;fill:none"
d="M 16700.000000,55500.000000
17000.000000,55000.000000
" /> 
<path style="fill:#840000; fill-opacity:0.0; 
stroke:#840000; stroke-width:60.000000; stroke-opacity:1; 
stroke-linecap:round; stroke-linejoin:round;fill:none"
d="M 17000.000000,56000.000000
17000.000000,55000.000000
" /> 
<path style="fill:#840000; fill-opacity:0.0; 
stroke:#840000; stroke-width:60.000000; stroke-opacity:1; 
stroke-linecap:round; stroke-linejoin:round;fill:none"
d="M 17000.000000,55000.000000
17300.000000,55500.000000
" /> 
</g>
<g style="fill:#006464; fill-opacity:0.0; 
stroke:#006464; stroke-width:60.000000; stroke-opacity:1; 
stroke-linecap:round; stroke-linejoin:round;">
<text x="17000.000000" y="54249.960630"
textLength="1583.818898" font-size="666.653543" lengthAdjust="spacingAndGlyphs"
text-anchor="middle" opacity="0">+5V</text>
<g class="stroked-text"><desc>+5V</desc>
<path d="M16357 54035
L16738 54035
" />
<path d="M16547 54226
L16547 53845
" />
<path d="M17214 53726
L16976 53726
L16952 53964
L16976 53940
L17023 53916
L17142 53916
L17190 53940
L17214 53964
L17238 54011
L17238 54130
L17214 54178
L17190 54202
L17142 54226
L17023 54226
L16976 54202
L16952 54178
" />
<path d="M17380 53726
L17547 54226
L17714 53726
" />
</g></g>
</g>
<g style="fill:#006464; fill-opacity:0.0; 
stroke:#006464; stroke-width:60.000000; stroke-opacity:1; 
stroke-linecap:round; stroke-linejoin:round;">
<g >
</g>
<g style="fill:#840000; fill-opacity:0.0; 
stroke:#840000; stroke-width:60.000000; stroke-opacity:1; 
stroke-linecap:round; stroke-linejoin:round;">
<path style="fill:#840000; fill-opacity:0.0; 
stroke:#840000; stroke-width:60.000000; stroke-opacity:1; 
stroke-linecap:round; stroke-linejoin:round;fill:none"
d="M 17000.000000,60500.000000
17000.000000,61000.000000
17500.000000,61000.000000
17000.000000,61500.000000
16500.000000,61000.000000
17000.000000,61000.000000
" /> 
</g>
<g style="fill:#006464; fill-opacity:0.0; 
stroke:#006464; stroke-width:60.000000; stroke-opacity:1; 
stroke-linecap:round; stroke-linejoin:round;">
<text x="17000.000000" y="62749.960630"
textLength="1583.818898" font-size="666.653543" lengthAdjust="spacingAndGlyphs"
text-anchor="middle" opacity="0">GND</text>
<g class="stroked-text"><desc>GND</desc>
<path d="M16619 62249
L16571 62226
L16500 62226
L16428 62249
L16380 62297
L16357 62345
L16333 62440
L16333 62511
L16357 62607
L16380 62654
L16428 62702
L16500 62726
L16547 62726
L16619 62702
L16642 62678
L16642 62511
L16547 62511
" />
<path d="M16857 62726
L16857 62226
L17142 62726
L17142 62226
" />
<path d="M17380 62726
L17380 62226
L17500 62226
L17571 62249
L17619 62297
L17642 62345
L17666 62440
L17666 62511
L17642 62607
L17619 62654
L17571 62702
L17500 62726
L17380 62726
" />
</g></g>
</g>
<g style="fill:#006464; fill-opacity:0.0; 
stroke:#006464; stroke-width:62.519685; stroke-opacity:1; 
stroke-linecap:round; stroke-linejoin:round;">
</g>
<g style="fill:#006464; fill-opacity:0.0; 
stroke:#006464; stroke-width:60.000000; stroke-opacity:1; 
stroke-linecap:round; stroke-linejoin:round;">
</g>
<g style="fill:#840000; fill-opacity:0.0; 
stroke:#840000; stroke-width:60.000000; stroke-opacity:1; 
stroke-linecap:round; stroke-linejoin:round;">
<text x="15687.519685" y="42785.748031"
textLength="1417.125984" font-size="666.653543" lengthAdjust="spacingAndGlyphs"
text-anchor="start" opacity="0">TC3</text>
<g class="stroked-text"><desc>TC3</desc>
<path d="M15765 42261
L16050 42261
" />
<path d="M15907 42761
L15907 42261
" />
<path d="M16503 42714
L16479 42738
L16407 42761
L16360 42761
L16288 42738
L16241 42690
L16217 42642
L16193 42547
L16193 42476
L16217 42380
L16241 42333
L16288 42285
L16360 42261
L16407 42261
L16479 42285
L16503 42309
" />
<path d="M16669 42261
L16979 42261
L16812 42452
L16884 42452
L16931 42476
L16955 42500
L16979 42547
L16979 42666
L16955 42714
L16931 42738
L16884 42761
L16741 42761
L16693 42738
L16669 42714
" />
</g><path style="fill:#840000; fill-opacity:0.0; 
stroke:#840000; stroke-width:60.000000; stroke-opacity:1; 
stroke-linecap:round; stroke-linejoin:round;fill:none"
d="M 15500.000000,42500.000000
15500.000000,43000.157480
17357.322835,43000.157480
17794.842520,42500.000000
17357.322835,41999.842520
15500.000000,41999.842520
Z" /> 
</g>
<g style="fill:#840000; fill-opacity:0.0; 
stroke:#840000; stroke-width:62.519685; stroke-opacity:1; 
stroke-linecap:round; stroke-linejoin:round;">
</g>
<g style="fill:#840000; fill-opacity:0.0; 
stroke:#840000; stroke-width:60.000000; stroke-opacity:1; 
stroke-linecap:round; stroke-linejoin:round;">
<text x="15687.519685" y="58285.748031"
textLength="1419.645669" font-size="666.653543" lengthAdjust="spacingAndGlyphs"
text-anchor="start" opacity="0">TC4</text>
<g class="stroked-text"><desc>TC4</desc>
<path d="M15765 57761
L16050 57761
" />
<path d="M15907 58261
L15907 57761
" />
<path d="M16503 58214
L16479 58238
L16407 58261
L16360 58261
L16288 58238
L16241 58190
L16217 58142
L16193 58047
L16193 57976
L16217 57880
L16241 57833
L16288 57785
L16360 57761
L16407 57761
L16479 57785
L16503 57809
" />
<path d="M16931 57928
L16931 58261
" />
<path d="M16812 57738
L16693 58095
L17003 58095
" />
</g><path style="fill:#840000; fill-opacity:0.0; 
stroke:#840000; stroke-width:60.000000; stroke-opacity:1; 
stroke-linecap:round; stroke-linejoin:round;fill:none"
d="M 15500.000000,58000.000000
15500.000000,58500.157480
17357.322835,58500.157480
17794.842520,58000.000000
17357.322835,57499.842520
15500.000000,57499.842520
Z" /> 
</g>
<g style="fill:#840000; fill-opacity:0.0; 
stroke:#840000; stroke-width:62.519685; stroke-opacity:1; 
stroke-linecap:round; stroke-linejoin:round;">
</g>
<g style="fill:#840000; fill-opacity:0.0; 
stroke:#840000; stroke-width:60.000000; stroke-opacity:1; 
stroke-linecap:round; stroke-linejoin:round;">
<text x="15687.519685" y="15285.748031"
textLength="1419.645669" font-size="666.653543" lengthAdjust="spacingAndGlyphs"
text-anchor="start" opacity="0">TC1</text>
<g class="stroked-text"><desc>TC1</desc>
<path d="M15765 14761
L16050 14761
" />
<path d="M15907 15261
L15907 14761
" />
<path d="M16503 15214
L16479 15238
L16407 15261
L16360 15261
L16288 15238
L16241 15190
L16217 15142
L16193 15047
L16193 14976
L16217 14880
L16241 14833
L16288 14785
L16360 14761
L16407 14761
L16479 14785
L16503 14809
" />
<path d="M16979 15261
L16693 15261
" />
<path d="M16836 15261
L16836 14761
L16788 14833
L16741 14880
L16693 14904
" />
</g><path style="fill:#840000; fill-opacity:0.0; 
stroke:#840000; stroke-width:60.000000; stroke-opacity:1; 
stroke-linecap:round; stroke-linejoin:round;fill:none"
d="M 15500.000000,15000.000000
15500.000000,15500.157480
17357.322835,15500.157480
17794.842520,15000.000000
17357.322835,14499.842520
15500.000000,14499.842520
Z" /> 
</g>
<g style="fill:#840000; fill-opacity:0.0; 
stroke:#840000; stroke-width:62.519685; stroke-opacity:1; 
stroke-linecap:round; stroke-linejoin:round;">
</g>
<g style="fill:#840000; fill-opacity:0.0; 
stroke:#840000; stroke-width:60.000000; stroke-opacity:1; 
stroke-linecap:round; stroke-linejoin:round;">
<text x="15687.519685" y="29285.748031"
textLength="1419.645669" font-size="666.653543" lengthAdjust="spacingAndGlyphs"
text-anchor="start" opacity="0">TC2</text>
<g class="stroked-text"><desc>TC2</desc>
<path d="M15765 28761
L16050 28761
" />
<path d="M15907 29261
L15907 28761
" />
<path d="M16503 29214
L16479 29238
L16407 29261
L16360 29261
L16288 29238
L16241 29190
L16217 29142
L16193 29047
L16193 28976
L16217 28880
L16241 28833
L16288 28785
L16360 28761
L16407 28761
L16479 28785
L16503 28809
" />
<path d="M16693 28809
L16717 28785
L16765 28761
L16884 28761
L16931 28785
L16955 28809
L16979 28857
L16979 28904
L16955 28976
L16669 29261
L16979 29261
" />
</g><path style="fill:#840000; fill-opacity:0.0; 
stroke:#840000; stroke-width:60.000000; stroke-opacity:1; 
stroke-linecap:round; stroke-linejoin:round;fill:none"
d="M 15500.000000,29000.000000
15500.000000,29500.157480
17357.322835,29500.157480
17794.842520,29000.000000
17357.322835,28499.842520
15500.000000,28499.842520
Z" /> 
</g>
<g style="fill:#009600; fill-opacity:0.0; 
stroke:#009600; stroke-width:60.000000; stroke-opacity:1; 
stroke-linecap:round; stroke-linejoin:round;">
<path d="M15500 14000
L17000 14000
" />
<path d="M15500 16000
L17000 16000
" />
<path d="M17000 16000
L17000 17500
" />
<path d="M17000 14000
L17000 13000
" />
<path d="M15500 41500
L17000 41500
" />
<path d="M17000 41500
L17000 40500
" />
<path d="M17000 43500
L17000 45000
" />
<path d="M15500 43500
L17000 43500
" />
<path d="M17000 28000
L17000 27000
" />
<path d="M17000 57000
L17000 56000
" />
<path d="M15500 59000
L17000 59000
" />
<path d="M17000 59000
L17000 60500
" />
<path d="M15500 57000
L17000 57000
" />
<path d="M17000 30000
L17000 31500
" />
<path d="M15500 28000
L17000 28000
" />
<path d="M15500 30000
L17000 30000
" />
</g> 
</svg>
