<?xml version="1.0" standalone="no"?>
 <!DOCTYPE svg PUBLIC "-//W3C//DTD SVG 1.1//EN" 
 "http://www.w3.org/Graphics/SVG/1.1/DTD/svg11.dtd"> 
<svg
  xmlns:svg="http://www.w3.org/2000/svg"
  xmlns="http://www.w3.org/2000/svg"
  xmlns:xlink="http://www.w3.org/1999/xlink"
  version="1.1"
  width="29.700220cm" height="21.000720cm" viewBox="0 0 116930 82680">
<title>SVG Picture created as karca-Raspberry Pi.svg date 2023/01/18 19:58:49 </title>
  <desc>Picture generated by Eeschema-SVG </desc>
<g style="fill:#000000; fill-opacity:1.000000;stroke:#000000; stroke-opacity:1.000000;
stroke-linecap:round; stroke-linejoin:round;"
 transform="translate(0 0) scale(1 1)">
</g>
<g style="fill:#000000; fill-opacity:0.0; 
stroke:#000000; stroke-width:60.000000; stroke-opacity:1; 
stroke-linecap:round; stroke-linejoin:round;">
<g >
</g>
<g style="fill:#840000; fill-opacity:0.0; 
stroke:#840000; stroke-width:60.000000; stroke-opacity:1; 
stroke-linecap:round; stroke-linejoin:round;">
</g>
<g style="fill:#FFFFC2; fill-opacity:0.0; 
stroke:#FFFFC2; stroke-width:60.000000; stroke-opacity:1; 
stroke-linecap:round; stroke-linejoin:round;">
</g>
<g style="fill:#FFFFC2; fill-opacity:0.6; 
stroke:#FFFFC2; stroke-width:0.039370; stroke-opacity:1; 
stroke-linecap:round; stroke-linejoin:round;">
<rect x="40500.000000" y="24000.000000" width="2000.000000" height="20000.000000" rx="0.000000" />
</g>
<g style="fill:#840000; fill-opacity:0.6; 
stroke:#840000; stroke-width:0.039370; stroke-opacity:1; 
stroke-linecap:round; stroke-linejoin:round;">
</g>
<g style="fill:#840000; fill-opacity:0.0; 
stroke:#840000; stroke-width:100.000000; stroke-opacity:1; 
stroke-linecap:round; stroke-linejoin:round;">
<rect x="40500.000000" y="24000.000000" width="2000.000000" height="20000.000000" rx="0.000000" />
</g>
<g style="fill:#840000; fill-opacity:0.0; 
stroke:#840000; stroke-width:60.000000; stroke-opacity:1; 
stroke-linecap:round; stroke-linejoin:round;">
<rect x="40500.000000" y="43450.000000" width="500.000000" height="100.000000" rx="0.000000" />
<rect x="40500.000000" y="42450.000000" width="500.000000" height="100.000000" rx="0.000000" />
<rect x="40500.000000" y="41450.000000" width="500.000000" height="100.000000" rx="0.000000" />
<rect x="40500.000000" y="40450.000000" width="500.000000" height="100.000000" rx="0.000000" />
<rect x="40500.000000" y="39450.000000" width="500.000000" height="100.000000" rx="0.000000" />
<rect x="40500.000000" y="38450.000000" width="500.000000" height="100.000000" rx="0.000000" />
<rect x="40500.000000" y="37450.000000" width="500.000000" height="100.000000" rx="0.000000" />
<rect x="40500.000000" y="36450.000000" width="500.000000" height="100.000000" rx="0.000000" />
<rect x="40500.000000" y="35450.000000" width="500.000000" height="100.000000" rx="0.000000" />
<rect x="40500.000000" y="34450.000000" width="500.000000" height="100.000000" rx="0.000000" />
<rect x="40500.000000" y="33450.000000" width="500.000000" height="100.000000" rx="0.000000" />
<rect x="40500.000000" y="32450.000000" width="500.000000" height="100.000000" rx="0.000000" />
<rect x="40500.000000" y="31450.000000" width="500.000000" height="100.000000" rx="0.000000" />
<rect x="40500.000000" y="30450.000000" width="500.000000" height="100.000000" rx="0.000000" />
<rect x="40500.000000" y="29450.000000" width="500.000000" height="100.000000" rx="0.000000" />
<rect x="40500.000000" y="28450.000000" width="500.000000" height="100.000000" rx="0.000000" />
<rect x="40500.000000" y="27450.000000" width="500.000000" height="100.000000" rx="0.000000" />
<rect x="40500.000000" y="26450.000000" width="500.000000" height="100.000000" rx="0.000000" />
<rect x="40500.000000" y="25450.000000" width="500.000000" height="100.000000" rx="0.000000" />
<rect x="40500.000000" y="24450.000000" width="500.000000" height="100.000000" rx="0.000000" />
</g>
<g style="fill:#840000; fill-opacity:0.0; 
stroke:#840000; stroke-width:100.000000; stroke-opacity:1; 
stroke-linecap:round; stroke-linejoin:round;">
<rect x="40500.000000" y="24000.000000" width="2000.000000" height="20000.000000" rx="0.000000" />
</g>
<g style="fill:#840000; fill-opacity:0.0; 
stroke:#840000; stroke-width:60.000000; stroke-opacity:1; 
stroke-linecap:round; stroke-linejoin:round;">
<rect x="42000.000000" y="43450.000000" width="500.000000" height="100.000000" rx="0.000000" />
<rect x="42000.000000" y="42450.000000" width="500.000000" height="100.000000" rx="0.000000" />
<rect x="42000.000000" y="41450.000000" width="500.000000" height="100.000000" rx="0.000000" />
<rect x="42000.000000" y="40450.000000" width="500.000000" height="100.000000" rx="0.000000" />
<rect x="42000.000000" y="39450.000000" width="500.000000" height="100.000000" rx="0.000000" />
<rect x="42000.000000" y="38450.000000" width="500.000000" height="100.000000" rx="0.000000" />
<rect x="42000.000000" y="37450.000000" width="500.000000" height="100.000000" rx="0.000000" />
<rect x="42000.000000" y="36450.000000" width="500.000000" height="100.000000" rx="0.000000" />
<rect x="42000.000000" y="35450.000000" width="500.000000" height="100.000000" rx="0.000000" />
<rect x="42000.000000" y="34450.000000" width="500.000000" height="100.000000" rx="0.000000" />
<rect x="42000.000000" y="33450.000000" width="500.000000" height="100.000000" rx="0.000000" />
<rect x="42000.000000" y="32450.000000" width="500.000000" height="100.000000" rx="0.000000" />
<rect x="42000.000000" y="31450.000000" width="500.000000" height="100.000000" rx="0.000000" />
<rect x="42000.000000" y="30450.000000" width="500.000000" height="100.000000" rx="0.000000" />
<rect x="42000.000000" y="29450.000000" width="500.000000" height="100.000000" rx="0.000000" />
<rect x="42000.000000" y="28450.000000" width="500.000000" height="100.000000" rx="0.000000" />
<rect x="42000.000000" y="27450.000000" width="500.000000" height="100.000000" rx="0.000000" />
<rect x="42000.000000" y="26450.000000" width="500.000000" height="100.000000" rx="0.000000" />
<rect x="42000.000000" y="25450.000000" width="500.000000" height="100.000000" rx="0.000000" />
<rect x="42000.000000" y="24450.000000" width="500.000000" height="100.000000" rx="0.000000" />
<path d="M40500 24500
L39000 24500
" />
</g>
<g style="fill:#A90000; fill-opacity:0.0; 
stroke:#A90000; stroke-width:60.000000; stroke-opacity:1; 
stroke-linecap:round; stroke-linejoin:round;">
<text x="39750.000000" y="24400.000000"
textLength="538.700787" font-size="666.653543" lengthAdjust="spacingAndGlyphs"
text-anchor="middle" opacity="0">1</text>
<g class="stroked-text"><desc>1</desc>
<path d="M39892 24376
L39607 24376
" />
<path d="M39750 24376
L39750 23876
L39702 23947
L39654 23995
L39607 24019
" />
</g></g>
<g style="fill:#840000; fill-opacity:0.0; 
stroke:#840000; stroke-width:60.000000; stroke-opacity:1; 
stroke-linecap:round; stroke-linejoin:round;">
<path d="M42500 28500
L44000 28500
" />
</g>
<g style="fill:#A90000; fill-opacity:0.0; 
stroke:#A90000; stroke-width:60.000000; stroke-opacity:1; 
stroke-linecap:round; stroke-linejoin:round;">
<text x="43250.000000" y="28400.000000"
textLength="1012.362205" font-size="666.653543" lengthAdjust="spacingAndGlyphs"
text-anchor="middle" opacity="0">10</text>
<g class="stroked-text"><desc>10</desc>
<path d="M43154 28376
L42869 28376
" />
<path d="M43011 28376
L43011 27876
L42964 27947
L42916 27995
L42869 28019
" />
<path d="M43464 27876
L43511 27876
L43559 27900
L43583 27923
L43607 27971
L43630 28066
L43630 28185
L43607 28280
L43583 28328
L43559 28352
L43511 28376
L43464 28376
L43416 28352
L43392 28328
L43369 28280
L43345 28185
L43345 28066
L43369 27971
L43392 27923
L43416 27900
L43464 27876
" />
</g></g>
<g style="fill:#840000; fill-opacity:0.0; 
stroke:#840000; stroke-width:60.000000; stroke-opacity:1; 
stroke-linecap:round; stroke-linejoin:round;">
<path d="M40500 29500
L39000 29500
" />
</g>
<g style="fill:#A90000; fill-opacity:0.0; 
stroke:#A90000; stroke-width:60.000000; stroke-opacity:1; 
stroke-linecap:round; stroke-linejoin:round;">
<text x="39750.000000" y="29400.000000"
textLength="1012.362205" font-size="666.653543" lengthAdjust="spacingAndGlyphs"
text-anchor="middle" opacity="0">11</text>
<g class="stroked-text"><desc>11</desc>
<path d="M39654 29376
L39369 29376
" />
<path d="M39511 29376
L39511 28876
L39464 28947
L39416 28995
L39369 29019
" />
<path d="M40130 29376
L39845 29376
" />
<path d="M39988 29376
L39988 28876
L39940 28947
L39892 28995
L39845 29019
" />
</g></g>
<g style="fill:#840000; fill-opacity:0.0; 
stroke:#840000; stroke-width:60.000000; stroke-opacity:1; 
stroke-linecap:round; stroke-linejoin:round;">
<path d="M42500 29500
L44000 29500
" />
</g>
<g style="fill:#A90000; fill-opacity:0.0; 
stroke:#A90000; stroke-width:60.000000; stroke-opacity:1; 
stroke-linecap:round; stroke-linejoin:round;">
<text x="43250.000000" y="29400.000000"
textLength="1012.362205" font-size="666.653543" lengthAdjust="spacingAndGlyphs"
text-anchor="middle" opacity="0">12</text>
<g class="stroked-text"><desc>12</desc>
<path d="M43154 29376
L42869 29376
" />
<path d="M43011 29376
L43011 28876
L42964 28947
L42916 28995
L42869 29019
" />
<path d="M43345 28923
L43369 28900
L43416 28876
L43535 28876
L43583 28900
L43607 28923
L43630 28971
L43630 29019
L43607 29090
L43321 29376
L43630 29376
" />
</g></g>
<g style="fill:#840000; fill-opacity:0.0; 
stroke:#840000; stroke-width:60.000000; stroke-opacity:1; 
stroke-linecap:round; stroke-linejoin:round;">
<path d="M40500 30500
L39000 30500
" />
</g>
<g style="fill:#A90000; fill-opacity:0.0; 
stroke:#A90000; stroke-width:60.000000; stroke-opacity:1; 
stroke-linecap:round; stroke-linejoin:round;">
<text x="39750.000000" y="30400.000000"
textLength="1012.362205" font-size="666.653543" lengthAdjust="spacingAndGlyphs"
text-anchor="middle" opacity="0">13</text>
<g class="stroked-text"><desc>13</desc>
<path d="M39654 30376
L39369 30376
" />
<path d="M39511 30376
L39511 29876
L39464 29947
L39416 29995
L39369 30019
" />
<path d="M39821 29876
L40130 29876
L39964 30066
L40035 30066
L40083 30090
L40107 30114
L40130 30161
L40130 30280
L40107 30328
L40083 30352
L40035 30376
L39892 30376
L39845 30352
L39821 30328
" />
</g></g>
<g style="fill:#840000; fill-opacity:0.0; 
stroke:#840000; stroke-width:60.000000; stroke-opacity:1; 
stroke-linecap:round; stroke-linejoin:round;">
<path d="M42500 30500
L44000 30500
" />
</g>
<g style="fill:#A90000; fill-opacity:0.0; 
stroke:#A90000; stroke-width:60.000000; stroke-opacity:1; 
stroke-linecap:round; stroke-linejoin:round;">
<text x="43250.000000" y="30400.000000"
textLength="1012.362205" font-size="666.653543" lengthAdjust="spacingAndGlyphs"
text-anchor="middle" opacity="0">14</text>
<g class="stroked-text"><desc>14</desc>
<path d="M43154 30376
L42869 30376
" />
<path d="M43011 30376
L43011 29876
L42964 29947
L42916 29995
L42869 30019
" />
<path d="M43583 30042
L43583 30376
" />
<path d="M43464 29852
L43345 30209
L43654 30209
" />
</g></g>
<g style="fill:#840000; fill-opacity:0.0; 
stroke:#840000; stroke-width:60.000000; stroke-opacity:1; 
stroke-linecap:round; stroke-linejoin:round;">
<path d="M40500 31500
L39000 31500
" />
</g>
<g style="fill:#A90000; fill-opacity:0.0; 
stroke:#A90000; stroke-width:60.000000; stroke-opacity:1; 
stroke-linecap:round; stroke-linejoin:round;">
<text x="39750.000000" y="31400.000000"
textLength="1012.362205" font-size="666.653543" lengthAdjust="spacingAndGlyphs"
text-anchor="middle" opacity="0">15</text>
<g class="stroked-text"><desc>15</desc>
<path d="M39654 31376
L39369 31376
" />
<path d="M39511 31376
L39511 30876
L39464 30947
L39416 30995
L39369 31019
" />
<path d="M40107 30876
L39869 30876
L39845 31114
L39869 31090
L39916 31066
L40035 31066
L40083 31090
L40107 31114
L40130 31161
L40130 31280
L40107 31328
L40083 31352
L40035 31376
L39916 31376
L39869 31352
L39845 31328
" />
</g></g>
<g style="fill:#840000; fill-opacity:0.0; 
stroke:#840000; stroke-width:60.000000; stroke-opacity:1; 
stroke-linecap:round; stroke-linejoin:round;">
<path d="M42500 31500
L44000 31500
" />
</g>
<g style="fill:#A90000; fill-opacity:0.0; 
stroke:#A90000; stroke-width:60.000000; stroke-opacity:1; 
stroke-linecap:round; stroke-linejoin:round;">
<text x="43250.000000" y="31400.000000"
textLength="1012.362205" font-size="666.653543" lengthAdjust="spacingAndGlyphs"
text-anchor="middle" opacity="0">16</text>
<g class="stroked-text"><desc>16</desc>
<path d="M43154 31376
L42869 31376
" />
<path d="M43011 31376
L43011 30876
L42964 30947
L42916 30995
L42869 31019
" />
<path d="M43583 30876
L43488 30876
L43440 30900
L43416 30923
L43369 30995
L43345 31090
L43345 31280
L43369 31328
L43392 31352
L43440 31376
L43535 31376
L43583 31352
L43607 31328
L43630 31280
L43630 31161
L43607 31114
L43583 31090
L43535 31066
L43440 31066
L43392 31090
L43369 31114
L43345 31161
" />
</g></g>
<g style="fill:#840000; fill-opacity:0.0; 
stroke:#840000; stroke-width:60.000000; stroke-opacity:1; 
stroke-linecap:round; stroke-linejoin:round;">
<path d="M40500 32500
L39000 32500
" />
</g>
<g style="fill:#A90000; fill-opacity:0.0; 
stroke:#A90000; stroke-width:60.000000; stroke-opacity:1; 
stroke-linecap:round; stroke-linejoin:round;">
<text x="39750.000000" y="32400.000000"
textLength="1012.362205" font-size="666.653543" lengthAdjust="spacingAndGlyphs"
text-anchor="middle" opacity="0">17</text>
<g class="stroked-text"><desc>17</desc>
<path d="M39654 32376
L39369 32376
" />
<path d="M39511 32376
L39511 31876
L39464 31947
L39416 31995
L39369 32019
" />
<path d="M39821 31876
L40154 31876
L39940 32376
" />
</g></g>
<g style="fill:#840000; fill-opacity:0.0; 
stroke:#840000; stroke-width:60.000000; stroke-opacity:1; 
stroke-linecap:round; stroke-linejoin:round;">
<path d="M42500 32500
L44000 32500
" />
</g>
<g style="fill:#A90000; fill-opacity:0.0; 
stroke:#A90000; stroke-width:60.000000; stroke-opacity:1; 
stroke-linecap:round; stroke-linejoin:round;">
<text x="43250.000000" y="32400.000000"
textLength="1012.362205" font-size="666.653543" lengthAdjust="spacingAndGlyphs"
text-anchor="middle" opacity="0">18</text>
<g class="stroked-text"><desc>18</desc>
<path d="M43154 32376
L42869 32376
" />
<path d="M43011 32376
L43011 31876
L42964 31947
L42916 31995
L42869 32019
" />
<path d="M43440 32090
L43392 32066
L43369 32042
L43345 31995
L43345 31971
L43369 31923
L43392 31900
L43440 31876
L43535 31876
L43583 31900
L43607 31923
L43630 31971
L43630 31995
L43607 32042
L43583 32066
L43535 32090
L43440 32090
L43392 32114
L43369 32138
L43345 32185
L43345 32280
L43369 32328
L43392 32352
L43440 32376
L43535 32376
L43583 32352
L43607 32328
L43630 32280
L43630 32185
L43607 32138
L43583 32114
L43535 32090
" />
</g></g>
<g style="fill:#840000; fill-opacity:0.0; 
stroke:#840000; stroke-width:60.000000; stroke-opacity:1; 
stroke-linecap:round; stroke-linejoin:round;">
<path d="M40500 33500
L39000 33500
" />
</g>
<g style="fill:#A90000; fill-opacity:0.0; 
stroke:#A90000; stroke-width:60.000000; stroke-opacity:1; 
stroke-linecap:round; stroke-linejoin:round;">
<text x="39750.000000" y="33400.000000"
textLength="1012.362205" font-size="666.653543" lengthAdjust="spacingAndGlyphs"
text-anchor="middle" opacity="0">19</text>
<g class="stroked-text"><desc>19</desc>
<path d="M39654 33376
L39369 33376
" />
<path d="M39511 33376
L39511 32876
L39464 32947
L39416 32995
L39369 33019
" />
<path d="M39892 33376
L39988 33376
L40035 33352
L40059 33328
L40107 33257
L40130 33161
L40130 32971
L40107 32923
L40083 32900
L40035 32876
L39940 32876
L39892 32900
L39869 32923
L39845 32971
L39845 33090
L39869 33138
L39892 33161
L39940 33185
L40035 33185
L40083 33161
L40107 33138
L40130 33090
" />
</g></g>
<g style="fill:#840000; fill-opacity:0.0; 
stroke:#840000; stroke-width:60.000000; stroke-opacity:1; 
stroke-linecap:round; stroke-linejoin:round;">
<path d="M42500 24500
L44000 24500
" />
</g>
<g style="fill:#A90000; fill-opacity:0.0; 
stroke:#A90000; stroke-width:60.000000; stroke-opacity:1; 
stroke-linecap:round; stroke-linejoin:round;">
<text x="43250.000000" y="24400.000000"
textLength="536.181102" font-size="666.653543" lengthAdjust="spacingAndGlyphs"
text-anchor="middle" opacity="0">2</text>
<g class="stroked-text"><desc>2</desc>
<path d="M43107 23923
L43130 23900
L43178 23876
L43297 23876
L43345 23900
L43369 23923
L43392 23971
L43392 24019
L43369 24090
L43083 24376
L43392 24376
" />
</g></g>
<g style="fill:#840000; fill-opacity:0.0; 
stroke:#840000; stroke-width:60.000000; stroke-opacity:1; 
stroke-linecap:round; stroke-linejoin:round;">
<path d="M42500 33500
L44000 33500
" />
</g>
<g style="fill:#A90000; fill-opacity:0.0; 
stroke:#A90000; stroke-width:60.000000; stroke-opacity:1; 
stroke-linecap:round; stroke-linejoin:round;">
<text x="43250.000000" y="33400.000000"
textLength="1012.362205" font-size="666.653543" lengthAdjust="spacingAndGlyphs"
text-anchor="middle" opacity="0">20</text>
<g class="stroked-text"><desc>20</desc>
<path d="M42869 32923
L42892 32900
L42940 32876
L43059 32876
L43107 32900
L43130 32923
L43154 32971
L43154 33019
L43130 33090
L42845 33376
L43154 33376
" />
<path d="M43464 32876
L43511 32876
L43559 32900
L43583 32923
L43607 32971
L43630 33066
L43630 33185
L43607 33280
L43583 33328
L43559 33352
L43511 33376
L43464 33376
L43416 33352
L43392 33328
L43369 33280
L43345 33185
L43345 33066
L43369 32971
L43392 32923
L43416 32900
L43464 32876
" />
</g></g>
<g style="fill:#840000; fill-opacity:0.0; 
stroke:#840000; stroke-width:60.000000; stroke-opacity:1; 
stroke-linecap:round; stroke-linejoin:round;">
<path d="M40500 34500
L39000 34500
" />
</g>
<g style="fill:#A90000; fill-opacity:0.0; 
stroke:#A90000; stroke-width:60.000000; stroke-opacity:1; 
stroke-linecap:round; stroke-linejoin:round;">
<text x="39750.000000" y="34400.000000"
textLength="1012.362205" font-size="666.653543" lengthAdjust="spacingAndGlyphs"
text-anchor="middle" opacity="0">21</text>
<g class="stroked-text"><desc>21</desc>
<path d="M39369 33923
L39392 33900
L39440 33876
L39559 33876
L39607 33900
L39630 33923
L39654 33971
L39654 34019
L39630 34090
L39345 34376
L39654 34376
" />
<path d="M40130 34376
L39845 34376
" />
<path d="M39988 34376
L39988 33876
L39940 33947
L39892 33995
L39845 34019
" />
</g></g>
<g style="fill:#840000; fill-opacity:0.0; 
stroke:#840000; stroke-width:60.000000; stroke-opacity:1; 
stroke-linecap:round; stroke-linejoin:round;">
<path d="M42500 34500
L44000 34500
" />
</g>
<g style="fill:#A90000; fill-opacity:0.0; 
stroke:#A90000; stroke-width:60.000000; stroke-opacity:1; 
stroke-linecap:round; stroke-linejoin:round;">
<text x="43250.000000" y="34400.000000"
textLength="1012.362205" font-size="666.653543" lengthAdjust="spacingAndGlyphs"
text-anchor="middle" opacity="0">22</text>
<g class="stroked-text"><desc>22</desc>
<path d="M42869 33923
L42892 33900
L42940 33876
L43059 33876
L43107 33900
L43130 33923
L43154 33971
L43154 34019
L43130 34090
L42845 34376
L43154 34376
" />
<path d="M43345 33923
L43369 33900
L43416 33876
L43535 33876
L43583 33900
L43607 33923
L43630 33971
L43630 34019
L43607 34090
L43321 34376
L43630 34376
" />
</g></g>
<g style="fill:#840000; fill-opacity:0.0; 
stroke:#840000; stroke-width:60.000000; stroke-opacity:1; 
stroke-linecap:round; stroke-linejoin:round;">
<path d="M40500 35500
L39000 35500
" />
</g>
<g style="fill:#A90000; fill-opacity:0.0; 
stroke:#A90000; stroke-width:60.000000; stroke-opacity:1; 
stroke-linecap:round; stroke-linejoin:round;">
<text x="39750.000000" y="35400.000000"
textLength="1012.362205" font-size="666.653543" lengthAdjust="spacingAndGlyphs"
text-anchor="middle" opacity="0">23</text>
<g class="stroked-text"><desc>23</desc>
<path d="M39369 34923
L39392 34900
L39440 34876
L39559 34876
L39607 34900
L39630 34923
L39654 34971
L39654 35019
L39630 35090
L39345 35376
L39654 35376
" />
<path d="M39821 34876
L40130 34876
L39964 35066
L40035 35066
L40083 35090
L40107 35114
L40130 35161
L40130 35280
L40107 35328
L40083 35352
L40035 35376
L39892 35376
L39845 35352
L39821 35328
" />
</g></g>
<g style="fill:#840000; fill-opacity:0.0; 
stroke:#840000; stroke-width:60.000000; stroke-opacity:1; 
stroke-linecap:round; stroke-linejoin:round;">
<path d="M42500 35500
L44000 35500
" />
</g>
<g style="fill:#A90000; fill-opacity:0.0; 
stroke:#A90000; stroke-width:60.000000; stroke-opacity:1; 
stroke-linecap:round; stroke-linejoin:round;">
<text x="43250.000000" y="35400.000000"
textLength="1012.362205" font-size="666.653543" lengthAdjust="spacingAndGlyphs"
text-anchor="middle" opacity="0">24</text>
<g class="stroked-text"><desc>24</desc>
<path d="M42869 34923
L42892 34900
L42940 34876
L43059 34876
L43107 34900
L43130 34923
L43154 34971
L43154 35019
L43130 35090
L42845 35376
L43154 35376
" />
<path d="M43583 35042
L43583 35376
" />
<path d="M43464 34852
L43345 35209
L43654 35209
" />
</g></g>
<g style="fill:#840000; fill-opacity:0.0; 
stroke:#840000; stroke-width:60.000000; stroke-opacity:1; 
stroke-linecap:round; stroke-linejoin:round;">
<path d="M40500 36500
L39000 36500
" />
</g>
<g style="fill:#A90000; fill-opacity:0.0; 
stroke:#A90000; stroke-width:60.000000; stroke-opacity:1; 
stroke-linecap:round; stroke-linejoin:round;">
<text x="39750.000000" y="36400.000000"
textLength="1012.362205" font-size="666.653543" lengthAdjust="spacingAndGlyphs"
text-anchor="middle" opacity="0">25</text>
<g class="stroked-text"><desc>25</desc>
<path d="M39369 35923
L39392 35900
L39440 35876
L39559 35876
L39607 35900
L39630 35923
L39654 35971
L39654 36019
L39630 36090
L39345 36376
L39654 36376
" />
<path d="M40107 35876
L39869 35876
L39845 36114
L39869 36090
L39916 36066
L40035 36066
L40083 36090
L40107 36114
L40130 36161
L40130 36280
L40107 36328
L40083 36352
L40035 36376
L39916 36376
L39869 36352
L39845 36328
" />
</g></g>
<g style="fill:#840000; fill-opacity:0.0; 
stroke:#840000; stroke-width:60.000000; stroke-opacity:1; 
stroke-linecap:round; stroke-linejoin:round;">
<path d="M42500 36500
L44000 36500
" />
</g>
<g style="fill:#A90000; fill-opacity:0.0; 
stroke:#A90000; stroke-width:60.000000; stroke-opacity:1; 
stroke-linecap:round; stroke-linejoin:round;">
<text x="43250.000000" y="36400.000000"
textLength="1012.362205" font-size="666.653543" lengthAdjust="spacingAndGlyphs"
text-anchor="middle" opacity="0">26</text>
<g class="stroked-text"><desc>26</desc>
<path d="M42869 35923
L42892 35900
L42940 35876
L43059 35876
L43107 35900
L43130 35923
L43154 35971
L43154 36019
L43130 36090
L42845 36376
L43154 36376
" />
<path d="M43583 35876
L43488 35876
L43440 35900
L43416 35923
L43369 35995
L43345 36090
L43345 36280
L43369 36328
L43392 36352
L43440 36376
L43535 36376
L43583 36352
L43607 36328
L43630 36280
L43630 36161
L43607 36114
L43583 36090
L43535 36066
L43440 36066
L43392 36090
L43369 36114
L43345 36161
" />
</g></g>
<g style="fill:#840000; fill-opacity:0.0; 
stroke:#840000; stroke-width:60.000000; stroke-opacity:1; 
stroke-linecap:round; stroke-linejoin:round;">
<path d="M40500 37500
L39000 37500
" />
</g>
<g style="fill:#A90000; fill-opacity:0.0; 
stroke:#A90000; stroke-width:60.000000; stroke-opacity:1; 
stroke-linecap:round; stroke-linejoin:round;">
<text x="39750.000000" y="37400.000000"
textLength="1012.362205" font-size="666.653543" lengthAdjust="spacingAndGlyphs"
text-anchor="middle" opacity="0">27</text>
<g class="stroked-text"><desc>27</desc>
<path d="M39369 36923
L39392 36900
L39440 36876
L39559 36876
L39607 36900
L39630 36923
L39654 36971
L39654 37019
L39630 37090
L39345 37376
L39654 37376
" />
<path d="M39821 36876
L40154 36876
L39940 37376
" />
</g></g>
<g style="fill:#840000; fill-opacity:0.0; 
stroke:#840000; stroke-width:60.000000; stroke-opacity:1; 
stroke-linecap:round; stroke-linejoin:round;">
<path d="M42500 37500
L44000 37500
" />
</g>
<g style="fill:#A90000; fill-opacity:0.0; 
stroke:#A90000; stroke-width:60.000000; stroke-opacity:1; 
stroke-linecap:round; stroke-linejoin:round;">
<text x="43250.000000" y="37400.000000"
textLength="1012.362205" font-size="666.653543" lengthAdjust="spacingAndGlyphs"
text-anchor="middle" opacity="0">28</text>
<g class="stroked-text"><desc>28</desc>
<path d="M42869 36923
L42892 36900
L42940 36876
L43059 36876
L43107 36900
L43130 36923
L43154 36971
L43154 37019
L43130 37090
L42845 37376
L43154 37376
" />
<path d="M43440 37090
L43392 37066
L43369 37042
L43345 36995
L43345 36971
L43369 36923
L43392 36900
L43440 36876
L43535 36876
L43583 36900
L43607 36923
L43630 36971
L43630 36995
L43607 37042
L43583 37066
L43535 37090
L43440 37090
L43392 37114
L43369 37138
L43345 37185
L43345 37280
L43369 37328
L43392 37352
L43440 37376
L43535 37376
L43583 37352
L43607 37328
L43630 37280
L43630 37185
L43607 37138
L43583 37114
L43535 37090
" />
</g></g>
<g style="fill:#840000; fill-opacity:0.0; 
stroke:#840000; stroke-width:60.000000; stroke-opacity:1; 
stroke-linecap:round; stroke-linejoin:round;">
<path d="M40500 38500
L39000 38500
" />
</g>
<g style="fill:#A90000; fill-opacity:0.0; 
stroke:#A90000; stroke-width:60.000000; stroke-opacity:1; 
stroke-linecap:round; stroke-linejoin:round;">
<text x="39750.000000" y="38400.000000"
textLength="1012.362205" font-size="666.653543" lengthAdjust="spacingAndGlyphs"
text-anchor="middle" opacity="0">29</text>
<g class="stroked-text"><desc>29</desc>
<path d="M39369 37923
L39392 37900
L39440 37876
L39559 37876
L39607 37900
L39630 37923
L39654 37971
L39654 38019
L39630 38090
L39345 38376
L39654 38376
" />
<path d="M39892 38376
L39988 38376
L40035 38352
L40059 38328
L40107 38257
L40130 38161
L40130 37971
L40107 37923
L40083 37900
L40035 37876
L39940 37876
L39892 37900
L39869 37923
L39845 37971
L39845 38090
L39869 38138
L39892 38161
L39940 38185
L40035 38185
L40083 38161
L40107 38138
L40130 38090
" />
</g></g>
<g style="fill:#840000; fill-opacity:0.0; 
stroke:#840000; stroke-width:60.000000; stroke-opacity:1; 
stroke-linecap:round; stroke-linejoin:round;">
<path d="M40500 25500
L39000 25500
" />
</g>
<g style="fill:#A90000; fill-opacity:0.0; 
stroke:#A90000; stroke-width:60.000000; stroke-opacity:1; 
stroke-linecap:round; stroke-linejoin:round;">
<text x="39750.000000" y="25400.000000"
textLength="536.181102" font-size="666.653543" lengthAdjust="spacingAndGlyphs"
text-anchor="middle" opacity="0">3</text>
<g class="stroked-text"><desc>3</desc>
<path d="M39583 24876
L39892 24876
L39726 25066
L39797 25066
L39845 25090
L39869 25114
L39892 25161
L39892 25280
L39869 25328
L39845 25352
L39797 25376
L39654 25376
L39607 25352
L39583 25328
" />
</g></g>
<g style="fill:#840000; fill-opacity:0.0; 
stroke:#840000; stroke-width:60.000000; stroke-opacity:1; 
stroke-linecap:round; stroke-linejoin:round;">
<path d="M42500 38500
L44000 38500
" />
</g>
<g style="fill:#A90000; fill-opacity:0.0; 
stroke:#A90000; stroke-width:60.000000; stroke-opacity:1; 
stroke-linecap:round; stroke-linejoin:round;">
<text x="43250.000000" y="38400.000000"
textLength="1012.362205" font-size="666.653543" lengthAdjust="spacingAndGlyphs"
text-anchor="middle" opacity="0">30</text>
<g class="stroked-text"><desc>30</desc>
<path d="M42845 37876
L43154 37876
L42988 38066
L43059 38066
L43107 38090
L43130 38114
L43154 38161
L43154 38280
L43130 38328
L43107 38352
L43059 38376
L42916 38376
L42869 38352
L42845 38328
" />
<path d="M43464 37876
L43511 37876
L43559 37900
L43583 37923
L43607 37971
L43630 38066
L43630 38185
L43607 38280
L43583 38328
L43559 38352
L43511 38376
L43464 38376
L43416 38352
L43392 38328
L43369 38280
L43345 38185
L43345 38066
L43369 37971
L43392 37923
L43416 37900
L43464 37876
" />
</g></g>
<g style="fill:#840000; fill-opacity:0.0; 
stroke:#840000; stroke-width:60.000000; stroke-opacity:1; 
stroke-linecap:round; stroke-linejoin:round;">
<path d="M40500 39500
L39000 39500
" />
</g>
<g style="fill:#A90000; fill-opacity:0.0; 
stroke:#A90000; stroke-width:60.000000; stroke-opacity:1; 
stroke-linecap:round; stroke-linejoin:round;">
<text x="39750.000000" y="39400.000000"
textLength="1012.362205" font-size="666.653543" lengthAdjust="spacingAndGlyphs"
text-anchor="middle" opacity="0">31</text>
<g class="stroked-text"><desc>31</desc>
<path d="M39345 38876
L39654 38876
L39488 39066
L39559 39066
L39607 39090
L39630 39114
L39654 39161
L39654 39280
L39630 39328
L39607 39352
L39559 39376
L39416 39376
L39369 39352
L39345 39328
" />
<path d="M40130 39376
L39845 39376
" />
<path d="M39988 39376
L39988 38876
L39940 38947
L39892 38995
L39845 39019
" />
</g></g>
<g style="fill:#840000; fill-opacity:0.0; 
stroke:#840000; stroke-width:60.000000; stroke-opacity:1; 
stroke-linecap:round; stroke-linejoin:round;">
<path d="M42500 39500
L44000 39500
" />
</g>
<g style="fill:#A90000; fill-opacity:0.0; 
stroke:#A90000; stroke-width:60.000000; stroke-opacity:1; 
stroke-linecap:round; stroke-linejoin:round;">
<text x="43250.000000" y="39400.000000"
textLength="1012.362205" font-size="666.653543" lengthAdjust="spacingAndGlyphs"
text-anchor="middle" opacity="0">32</text>
<g class="stroked-text"><desc>32</desc>
<path d="M42845 38876
L43154 38876
L42988 39066
L43059 39066
L43107 39090
L43130 39114
L43154 39161
L43154 39280
L43130 39328
L43107 39352
L43059 39376
L42916 39376
L42869 39352
L42845 39328
" />
<path d="M43345 38923
L43369 38900
L43416 38876
L43535 38876
L43583 38900
L43607 38923
L43630 38971
L43630 39019
L43607 39090
L43321 39376
L43630 39376
" />
</g></g>
<g style="fill:#840000; fill-opacity:0.0; 
stroke:#840000; stroke-width:60.000000; stroke-opacity:1; 
stroke-linecap:round; stroke-linejoin:round;">
<path d="M40500 40500
L39000 40500
" />
</g>
<g style="fill:#A90000; fill-opacity:0.0; 
stroke:#A90000; stroke-width:60.000000; stroke-opacity:1; 
stroke-linecap:round; stroke-linejoin:round;">
<text x="39750.000000" y="40400.000000"
textLength="1012.362205" font-size="666.653543" lengthAdjust="spacingAndGlyphs"
text-anchor="middle" opacity="0">33</text>
<g class="stroked-text"><desc>33</desc>
<path d="M39345 39876
L39654 39876
L39488 40066
L39559 40066
L39607 40090
L39630 40114
L39654 40161
L39654 40280
L39630 40328
L39607 40352
L39559 40376
L39416 40376
L39369 40352
L39345 40328
" />
<path d="M39821 39876
L40130 39876
L39964 40066
L40035 40066
L40083 40090
L40107 40114
L40130 40161
L40130 40280
L40107 40328
L40083 40352
L40035 40376
L39892 40376
L39845 40352
L39821 40328
" />
</g></g>
<g style="fill:#840000; fill-opacity:0.0; 
stroke:#840000; stroke-width:60.000000; stroke-opacity:1; 
stroke-linecap:round; stroke-linejoin:round;">
<path d="M42500 40500
L44000 40500
" />
</g>
<g style="fill:#A90000; fill-opacity:0.0; 
stroke:#A90000; stroke-width:60.000000; stroke-opacity:1; 
stroke-linecap:round; stroke-linejoin:round;">
<text x="43250.000000" y="40400.000000"
textLength="1012.362205" font-size="666.653543" lengthAdjust="spacingAndGlyphs"
text-anchor="middle" opacity="0">34</text>
<g class="stroked-text"><desc>34</desc>
<path d="M42845 39876
L43154 39876
L42988 40066
L43059 40066
L43107 40090
L43130 40114
L43154 40161
L43154 40280
L43130 40328
L43107 40352
L43059 40376
L42916 40376
L42869 40352
L42845 40328
" />
<path d="M43583 40042
L43583 40376
" />
<path d="M43464 39852
L43345 40209
L43654 40209
" />
</g></g>
<g style="fill:#840000; fill-opacity:0.0; 
stroke:#840000; stroke-width:60.000000; stroke-opacity:1; 
stroke-linecap:round; stroke-linejoin:round;">
<path d="M40500 41500
L39000 41500
" />
</g>
<g style="fill:#A90000; fill-opacity:0.0; 
stroke:#A90000; stroke-width:60.000000; stroke-opacity:1; 
stroke-linecap:round; stroke-linejoin:round;">
<text x="39750.000000" y="41400.000000"
textLength="1012.362205" font-size="666.653543" lengthAdjust="spacingAndGlyphs"
text-anchor="middle" opacity="0">35</text>
<g class="stroked-text"><desc>35</desc>
<path d="M39345 40876
L39654 40876
L39488 41066
L39559 41066
L39607 41090
L39630 41114
L39654 41161
L39654 41280
L39630 41328
L39607 41352
L39559 41376
L39416 41376
L39369 41352
L39345 41328
" />
<path d="M40107 40876
L39869 40876
L39845 41114
L39869 41090
L39916 41066
L40035 41066
L40083 41090
L40107 41114
L40130 41161
L40130 41280
L40107 41328
L40083 41352
L40035 41376
L39916 41376
L39869 41352
L39845 41328
" />
</g></g>
<g style="fill:#840000; fill-opacity:0.0; 
stroke:#840000; stroke-width:60.000000; stroke-opacity:1; 
stroke-linecap:round; stroke-linejoin:round;">
<path d="M42500 41500
L44000 41500
" />
</g>
<g style="fill:#A90000; fill-opacity:0.0; 
stroke:#A90000; stroke-width:60.000000; stroke-opacity:1; 
stroke-linecap:round; stroke-linejoin:round;">
<text x="43250.000000" y="41400.000000"
textLength="1012.362205" font-size="666.653543" lengthAdjust="spacingAndGlyphs"
text-anchor="middle" opacity="0">36</text>
<g class="stroked-text"><desc>36</desc>
<path d="M42845 40876
L43154 40876
L42988 41066
L43059 41066
L43107 41090
L43130 41114
L43154 41161
L43154 41280
L43130 41328
L43107 41352
L43059 41376
L42916 41376
L42869 41352
L42845 41328
" />
<path d="M43583 40876
L43488 40876
L43440 40900
L43416 40923
L43369 40995
L43345 41090
L43345 41280
L43369 41328
L43392 41352
L43440 41376
L43535 41376
L43583 41352
L43607 41328
L43630 41280
L43630 41161
L43607 41114
L43583 41090
L43535 41066
L43440 41066
L43392 41090
L43369 41114
L43345 41161
" />
</g></g>
<g style="fill:#840000; fill-opacity:0.0; 
stroke:#840000; stroke-width:60.000000; stroke-opacity:1; 
stroke-linecap:round; stroke-linejoin:round;">
<path d="M40500 42500
L39000 42500
" />
</g>
<g style="fill:#A90000; fill-opacity:0.0; 
stroke:#A90000; stroke-width:60.000000; stroke-opacity:1; 
stroke-linecap:round; stroke-linejoin:round;">
<text x="39750.000000" y="42400.000000"
textLength="1012.362205" font-size="666.653543" lengthAdjust="spacingAndGlyphs"
text-anchor="middle" opacity="0">37</text>
<g class="stroked-text"><desc>37</desc>
<path d="M39345 41876
L39654 41876
L39488 42066
L39559 42066
L39607 42090
L39630 42114
L39654 42161
L39654 42280
L39630 42328
L39607 42352
L39559 42376
L39416 42376
L39369 42352
L39345 42328
" />
<path d="M39821 41876
L40154 41876
L39940 42376
" />
</g></g>
<g style="fill:#840000; fill-opacity:0.0; 
stroke:#840000; stroke-width:60.000000; stroke-opacity:1; 
stroke-linecap:round; stroke-linejoin:round;">
<path d="M42500 42500
L44000 42500
" />
</g>
<g style="fill:#A90000; fill-opacity:0.0; 
stroke:#A90000; stroke-width:60.000000; stroke-opacity:1; 
stroke-linecap:round; stroke-linejoin:round;">
<text x="43250.000000" y="42400.000000"
textLength="1012.362205" font-size="666.653543" lengthAdjust="spacingAndGlyphs"
text-anchor="middle" opacity="0">38</text>
<g class="stroked-text"><desc>38</desc>
<path d="M42845 41876
L43154 41876
L42988 42066
L43059 42066
L43107 42090
L43130 42114
L43154 42161
L43154 42280
L43130 42328
L43107 42352
L43059 42376
L42916 42376
L42869 42352
L42845 42328
" />
<path d="M43440 42090
L43392 42066
L43369 42042
L43345 41995
L43345 41971
L43369 41923
L43392 41900
L43440 41876
L43535 41876
L43583 41900
L43607 41923
L43630 41971
L43630 41995
L43607 42042
L43583 42066
L43535 42090
L43440 42090
L43392 42114
L43369 42138
L43345 42185
L43345 42280
L43369 42328
L43392 42352
L43440 42376
L43535 42376
L43583 42352
L43607 42328
L43630 42280
L43630 42185
L43607 42138
L43583 42114
L43535 42090
" />
</g></g>
<g style="fill:#840000; fill-opacity:0.0; 
stroke:#840000; stroke-width:60.000000; stroke-opacity:1; 
stroke-linecap:round; stroke-linejoin:round;">
<path d="M40500 43500
L39000 43500
" />
</g>
<g style="fill:#A90000; fill-opacity:0.0; 
stroke:#A90000; stroke-width:60.000000; stroke-opacity:1; 
stroke-linecap:round; stroke-linejoin:round;">
<text x="39750.000000" y="43400.000000"
textLength="1012.362205" font-size="666.653543" lengthAdjust="spacingAndGlyphs"
text-anchor="middle" opacity="0">39</text>
<g class="stroked-text"><desc>39</desc>
<path d="M39345 42876
L39654 42876
L39488 43066
L39559 43066
L39607 43090
L39630 43114
L39654 43161
L39654 43280
L39630 43328
L39607 43352
L39559 43376
L39416 43376
L39369 43352
L39345 43328
" />
<path d="M39892 43376
L39988 43376
L40035 43352
L40059 43328
L40107 43257
L40130 43161
L40130 42971
L40107 42923
L40083 42900
L40035 42876
L39940 42876
L39892 42900
L39869 42923
L39845 42971
L39845 43090
L39869 43138
L39892 43161
L39940 43185
L40035 43185
L40083 43161
L40107 43138
L40130 43090
" />
</g></g>
<g style="fill:#840000; fill-opacity:0.0; 
stroke:#840000; stroke-width:60.000000; stroke-opacity:1; 
stroke-linecap:round; stroke-linejoin:round;">
<path d="M42500 25500
L44000 25500
" />
</g>
<g style="fill:#A90000; fill-opacity:0.0; 
stroke:#A90000; stroke-width:60.000000; stroke-opacity:1; 
stroke-linecap:round; stroke-linejoin:round;">
<text x="43250.000000" y="25400.000000"
textLength="536.181102" font-size="666.653543" lengthAdjust="spacingAndGlyphs"
text-anchor="middle" opacity="0">4</text>
<g class="stroked-text"><desc>4</desc>
<path d="M43345 25042
L43345 25376
" />
<path d="M43226 24852
L43107 25209
L43416 25209
" />
</g></g>
<g style="fill:#840000; fill-opacity:0.0; 
stroke:#840000; stroke-width:60.000000; stroke-opacity:1; 
stroke-linecap:round; stroke-linejoin:round;">
<path d="M42500 43500
L44000 43500
" />
</g>
<g style="fill:#A90000; fill-opacity:0.0; 
stroke:#A90000; stroke-width:60.000000; stroke-opacity:1; 
stroke-linecap:round; stroke-linejoin:round;">
<text x="43250.000000" y="43400.000000"
textLength="1012.362205" font-size="666.653543" lengthAdjust="spacingAndGlyphs"
text-anchor="middle" opacity="0">40</text>
<g class="stroked-text"><desc>40</desc>
<path d="M43107 43042
L43107 43376
" />
<path d="M42988 42852
L42869 43209
L43178 43209
" />
<path d="M43464 42876
L43511 42876
L43559 42900
L43583 42923
L43607 42971
L43630 43066
L43630 43185
L43607 43280
L43583 43328
L43559 43352
L43511 43376
L43464 43376
L43416 43352
L43392 43328
L43369 43280
L43345 43185
L43345 43066
L43369 42971
L43392 42923
L43416 42900
L43464 42876
" />
</g></g>
<g style="fill:#840000; fill-opacity:0.0; 
stroke:#840000; stroke-width:60.000000; stroke-opacity:1; 
stroke-linecap:round; stroke-linejoin:round;">
<path d="M40500 26500
L39000 26500
" />
</g>
<g style="fill:#A90000; fill-opacity:0.0; 
stroke:#A90000; stroke-width:60.000000; stroke-opacity:1; 
stroke-linecap:round; stroke-linejoin:round;">
<text x="39750.000000" y="26400.000000"
textLength="536.181102" font-size="666.653543" lengthAdjust="spacingAndGlyphs"
text-anchor="middle" opacity="0">5</text>
<g class="stroked-text"><desc>5</desc>
<path d="M39869 25876
L39630 25876
L39607 26114
L39630 26090
L39678 26066
L39797 26066
L39845 26090
L39869 26114
L39892 26161
L39892 26280
L39869 26328
L39845 26352
L39797 26376
L39678 26376
L39630 26352
L39607 26328
" />
</g></g>
<g style="fill:#840000; fill-opacity:0.0; 
stroke:#840000; stroke-width:60.000000; stroke-opacity:1; 
stroke-linecap:round; stroke-linejoin:round;">
<path d="M42500 26500
L44000 26500
" />
</g>
<g style="fill:#A90000; fill-opacity:0.0; 
stroke:#A90000; stroke-width:60.000000; stroke-opacity:1; 
stroke-linecap:round; stroke-linejoin:round;">
<text x="43250.000000" y="26400.000000"
textLength="536.181102" font-size="666.653543" lengthAdjust="spacingAndGlyphs"
text-anchor="middle" opacity="0">6</text>
<g class="stroked-text"><desc>6</desc>
<path d="M43345 25876
L43250 25876
L43202 25900
L43178 25923
L43130 25995
L43107 26090
L43107 26280
L43130 26328
L43154 26352
L43202 26376
L43297 26376
L43345 26352
L43369 26328
L43392 26280
L43392 26161
L43369 26114
L43345 26090
L43297 26066
L43202 26066
L43154 26090
L43130 26114
L43107 26161
" />
</g></g>
<g style="fill:#840000; fill-opacity:0.0; 
stroke:#840000; stroke-width:60.000000; stroke-opacity:1; 
stroke-linecap:round; stroke-linejoin:round;">
<path d="M40500 27500
L39000 27500
" />
</g>
<g style="fill:#A90000; fill-opacity:0.0; 
stroke:#A90000; stroke-width:60.000000; stroke-opacity:1; 
stroke-linecap:round; stroke-linejoin:round;">
<text x="39750.000000" y="27400.000000"
textLength="536.181102" font-size="666.653543" lengthAdjust="spacingAndGlyphs"
text-anchor="middle" opacity="0">7</text>
<g class="stroked-text"><desc>7</desc>
<path d="M39583 26876
L39916 26876
L39702 27376
" />
</g></g>
<g style="fill:#840000; fill-opacity:0.0; 
stroke:#840000; stroke-width:60.000000; stroke-opacity:1; 
stroke-linecap:round; stroke-linejoin:round;">
<path d="M42500 27500
L44000 27500
" />
</g>
<g style="fill:#A90000; fill-opacity:0.0; 
stroke:#A90000; stroke-width:60.000000; stroke-opacity:1; 
stroke-linecap:round; stroke-linejoin:round;">
<text x="43250.000000" y="27400.000000"
textLength="536.181102" font-size="666.653543" lengthAdjust="spacingAndGlyphs"
text-anchor="middle" opacity="0">8</text>
<g class="stroked-text"><desc>8</desc>
<path d="M43202 27090
L43154 27066
L43130 27042
L43107 26995
L43107 26971
L43130 26923
L43154 26900
L43202 26876
L43297 26876
L43345 26900
L43369 26923
L43392 26971
L43392 26995
L43369 27042
L43345 27066
L43297 27090
L43202 27090
L43154 27114
L43130 27138
L43107 27185
L43107 27280
L43130 27328
L43154 27352
L43202 27376
L43297 27376
L43345 27352
L43369 27328
L43392 27280
L43392 27185
L43369 27138
L43345 27114
L43297 27090
" />
</g></g>
<g style="fill:#840000; fill-opacity:0.0; 
stroke:#840000; stroke-width:60.000000; stroke-opacity:1; 
stroke-linecap:round; stroke-linejoin:round;">
<path d="M40500 28500
L39000 28500
" />
</g>
<g style="fill:#A90000; fill-opacity:0.0; 
stroke:#A90000; stroke-width:60.000000; stroke-opacity:1; 
stroke-linecap:round; stroke-linejoin:round;">
<text x="39750.000000" y="28400.000000"
textLength="536.181102" font-size="666.653543" lengthAdjust="spacingAndGlyphs"
text-anchor="middle" opacity="0">9</text>
<g class="stroked-text"><desc>9</desc>
<path d="M39654 28376
L39750 28376
L39797 28352
L39821 28328
L39869 28257
L39892 28161
L39892 27971
L39869 27923
L39845 27900
L39797 27876
L39702 27876
L39654 27900
L39630 27923
L39607 27971
L39607 28090
L39630 28138
L39654 28161
L39702 28185
L39797 28185
L39845 28161
L39869 28138
L39892 28090
" />
</g></g>
<g style="fill:#006464; fill-opacity:0.0; 
stroke:#006464; stroke-width:60.000000; stroke-opacity:1; 
stroke-linecap:round; stroke-linejoin:round;">
<text x="41500.000000" y="22249.960630"
textLength="1393.346457" font-size="666.653543" lengthAdjust="spacingAndGlyphs"
text-anchor="middle" opacity="0">J33</text>
<g class="stroked-text"><desc>J33</desc>
<path d="M41095 21726
L41095 22083
L41071 22154
L41023 22202
L40952 22226
L40904 22226
" />
<path d="M41285 21726
L41595 21726
L41428 21916
L41500 21916
L41547 21940
L41571 21964
L41595 22011
L41595 22130
L41571 22178
L41547 22202
L41500 22226
L41357 22226
L41309 22202
L41285 22178
" />
<path d="M41761 21726
L42071 21726
L41904 21916
L41976 21916
L42023 21940
L42047 21964
L42071 22011
L42071 22130
L42047 22178
L42023 22202
L41976 22226
L41833 22226
L41785 22202
L41761 22178
" />
</g><text x="41500.000000" y="23249.960630"
textLength="3060.000000" font-size="666.653543" lengthAdjust="spacingAndGlyphs"
text-anchor="middle" opacity="0">2540-5</text>
<g class="stroked-text"><desc>2540-5</desc>
<path d="M40095 22773
L40119 22749
L40166 22726
L40285 22726
L40333 22749
L40357 22773
L40380 22821
L40380 22868
L40357 22940
L40071 23226
L40380 23226
" />
<path d="M40833 22726
L40595 22726
L40571 22964
L40595 22940
L40642 22916
L40761 22916
L40809 22940
L40833 22964
L40857 23011
L40857 23130
L40833 23178
L40809 23202
L40761 23226
L40642 23226
L40595 23202
L40571 23178
" />
<path d="M41285 22892
L41285 23226
" />
<path d="M41166 22702
L41047 23059
L41357 23059
" />
<path d="M41642 22726
L41690 22726
L41738 22749
L41761 22773
L41785 22821
L41809 22916
L41809 23035
L41785 23130
L41761 23178
L41738 23202
L41690 23226
L41642 23226
L41595 23202
L41571 23178
L41547 23130
L41523 23035
L41523 22916
L41547 22821
L41571 22773
L41595 22749
L41642 22726
" />
<path d="M42023 23035
L42404 23035
" />
<path d="M42880 22726
L42642 22726
L42619 22964
L42642 22940
L42690 22916
L42809 22916
L42857 22940
L42880 22964
L42904 23011
L42904 23130
L42880 23178
L42857 23202
L42809 23226
L42690 23226
L42642 23202
L42619 23178
" />
</g></g>
</g>
<g style="fill:#006464; fill-opacity:0.0; 
stroke:#006464; stroke-width:60.000000; stroke-opacity:1; 
stroke-linecap:round; stroke-linejoin:round;">
<g >
</g>
<g style="fill:#840000; fill-opacity:0.0; 
stroke:#840000; stroke-width:60.000000; stroke-opacity:1; 
stroke-linecap:round; stroke-linejoin:round;">
<path style="fill:#840000; fill-opacity:0.0; 
stroke:#840000; stroke-width:60.000000; stroke-opacity:1; 
stroke-linecap:round; stroke-linejoin:round;fill:none"
d="M 44700.000000,24000.000000
45000.000000,23500.000000
" /> 
<path style="fill:#840000; fill-opacity:0.0; 
stroke:#840000; stroke-width:60.000000; stroke-opacity:1; 
stroke-linecap:round; stroke-linejoin:round;fill:none"
d="M 45000.000000,24500.000000
45000.000000,23500.000000
" /> 
<path style="fill:#840000; fill-opacity:0.0; 
stroke:#840000; stroke-width:60.000000; stroke-opacity:1; 
stroke-linecap:round; stroke-linejoin:round;fill:none"
d="M 45000.000000,23500.000000
45300.000000,24000.000000
" /> 
</g>
<g style="fill:#006464; fill-opacity:0.0; 
stroke:#006464; stroke-width:60.000000; stroke-opacity:1; 
stroke-linecap:round; stroke-linejoin:round;">
<text x="45000.000000" y="22749.960630"
textLength="1583.818898" font-size="666.653543" lengthAdjust="spacingAndGlyphs"
text-anchor="middle" opacity="0">+5V</text>
<g class="stroked-text"><desc>+5V</desc>
<path d="M44357 22535
L44738 22535
" />
<path d="M44547 22726
L44547 22345
" />
<path d="M45214 22226
L44976 22226
L44952 22464
L44976 22440
L45023 22416
L45142 22416
L45190 22440
L45214 22464
L45238 22511
L45238 22630
L45214 22678
L45190 22702
L45142 22726
L45023 22726
L44976 22702
L44952 22678
" />
<path d="M45380 22226
L45547 22726
L45714 22226
" />
</g></g>
</g>
<g style="fill:#006464; fill-opacity:0.0; 
stroke:#006464; stroke-width:60.000000; stroke-opacity:1; 
stroke-linecap:round; stroke-linejoin:round;">
<g >
</g>
<g style="fill:#840000; fill-opacity:0.0; 
stroke:#840000; stroke-width:60.000000; stroke-opacity:1; 
stroke-linecap:round; stroke-linejoin:round;">
</g>
<g style="fill:#840000; fill-opacity:0.0; 
stroke:#840000; stroke-width:100.000000; stroke-opacity:1; 
stroke-linecap:round; stroke-linejoin:round;">
<path style="fill:#840000; fill-opacity:0.0; 
stroke:#840000; stroke-width:100.000000; stroke-opacity:1; 
stroke-linecap:round; stroke-linejoin:round;fill:none"
d="M 29250.000000,39000.000000
29250.000000,38000.000000
" /> 
</g>
<g style="fill:#840000; fill-opacity:0.0; 
stroke:#840000; stroke-width:60.000000; stroke-opacity:1; 
stroke-linecap:round; stroke-linejoin:round;">
<path style="fill:#840000; fill-opacity:0.0; 
stroke:#840000; stroke-width:60.000000; stroke-opacity:1; 
stroke-linecap:round; stroke-linejoin:round;fill:none"
d="M 29250.000000,38500.000000
30250.000000,38500.000000
" /> 
</g>
<g style="fill:#840000; fill-opacity:0.0; 
stroke:#840000; stroke-width:100.000000; stroke-opacity:1; 
stroke-linecap:round; stroke-linejoin:round;">
<path style="fill:#840000; fill-opacity:0.0; 
stroke:#840000; stroke-width:100.000000; stroke-opacity:1; 
stroke-linecap:round; stroke-linejoin:round;fill:none"
d="M 30250.000000,39000.000000
30250.000000,38000.000000
29250.000000,38500.000000
Z" /> 
</g>
<g style="fill:#840000; fill-opacity:0.0; 
stroke:#840000; stroke-width:60.000000; stroke-opacity:1; 
stroke-linecap:round; stroke-linejoin:round;">
<path style="fill:#840000; fill-opacity:0.0; 
stroke:#840000; stroke-width:60.000000; stroke-opacity:1; 
stroke-linecap:round; stroke-linejoin:round;fill:none"
d="M 28550.000000,38800.000000
27950.000000,39400.000000
28250.000000,39400.000000
27950.000000,39400.000000
27950.000000,39100.000000
" /> 
<path style="fill:#840000; fill-opacity:0.0; 
stroke:#840000; stroke-width:60.000000; stroke-opacity:1; 
stroke-linecap:round; stroke-linejoin:round;fill:none"
d="M 29050.000000,38800.000000
28450.000000,39400.000000
28750.000000,39400.000000
28450.000000,39400.000000
28450.000000,39100.000000
" /> 
<path d="M29250 38500
L28250 38500
" />
<path d="M30250 38500
L31250 38500
" />
</g>
<g style="fill:#006464; fill-opacity:0.0; 
stroke:#006464; stroke-width:60.000000; stroke-opacity:1; 
stroke-linecap:round; stroke-linejoin:round;">
<text x="29750.000000" y="37749.960630"
textLength="1940.944882" font-size="666.653543" lengthAdjust="spacingAndGlyphs"
text-anchor="middle" opacity="0">HBT1</text>
<g class="stroked-text"><desc>HBT1</desc>
<path d="M28928 37726
L28928 37226
" />
<path d="M28928 37464
L29214 37464
" />
<path d="M29214 37726
L29214 37226
" />
<path d="M29619 37464
L29690 37488
L29714 37511
L29738 37559
L29738 37630
L29714 37678
L29690 37702
L29642 37726
L29452 37726
L29452 37226
L29619 37226
L29666 37249
L29690 37273
L29714 37321
L29714 37368
L29690 37416
L29666 37440
L29619 37464
L29452 37464
" />
<path d="M29880 37226
L30166 37226
" />
<path d="M30023 37726
L30023 37226
" />
<path d="M30595 37726
L30309 37726
" />
<path d="M30452 37726
L30452 37226
L30404 37297
L30357 37345
L30309 37368
" />
</g><text x="29750.000000" y="39749.960630"
textLength="1583.818898" font-size="666.653543" lengthAdjust="spacingAndGlyphs"
text-anchor="middle" opacity="0">GRN</text>
<g class="stroked-text"><desc>GRN</desc>
<path d="M29369 39249
L29321 39226
L29250 39226
L29178 39249
L29130 39297
L29107 39345
L29083 39440
L29083 39511
L29107 39607
L29130 39654
L29178 39702
L29250 39726
L29297 39726
L29369 39702
L29392 39678
L29392 39511
L29297 39511
" />
<path d="M29892 39726
L29726 39488
" />
<path d="M29607 39726
L29607 39226
L29797 39226
L29845 39249
L29869 39273
L29892 39321
L29892 39392
L29869 39440
L29845 39464
L29797 39488
L29607 39488
" />
<path d="M30107 39726
L30107 39226
L30392 39726
L30392 39226
" />
</g></g>
</g>
<g style="fill:#006464; fill-opacity:0.0; 
stroke:#006464; stroke-width:60.000000; stroke-opacity:1; 
stroke-linecap:round; stroke-linejoin:round;">
<g >
</g>
<g style="fill:#840000; fill-opacity:0.0; 
stroke:#840000; stroke-width:60.000000; stroke-opacity:1; 
stroke-linecap:round; stroke-linejoin:round;">
<path style="fill:#840000; fill-opacity:0.0; 
stroke:#840000; stroke-width:60.000000; stroke-opacity:1; 
stroke-linecap:round; stroke-linejoin:round;fill:none"
d="M 27000.000000,43500.000000
27000.000000,44000.000000
27500.000000,44000.000000
27000.000000,44500.000000
26500.000000,44000.000000
27000.000000,44000.000000
" /> 
</g>
</g>
<g style="fill:#840000; fill-opacity:0.0; 
stroke:#840000; stroke-width:60.000000; stroke-opacity:1; 
stroke-linecap:round; stroke-linejoin:round;">
<g >
<path style="fill:#840000; fill-opacity:0.0; 
stroke:#840000; stroke-width:60.000000; stroke-opacity:1; 
stroke-linecap:round; stroke-linejoin:round;fill:none"
d="M 33650.000000,38500.000000
33750.000000,38500.000000
" /> 
<path style="fill:#840000; fill-opacity:0.0; 
stroke:#840000; stroke-width:60.000000; stroke-opacity:1; 
stroke-linecap:round; stroke-linejoin:round;fill:none"
d="M 31850.000000,38500.000000
31750.000000,38500.000000
" /> 
<path style="fill:#840000; fill-opacity:0.0; 
stroke:#840000; stroke-width:60.000000; stroke-opacity:1; 
stroke-linecap:round; stroke-linejoin:round;fill:none"
d="M 33050.000000,38500.000000
33200.000000,38100.000000
33350.000000,38500.000000
33500.000000,38900.000000
33650.000000,38500.000000
" /> 
<path style="fill:#840000; fill-opacity:0.0; 
stroke:#840000; stroke-width:60.000000; stroke-opacity:1; 
stroke-linecap:round; stroke-linejoin:round;fill:none"
d="M 32450.000000,38500.000000
32600.000000,38100.000000
32750.000000,38500.000000
32900.000000,38900.000000
33050.000000,38500.000000
" /> 
<path style="fill:#840000; fill-opacity:0.0; 
stroke:#840000; stroke-width:60.000000; stroke-opacity:1; 
stroke-linecap:round; stroke-linejoin:round;fill:none"
d="M 31850.000000,38500.000000
32000.000000,38100.000000
32150.000000,38500.000000
32300.000000,38900.000000
32450.000000,38500.000000
" /> 
<path d="M31750 38500
L31250 38500
" />
<path d="M33750 38500
L34250 38500
" />
</g>
<g style="fill:#006464; fill-opacity:0.0; 
stroke:#006464; stroke-width:60.000000; stroke-opacity:1; 
stroke-linecap:round; stroke-linejoin:round;">
<text x="32750.000000" y="37750.000000"
textLength="1512.362205" font-size="666.653543" lengthAdjust="spacingAndGlyphs"
text-anchor="middle" opacity="0">R89</text>
<g class="stroked-text"><desc>R89</desc>
<path d="M32428 37726
L32261 37488
" />
<path d="M32142 37726
L32142 37226
L32333 37226
L32380 37250
L32404 37273
L32428 37321
L32428 37392
L32404 37440
L32380 37464
L32333 37488
L32142 37488
" />
<path d="M32714 37440
L32666 37416
L32642 37392
L32619 37345
L32619 37321
L32642 37273
L32666 37250
L32714 37226
L32809 37226
L32857 37250
L32880 37273
L32904 37321
L32904 37345
L32880 37392
L32857 37416
L32809 37440
L32714 37440
L32666 37464
L32642 37488
L32619 37535
L32619 37630
L32642 37678
L32666 37702
L32714 37726
L32809 37726
L32857 37702
L32880 37678
L32904 37630
L32904 37535
L32880 37488
L32857 37464
L32809 37440
" />
<path d="M33142 37726
L33238 37726
L33285 37702
L33309 37678
L33357 37607
L33380 37511
L33380 37321
L33357 37273
L33333 37250
L33285 37226
L33190 37226
L33142 37250
L33119 37273
L33095 37321
L33095 37440
L33119 37488
L33142 37511
L33190 37535
L33285 37535
L33333 37511
L33357 37488
L33380 37440
" />
</g><text x="32750.000000" y="39750.000000"
textLength="1488.582677" font-size="666.653543" lengthAdjust="spacingAndGlyphs"
text-anchor="middle" opacity="0">150</text>
<g class="stroked-text"><desc>150</desc>
<path d="M32416 39726
L32130 39726
" />
<path d="M32273 39726
L32273 39226
L32226 39297
L32178 39345
L32130 39369
" />
<path d="M32869 39226
L32630 39226
L32607 39464
L32630 39440
L32678 39416
L32797 39416
L32845 39440
L32869 39464
L32892 39511
L32892 39630
L32869 39678
L32845 39702
L32797 39726
L32678 39726
L32630 39702
L32607 39678
" />
<path d="M33202 39226
L33250 39226
L33297 39250
L33321 39273
L33345 39321
L33369 39416
L33369 39535
L33345 39630
L33321 39678
L33297 39702
L33250 39726
L33202 39726
L33154 39702
L33130 39678
L33107 39630
L33083 39535
L33083 39416
L33107 39321
L33130 39273
L33154 39250
L33202 39226
" />
</g></g>
</g>
<g style="fill:#006464; fill-opacity:0.0; 
stroke:#006464; stroke-width:60.000000; stroke-opacity:1; 
stroke-linecap:round; stroke-linejoin:round;">
<g >
</g>
<g style="fill:#840000; fill-opacity:0.0; 
stroke:#840000; stroke-width:60.000000; stroke-opacity:1; 
stroke-linecap:round; stroke-linejoin:round;">
<path style="fill:#840000; fill-opacity:0.0; 
stroke:#840000; stroke-width:60.000000; stroke-opacity:1; 
stroke-linecap:round; stroke-linejoin:round;fill:none"
d="M 50000.000000,40500.000000
50000.000000,41000.000000
50500.000000,41000.000000
50000.000000,41500.000000
49500.000000,41000.000000
50000.000000,41000.000000
" /> 
</g>
</g>
<g style="fill:#840000; fill-opacity:0.0; 
stroke:#840000; stroke-width:62.519685; stroke-opacity:1; 
stroke-linecap:round; stroke-linejoin:round;">
</g>
<g style="fill:#840000; fill-opacity:0.0; 
stroke:#840000; stroke-width:60.000000; stroke-opacity:1; 
stroke-linecap:round; stroke-linejoin:round;">
</g>
<g style="fill:#725600; fill-opacity:0.0; 
stroke:#725600; stroke-width:60.000000; stroke-opacity:1; 
stroke-linecap:round; stroke-linejoin:round;">
<text x="44575.000000" y="35750.000000"
textLength="3321.889764" font-size="666.653543" lengthAdjust="spacingAndGlyphs"
text-anchor="start" opacity="0">ADC2_CS</text>
<g class="stroked-text"><desc>ADC2_CS</desc>
<path d="M44700 35583
L44938 35583
" />
<path d="M44652 35726
L44819 35226
L44985 35726
" />
<path d="M45152 35726
L45152 35226
L45271 35226
L45343 35250
L45390 35297
L45414 35345
L45438 35440
L45438 35511
L45414 35607
L45390 35654
L45343 35702
L45271 35726
L45152 35726
" />
<path d="M45938 35678
L45914 35702
L45843 35726
L45795 35726
L45724 35702
L45676 35654
L45652 35607
L45628 35511
L45628 35440
L45652 35345
L45676 35297
L45724 35250
L45795 35226
L45843 35226
L45914 35250
L45938 35273
" />
<path d="M46128 35273
L46152 35250
L46200 35226
L46319 35226
L46366 35250
L46390 35273
L46414 35321
L46414 35369
L46390 35440
L46105 35726
L46414 35726
" />
<path d="M46509 35773
L46890 35773
" />
<path d="M47295 35678
L47271 35702
L47200 35726
L47152 35726
L47081 35702
L47033 35654
L47009 35607
L46985 35511
L46985 35440
L47009 35345
L47033 35297
L47081 35250
L47152 35226
L47200 35226
L47271 35250
L47295 35273
" />
<path d="M47485 35702
L47557 35726
L47676 35726
L47724 35702
L47747 35678
L47771 35630
L47771 35583
L47747 35535
L47724 35511
L47676 35488
L47581 35464
L47533 35440
L47509 35416
L47485 35369
L47485 35321
L47509 35273
L47533 35250
L47581 35226
L47700 35226
L47771 35250
" />
</g><path style="fill:#725600; fill-opacity:0.0; 
stroke:#725600; stroke-width:60.000000; stroke-opacity:1; 
stroke-linecap:round; stroke-linejoin:round;fill:none"
d="M 44500.000000,35500.000000
44250.000000,35250.000000
44000.000000,35250.000000
44000.000000,35750.000000
44250.000000,35750.000000
Z" /> 
</g>
<g style="fill:#725600; fill-opacity:0.0; 
stroke:#725600; stroke-width:62.519685; stroke-opacity:1; 
stroke-linecap:round; stroke-linejoin:round;">
</g>
<g style="fill:#725600; fill-opacity:0.0; 
stroke:#725600; stroke-width:60.000000; stroke-opacity:1; 
stroke-linecap:round; stroke-linejoin:round;">
<text x="38425.000000" y="34750.000000"
textLength="3464.763780" font-size="666.653543" lengthAdjust="spacingAndGlyphs"
text-anchor="end" opacity="0">SPI_MISO</text>
<g class="stroked-text"><desc>SPI_MISO</desc>
<path d="M35085 34702
L35156 34726
L35275 34726
L35323 34702
L35347 34678
L35371 34630
L35371 34583
L35347 34535
L35323 34511
L35275 34488
L35180 34464
L35133 34440
L35109 34416
L35085 34369
L35085 34321
L35109 34273
L35133 34250
L35180 34226
L35299 34226
L35371 34250
" />
<path d="M35585 34726
L35585 34226
L35775 34226
L35823 34250
L35847 34273
L35871 34321
L35871 34392
L35847 34440
L35823 34464
L35775 34488
L35585 34488
" />
<path d="M36085 34726
L36085 34226
" />
<path d="M36204 34773
L36585 34773
" />
<path d="M36704 34726
L36704 34226
L36871 34583
L37037 34226
L37037 34726
" />
<path d="M37275 34726
L37275 34226
" />
<path d="M37490 34702
L37561 34726
L37680 34726
L37728 34702
L37752 34678
L37775 34630
L37775 34583
L37752 34535
L37728 34511
L37680 34488
L37585 34464
L37537 34440
L37514 34416
L37490 34369
L37490 34321
L37514 34273
L37537 34250
L37585 34226
L37704 34226
L37775 34250
" />
<path d="M38085 34226
L38180 34226
L38228 34250
L38275 34297
L38299 34392
L38299 34559
L38275 34654
L38228 34702
L38180 34726
L38085 34726
L38037 34702
L37990 34654
L37966 34559
L37966 34392
L37990 34297
L38037 34250
L38085 34226
" />
</g><path style="fill:#725600; fill-opacity:0.0; 
stroke:#725600; stroke-width:60.000000; stroke-opacity:1; 
stroke-linecap:round; stroke-linejoin:round;fill:none"
d="M 39000.000000,34500.000000
38750.000000,34250.000000
38500.000000,34250.000000
38500.000000,34750.000000
38750.000000,34750.000000
Z" /> 
</g>
<g style="fill:#725600; fill-opacity:0.0; 
stroke:#725600; stroke-width:62.519685; stroke-opacity:1; 
stroke-linecap:round; stroke-linejoin:round;">
</g>
<g style="fill:#725600; fill-opacity:0.0; 
stroke:#725600; stroke-width:60.000000; stroke-opacity:1; 
stroke-linecap:round; stroke-linejoin:round;">
<text x="38425.000000" y="39750.000000"
textLength="4012.362205" font-size="666.653543" lengthAdjust="spacingAndGlyphs"
text-anchor="end" opacity="0">DRV_CTL_3</text>
<g class="stroked-text"><desc>DRV_CTL_3</desc>
<path d="M34561 39726
L34561 39226
L34680 39226
L34752 39250
L34799 39297
L34823 39345
L34847 39440
L34847 39511
L34823 39607
L34799 39654
L34752 39702
L34680 39726
L34561 39726
" />
<path d="M35347 39726
L35180 39488
" />
<path d="M35061 39726
L35061 39226
L35252 39226
L35299 39250
L35323 39273
L35347 39321
L35347 39392
L35323 39440
L35299 39464
L35252 39488
L35061 39488
" />
<path d="M35490 39226
L35656 39726
L35823 39226
" />
<path d="M35871 39773
L36252 39773
" />
<path d="M36656 39678
L36633 39702
L36561 39726
L36514 39726
L36442 39702
L36395 39654
L36371 39607
L36347 39511
L36347 39440
L36371 39345
L36395 39297
L36442 39250
L36514 39226
L36561 39226
L36633 39250
L36656 39273
" />
<path d="M36799 39226
L37085 39226
" />
<path d="M36942 39726
L36942 39226
" />
<path d="M37490 39726
L37252 39726
L37252 39226
" />
<path d="M37537 39773
L37918 39773
" />
<path d="M37990 39226
L38299 39226
L38133 39416
L38204 39416
L38252 39440
L38275 39464
L38299 39511
L38299 39630
L38275 39678
L38252 39702
L38204 39726
L38061 39726
L38014 39702
L37990 39678
" />
</g><path style="fill:#725600; fill-opacity:0.0; 
stroke:#725600; stroke-width:60.000000; stroke-opacity:1; 
stroke-linecap:round; stroke-linejoin:round;fill:none"
d="M 38500.000000,39500.000000
38750.000000,39750.000000
39000.000000,39750.000000
39000.000000,39250.000000
38750.000000,39250.000000
Z" /> 
</g>
<g style="fill:#725600; fill-opacity:0.0; 
stroke:#725600; stroke-width:62.519685; stroke-opacity:1; 
stroke-linecap:round; stroke-linejoin:round;">
</g>
<g style="fill:#725600; fill-opacity:0.0; 
stroke:#725600; stroke-width:60.000000; stroke-opacity:1; 
stroke-linecap:round; stroke-linejoin:round;">
<text x="38425.000000" y="33750.000000"
textLength="3464.763780" font-size="666.653543" lengthAdjust="spacingAndGlyphs"
text-anchor="end" opacity="0">SPI_MOSI</text>
<g class="stroked-text"><desc>SPI_MOSI</desc>
<path d="M35085 33702
L35156 33726
L35275 33726
L35323 33702
L35347 33678
L35371 33630
L35371 33583
L35347 33535
L35323 33511
L35275 33488
L35180 33464
L35133 33440
L35109 33416
L35085 33369
L35085 33321
L35109 33273
L35133 33250
L35180 33226
L35299 33226
L35371 33250
" />
<path d="M35585 33726
L35585 33226
L35775 33226
L35823 33250
L35847 33273
L35871 33321
L35871 33392
L35847 33440
L35823 33464
L35775 33488
L35585 33488
" />
<path d="M36085 33726
L36085 33226
" />
<path d="M36204 33773
L36585 33773
" />
<path d="M36704 33726
L36704 33226
L36871 33583
L37037 33226
L37037 33726
" />
<path d="M37371 33226
L37466 33226
L37514 33250
L37561 33297
L37585 33392
L37585 33559
L37561 33654
L37514 33702
L37466 33726
L37371 33726
L37323 33702
L37275 33654
L37252 33559
L37252 33392
L37275 33297
L37323 33250
L37371 33226
" />
<path d="M37775 33702
L37847 33726
L37966 33726
L38014 33702
L38037 33678
L38061 33630
L38061 33583
L38037 33535
L38014 33511
L37966 33488
L37871 33464
L37823 33440
L37799 33416
L37775 33369
L37775 33321
L37799 33273
L37823 33250
L37871 33226
L37990 33226
L38061 33250
" />
<path d="M38275 33726
L38275 33226
" />
</g><path style="fill:#725600; fill-opacity:0.0; 
stroke:#725600; stroke-width:60.000000; stroke-opacity:1; 
stroke-linecap:round; stroke-linejoin:round;fill:none"
d="M 38500.000000,33500.000000
38750.000000,33750.000000
39000.000000,33750.000000
39000.000000,33250.000000
38750.000000,33250.000000
Z" /> 
</g>
<g style="fill:#725600; fill-opacity:0.0; 
stroke:#725600; stroke-width:62.519685; stroke-opacity:1; 
stroke-linecap:round; stroke-linejoin:round;">
</g>
<g style="fill:#725600; fill-opacity:0.0; 
stroke:#725600; stroke-width:60.000000; stroke-opacity:1; 
stroke-linecap:round; stroke-linejoin:round;">
<text x="38425.000000" y="35750.000000"
textLength="3060.000000" font-size="666.653543" lengthAdjust="spacingAndGlyphs"
text-anchor="end" opacity="0">SPI_CLK</text>
<g class="stroked-text"><desc>SPI_CLK</desc>
<path d="M35490 35702
L35561 35726
L35680 35726
L35728 35702
L35752 35678
L35775 35630
L35775 35583
L35752 35535
L35728 35511
L35680 35488
L35585 35464
L35537 35440
L35514 35416
L35490 35369
L35490 35321
L35514 35273
L35537 35250
L35585 35226
L35704 35226
L35775 35250
" />
<path d="M35990 35726
L35990 35226
L36180 35226
L36228 35250
L36252 35273
L36275 35321
L36275 35392
L36252 35440
L36228 35464
L36180 35488
L35990 35488
" />
<path d="M36490 35726
L36490 35226
" />
<path d="M36609 35773
L36990 35773
" />
<path d="M37395 35678
L37371 35702
L37299 35726
L37252 35726
L37180 35702
L37133 35654
L37109 35607
L37085 35511
L37085 35440
L37109 35345
L37133 35297
L37180 35250
L37252 35226
L37299 35226
L37371 35250
L37395 35273
" />
<path d="M37847 35726
L37609 35726
L37609 35226
" />
<path d="M38014 35726
L38014 35226
" />
<path d="M38299 35726
L38085 35440
" />
<path d="M38299 35226
L38014 35511
" />
</g><path style="fill:#725600; fill-opacity:0.0; 
stroke:#725600; stroke-width:60.000000; stroke-opacity:1; 
stroke-linecap:round; stroke-linejoin:round;fill:none"
d="M 38500.000000,35500.000000
38750.000000,35750.000000
39000.000000,35750.000000
39000.000000,35250.000000
38750.000000,35250.000000
Z" /> 
</g>
<g style="fill:#725600; fill-opacity:0.0; 
stroke:#725600; stroke-width:62.519685; stroke-opacity:1; 
stroke-linecap:round; stroke-linejoin:round;">
</g>
<g style="fill:#725600; fill-opacity:0.0; 
stroke:#725600; stroke-width:60.000000; stroke-opacity:1; 
stroke-linecap:round; stroke-linejoin:round;">
<text x="38425.000000" y="40750.000000"
textLength="4012.362205" font-size="666.653543" lengthAdjust="spacingAndGlyphs"
text-anchor="end" opacity="0">DRV_CTL_2</text>
<g class="stroked-text"><desc>DRV_CTL_2</desc>
<path d="M34561 40726
L34561 40226
L34680 40226
L34752 40250
L34799 40297
L34823 40345
L34847 40440
L34847 40511
L34823 40607
L34799 40654
L34752 40702
L34680 40726
L34561 40726
" />
<path d="M35347 40726
L35180 40488
" />
<path d="M35061 40726
L35061 40226
L35252 40226
L35299 40250
L35323 40273
L35347 40321
L35347 40392
L35323 40440
L35299 40464
L35252 40488
L35061 40488
" />
<path d="M35490 40226
L35656 40726
L35823 40226
" />
<path d="M35871 40773
L36252 40773
" />
<path d="M36656 40678
L36633 40702
L36561 40726
L36514 40726
L36442 40702
L36395 40654
L36371 40607
L36347 40511
L36347 40440
L36371 40345
L36395 40297
L36442 40250
L36514 40226
L36561 40226
L36633 40250
L36656 40273
" />
<path d="M36799 40226
L37085 40226
" />
<path d="M36942 40726
L36942 40226
" />
<path d="M37490 40726
L37252 40726
L37252 40226
" />
<path d="M37537 40773
L37918 40773
" />
<path d="M38014 40273
L38037 40250
L38085 40226
L38204 40226
L38252 40250
L38275 40273
L38299 40321
L38299 40369
L38275 40440
L37990 40726
L38299 40726
" />
</g><path style="fill:#725600; fill-opacity:0.0; 
stroke:#725600; stroke-width:60.000000; stroke-opacity:1; 
stroke-linecap:round; stroke-linejoin:round;fill:none"
d="M 38500.000000,40500.000000
38750.000000,40750.000000
39000.000000,40750.000000
39000.000000,40250.000000
38750.000000,40250.000000
Z" /> 
</g>
<g style="fill:#725600; fill-opacity:0.0; 
stroke:#725600; stroke-width:62.519685; stroke-opacity:1; 
stroke-linecap:round; stroke-linejoin:round;">
</g>
<g style="fill:#725600; fill-opacity:0.0; 
stroke:#725600; stroke-width:60.000000; stroke-opacity:1; 
stroke-linecap:round; stroke-linejoin:round;">
<text x="38425.000000" y="41750.000000"
textLength="4012.362205" font-size="666.653543" lengthAdjust="spacingAndGlyphs"
text-anchor="end" opacity="0">DRV_CTL_1</text>
<g class="stroked-text"><desc>DRV_CTL_1</desc>
<path d="M34561 41726
L34561 41226
L34680 41226
L34752 41250
L34799 41297
L34823 41345
L34847 41440
L34847 41511
L34823 41607
L34799 41654
L34752 41702
L34680 41726
L34561 41726
" />
<path d="M35347 41726
L35180 41488
" />
<path d="M35061 41726
L35061 41226
L35252 41226
L35299 41250
L35323 41273
L35347 41321
L35347 41392
L35323 41440
L35299 41464
L35252 41488
L35061 41488
" />
<path d="M35490 41226
L35656 41726
L35823 41226
" />
<path d="M35871 41773
L36252 41773
" />
<path d="M36656 41678
L36633 41702
L36561 41726
L36514 41726
L36442 41702
L36395 41654
L36371 41607
L36347 41511
L36347 41440
L36371 41345
L36395 41297
L36442 41250
L36514 41226
L36561 41226
L36633 41250
L36656 41273
" />
<path d="M36799 41226
L37085 41226
" />
<path d="M36942 41726
L36942 41226
" />
<path d="M37490 41726
L37252 41726
L37252 41226
" />
<path d="M37537 41773
L37918 41773
" />
<path d="M38299 41726
L38014 41726
" />
<path d="M38156 41726
L38156 41226
L38109 41297
L38061 41345
L38014 41369
" />
</g><path style="fill:#725600; fill-opacity:0.0; 
stroke:#725600; stroke-width:60.000000; stroke-opacity:1; 
stroke-linecap:round; stroke-linejoin:round;fill:none"
d="M 38500.000000,41500.000000
38750.000000,41750.000000
39000.000000,41750.000000
39000.000000,41250.000000
38750.000000,41250.000000
Z" /> 
</g>
<g style="fill:#725600; fill-opacity:0.0; 
stroke:#725600; stroke-width:62.519685; stroke-opacity:1; 
stroke-linecap:round; stroke-linejoin:round;">
</g>
<g style="fill:#725600; fill-opacity:0.0; 
stroke:#725600; stroke-width:60.000000; stroke-opacity:1; 
stroke-linecap:round; stroke-linejoin:round;">
<text x="38425.000000" y="31750.000000"
textLength="4012.362205" font-size="666.653543" lengthAdjust="spacingAndGlyphs"
text-anchor="end" opacity="0">DRV_CTL_4</text>
<g class="stroked-text"><desc>DRV_CTL_4</desc>
<path d="M34561 31726
L34561 31226
L34680 31226
L34752 31250
L34799 31297
L34823 31345
L34847 31440
L34847 31511
L34823 31607
L34799 31654
L34752 31702
L34680 31726
L34561 31726
" />
<path d="M35347 31726
L35180 31488
" />
<path d="M35061 31726
L35061 31226
L35252 31226
L35299 31250
L35323 31273
L35347 31321
L35347 31392
L35323 31440
L35299 31464
L35252 31488
L35061 31488
" />
<path d="M35490 31226
L35656 31726
L35823 31226
" />
<path d="M35871 31773
L36252 31773
" />
<path d="M36656 31678
L36633 31702
L36561 31726
L36514 31726
L36442 31702
L36395 31654
L36371 31607
L36347 31511
L36347 31440
L36371 31345
L36395 31297
L36442 31250
L36514 31226
L36561 31226
L36633 31250
L36656 31273
" />
<path d="M36799 31226
L37085 31226
" />
<path d="M36942 31726
L36942 31226
" />
<path d="M37490 31726
L37252 31726
L37252 31226
" />
<path d="M37537 31773
L37918 31773
" />
<path d="M38252 31392
L38252 31726
" />
<path d="M38133 31202
L38014 31559
L38323 31559
" />
</g><path style="fill:#725600; fill-opacity:0.0; 
stroke:#725600; stroke-width:60.000000; stroke-opacity:1; 
stroke-linecap:round; stroke-linejoin:round;fill:none"
d="M 38500.000000,31500.000000
38750.000000,31750.000000
39000.000000,31750.000000
39000.000000,31250.000000
38750.000000,31250.000000
Z" /> 
</g>
<g style="fill:#725600; fill-opacity:0.0; 
stroke:#725600; stroke-width:62.519685; stroke-opacity:1; 
stroke-linecap:round; stroke-linejoin:round;">
</g>
<g style="fill:#725600; fill-opacity:0.0; 
stroke:#725600; stroke-width:60.000000; stroke-opacity:1; 
stroke-linecap:round; stroke-linejoin:round;">
<text x="38425.000000" y="30750.000000"
textLength="4012.362205" font-size="666.653543" lengthAdjust="spacingAndGlyphs"
text-anchor="end" opacity="0">DRV_CTL_5</text>
<g class="stroked-text"><desc>DRV_CTL_5</desc>
<path d="M34561 30726
L34561 30226
L34680 30226
L34752 30250
L34799 30297
L34823 30345
L34847 30440
L34847 30511
L34823 30607
L34799 30654
L34752 30702
L34680 30726
L34561 30726
" />
<path d="M35347 30726
L35180 30488
" />
<path d="M35061 30726
L35061 30226
L35252 30226
L35299 30250
L35323 30273
L35347 30321
L35347 30392
L35323 30440
L35299 30464
L35252 30488
L35061 30488
" />
<path d="M35490 30226
L35656 30726
L35823 30226
" />
<path d="M35871 30773
L36252 30773
" />
<path d="M36656 30678
L36633 30702
L36561 30726
L36514 30726
L36442 30702
L36395 30654
L36371 30607
L36347 30511
L36347 30440
L36371 30345
L36395 30297
L36442 30250
L36514 30226
L36561 30226
L36633 30250
L36656 30273
" />
<path d="M36799 30226
L37085 30226
" />
<path d="M36942 30726
L36942 30226
" />
<path d="M37490 30726
L37252 30726
L37252 30226
" />
<path d="M37537 30773
L37918 30773
" />
<path d="M38275 30226
L38037 30226
L38014 30464
L38037 30440
L38085 30416
L38204 30416
L38252 30440
L38275 30464
L38299 30511
L38299 30630
L38275 30678
L38252 30702
L38204 30726
L38085 30726
L38037 30702
L38014 30678
" />
</g><path style="fill:#725600; fill-opacity:0.0; 
stroke:#725600; stroke-width:60.000000; stroke-opacity:1; 
stroke-linecap:round; stroke-linejoin:round;fill:none"
d="M 38500.000000,30500.000000
38750.000000,30750.000000
39000.000000,30750.000000
39000.000000,30250.000000
38750.000000,30250.000000
Z" /> 
</g>
<g style="fill:#725600; fill-opacity:0.0; 
stroke:#725600; stroke-width:62.519685; stroke-opacity:1; 
stroke-linecap:round; stroke-linejoin:round;">
</g>
<g style="fill:#725600; fill-opacity:0.0; 
stroke:#725600; stroke-width:60.000000; stroke-opacity:1; 
stroke-linecap:round; stroke-linejoin:round;">
<text x="38425.000000" y="29750.000000"
textLength="4012.362205" font-size="666.653543" lengthAdjust="spacingAndGlyphs"
text-anchor="end" opacity="0">DRV_CTL_6</text>
<g class="stroked-text"><desc>DRV_CTL_6</desc>
<path d="M34561 29726
L34561 29226
L34680 29226
L34752 29250
L34799 29297
L34823 29345
L34847 29440
L34847 29511
L34823 29607
L34799 29654
L34752 29702
L34680 29726
L34561 29726
" />
<path d="M35347 29726
L35180 29488
" />
<path d="M35061 29726
L35061 29226
L35252 29226
L35299 29250
L35323 29273
L35347 29321
L35347 29392
L35323 29440
L35299 29464
L35252 29488
L35061 29488
" />
<path d="M35490 29226
L35656 29726
L35823 29226
" />
<path d="M35871 29773
L36252 29773
" />
<path d="M36656 29678
L36633 29702
L36561 29726
L36514 29726
L36442 29702
L36395 29654
L36371 29607
L36347 29511
L36347 29440
L36371 29345
L36395 29297
L36442 29250
L36514 29226
L36561 29226
L36633 29250
L36656 29273
" />
<path d="M36799 29226
L37085 29226
" />
<path d="M36942 29726
L36942 29226
" />
<path d="M37490 29726
L37252 29726
L37252 29226
" />
<path d="M37537 29773
L37918 29773
" />
<path d="M38252 29226
L38156 29226
L38109 29250
L38085 29273
L38037 29345
L38014 29440
L38014 29630
L38037 29678
L38061 29702
L38109 29726
L38204 29726
L38252 29702
L38275 29678
L38299 29630
L38299 29511
L38275 29464
L38252 29440
L38204 29416
L38109 29416
L38061 29440
L38037 29464
L38014 29511
" />
</g><path style="fill:#725600; fill-opacity:0.0; 
stroke:#725600; stroke-width:60.000000; stroke-opacity:1; 
stroke-linecap:round; stroke-linejoin:round;fill:none"
d="M 38500.000000,29500.000000
38750.000000,29750.000000
39000.000000,29750.000000
39000.000000,29250.000000
38750.000000,29250.000000
Z" /> 
</g>
<g style="fill:#725600; fill-opacity:0.0; 
stroke:#725600; stroke-width:62.519685; stroke-opacity:1; 
stroke-linecap:round; stroke-linejoin:round;">
</g>
<g style="fill:#725600; fill-opacity:0.0; 
stroke:#725600; stroke-width:60.000000; stroke-opacity:1; 
stroke-linecap:round; stroke-linejoin:round;">
<text x="44575.000000" y="34750.000000"
textLength="3321.889764" font-size="666.653543" lengthAdjust="spacingAndGlyphs"
text-anchor="start" opacity="0">ADC1_CS</text>
<g class="stroked-text"><desc>ADC1_CS</desc>
<path d="M44700 34583
L44938 34583
" />
<path d="M44652 34726
L44819 34226
L44985 34726
" />
<path d="M45152 34726
L45152 34226
L45271 34226
L45343 34250
L45390 34297
L45414 34345
L45438 34440
L45438 34511
L45414 34607
L45390 34654
L45343 34702
L45271 34726
L45152 34726
" />
<path d="M45938 34678
L45914 34702
L45843 34726
L45795 34726
L45724 34702
L45676 34654
L45652 34607
L45628 34511
L45628 34440
L45652 34345
L45676 34297
L45724 34250
L45795 34226
L45843 34226
L45914 34250
L45938 34273
" />
<path d="M46414 34726
L46128 34726
" />
<path d="M46271 34726
L46271 34226
L46224 34297
L46176 34345
L46128 34369
" />
<path d="M46509 34773
L46890 34773
" />
<path d="M47295 34678
L47271 34702
L47200 34726
L47152 34726
L47081 34702
L47033 34654
L47009 34607
L46985 34511
L46985 34440
L47009 34345
L47033 34297
L47081 34250
L47152 34226
L47200 34226
L47271 34250
L47295 34273
" />
<path d="M47485 34702
L47557 34726
L47676 34726
L47724 34702
L47747 34678
L47771 34630
L47771 34583
L47747 34535
L47724 34511
L47676 34488
L47581 34464
L47533 34440
L47509 34416
L47485 34369
L47485 34321
L47509 34273
L47533 34250
L47581 34226
L47700 34226
L47771 34250
" />
</g><path style="fill:#725600; fill-opacity:0.0; 
stroke:#725600; stroke-width:60.000000; stroke-opacity:1; 
stroke-linecap:round; stroke-linejoin:round;fill:none"
d="M 44500.000000,34500.000000
44250.000000,34250.000000
44000.000000,34250.000000
44000.000000,34750.000000
44250.000000,34750.000000
Z" /> 
</g>
<g style="fill:#725600; fill-opacity:0.0; 
stroke:#725600; stroke-width:62.519685; stroke-opacity:1; 
stroke-linecap:round; stroke-linejoin:round;">
</g>
<g style="fill:#725600; fill-opacity:0.0; 
stroke:#725600; stroke-width:60.000000; stroke-opacity:1; 
stroke-linecap:round; stroke-linejoin:round;">
<text x="44575.000000" y="36750.000000"
textLength="3321.889764" font-size="666.653543" lengthAdjust="spacingAndGlyphs"
text-anchor="start" opacity="0">ADC3_CS</text>
<g class="stroked-text"><desc>ADC3_CS</desc>
<path d="M44700 36583
L44938 36583
" />
<path d="M44652 36726
L44819 36226
L44985 36726
" />
<path d="M45152 36726
L45152 36226
L45271 36226
L45343 36250
L45390 36297
L45414 36345
L45438 36440
L45438 36511
L45414 36607
L45390 36654
L45343 36702
L45271 36726
L45152 36726
" />
<path d="M45938 36678
L45914 36702
L45843 36726
L45795 36726
L45724 36702
L45676 36654
L45652 36607
L45628 36511
L45628 36440
L45652 36345
L45676 36297
L45724 36250
L45795 36226
L45843 36226
L45914 36250
L45938 36273
" />
<path d="M46105 36226
L46414 36226
L46247 36416
L46319 36416
L46366 36440
L46390 36464
L46414 36511
L46414 36630
L46390 36678
L46366 36702
L46319 36726
L46176 36726
L46128 36702
L46105 36678
" />
<path d="M46509 36773
L46890 36773
" />
<path d="M47295 36678
L47271 36702
L47200 36726
L47152 36726
L47081 36702
L47033 36654
L47009 36607
L46985 36511
L46985 36440
L47009 36345
L47033 36297
L47081 36250
L47152 36226
L47200 36226
L47271 36250
L47295 36273
" />
<path d="M47485 36702
L47557 36726
L47676 36726
L47724 36702
L47747 36678
L47771 36630
L47771 36583
L47747 36535
L47724 36511
L47676 36488
L47581 36464
L47533 36440
L47509 36416
L47485 36369
L47485 36321
L47509 36273
L47533 36250
L47581 36226
L47700 36226
L47771 36250
" />
</g><path style="fill:#725600; fill-opacity:0.0; 
stroke:#725600; stroke-width:60.000000; stroke-opacity:1; 
stroke-linecap:round; stroke-linejoin:round;fill:none"
d="M 44500.000000,36500.000000
44250.000000,36250.000000
44000.000000,36250.000000
44000.000000,36750.000000
44250.000000,36750.000000
Z" /> 
</g>
<g style="fill:#009600; fill-opacity:0.0; 
stroke:#009600; stroke-width:60.000000; stroke-opacity:1; 
stroke-linecap:round; stroke-linejoin:round;">
<path d="M44000 33500
L50000 33500
" />
<path d="M50000 38500
L50000 33500
" />
<path d="M45000 24500
L45000 25500
" />
<path d="M34250 38500
L39000 38500
" />
<path d="M45000 24500
L44000 24500
" />
<path d="M45000 25500
L44000 25500
" />
<path d="M44000 30500
L50000 30500
" />
<path d="M27000 36500
L39000 36500
" />
<path d="M27000 43500
L39000 43500
" />
<path d="M50000 40500
L50000 38500
" />
<path d="M50000 26500
L50000 30500
" />
<path d="M44000 26500
L50000 26500
" />
<path d="M27000 28500
L39000 28500
" />
<path d="M27000 38500
L27000 43500
" />
<path d="M44000 40500
L50000 40500
" />
<path d="M44000 38500
L50000 38500
" />
<path d="M50000 33500
L50000 30500
" />
<path d="M27000 36500
L27000 38500
" />
<path d="M27000 38500
L28250 38500
" />
<path d="M27000 28500
L27000 36500
" />
</g>
<g style="fill:#000084; fill-opacity:0.0; 
stroke:#000084; stroke-width:60.000000; stroke-opacity:1; 
stroke-linecap:round; stroke-linejoin:round;">
<path d="M43760 27260
L44240 27740
" />
<path d="M44240 27260
L43760 27740
" />
<path d="M38760 25260
L39240 25740
" />
<path d="M39240 25260
L38760 25740
" />
<path d="M38760 27260
L39240 27740
" />
<path d="M39240 27260
L38760 27740
" />
<path d="M38760 32260
L39240 32740
" />
<path d="M39240 32260
L38760 32740
" />
<path d="M43760 37260
L44240 37740
" />
<path d="M44240 37260
L43760 37740
" />
<path d="M38760 37260
L39240 37740
" />
<path d="M39240 37260
L38760 37740
" />
<path d="M43760 32260
L44240 32740
" />
<path d="M44240 32260
L43760 32740
" />
<path d="M38760 26260
L39240 26740
" />
<path d="M39240 26260
L38760 26740
" />
<path d="M43760 28260
L44240 28740
" />
<path d="M44240 28260
L43760 28740
" />
<path d="M43760 42260
L44240 42740
" />
<path d="M44240 42260
L43760 42740
" />
<path d="M43760 39260
L44240 39740
" />
<path d="M44240 39260
L43760 39740
" />
<path d="M38760 42260
L39240 42740
" />
<path d="M39240 42260
L38760 42740
" />
<path d="M38760 24260
L39240 24740
" />
<path d="M39240 24260
L38760 24740
" />
<path d="M43760 41260
L44240 41740
" />
<path d="M44240 41260
L43760 41740
" />
<path d="M43760 31260
L44240 31740
" />
<path d="M44240 31260
L43760 31740
" />
<path d="M43760 29260
L44240 29740
" />
<path d="M44240 29260
L43760 29740
" />
<path d="M43760 43260
L44240 43740
" />
<path d="M44240 43260
L43760 43740
" />
</g>
<g style="fill:#006464; fill-opacity:0.0; 
stroke:#006464; stroke-width:60.000000; stroke-opacity:1; 
stroke-linecap:round; stroke-linejoin:round;">
<text x="32750.000000" y="37750.000000"
textLength="1512.362205" font-size="666.653543" lengthAdjust="spacingAndGlyphs"
text-anchor="middle" opacity="0">R89</text>
<g class="stroked-text"><desc>R89</desc>
<path d="M32428 37726
L32261 37488
" />
<path d="M32142 37726
L32142 37226
L32333 37226
L32380 37250
L32404 37273
L32428 37321
L32428 37392
L32404 37440
L32380 37464
L32333 37488
L32142 37488
" />
<path d="M32714 37440
L32666 37416
L32642 37392
L32619 37345
L32619 37321
L32642 37273
L32666 37250
L32714 37226
L32809 37226
L32857 37250
L32880 37273
L32904 37321
L32904 37345
L32880 37392
L32857 37416
L32809 37440
L32714 37440
L32666 37464
L32642 37488
L32619 37535
L32619 37630
L32642 37678
L32666 37702
L32714 37726
L32809 37726
L32857 37702
L32880 37678
L32904 37630
L32904 37535
L32880 37488
L32857 37464
L32809 37440
" />
<path d="M33142 37726
L33238 37726
L33285 37702
L33309 37678
L33357 37607
L33380 37511
L33380 37321
L33357 37273
L33333 37250
L33285 37226
L33190 37226
L33142 37250
L33119 37273
L33095 37321
L33095 37440
L33119 37488
L33142 37511
L33190 37535
L33285 37535
L33333 37511
L33357 37488
L33380 37440
" />
</g><text x="32750.000000" y="39750.000000"
textLength="1488.582677" font-size="666.653543" lengthAdjust="spacingAndGlyphs"
text-anchor="middle" opacity="0">150</text>
<g class="stroked-text"><desc>150</desc>
<path d="M32416 39726
L32130 39726
" />
<path d="M32273 39726
L32273 39226
L32226 39297
L32178 39345
L32130 39369
" />
<path d="M32869 39226
L32630 39226
L32607 39464
L32630 39440
L32678 39416
L32797 39416
L32845 39440
L32869 39464
L32892 39511
L32892 39630
L32869 39678
L32845 39702
L32797 39726
L32678 39726
L32630 39702
L32607 39678
" />
<path d="M33202 39226
L33250 39226
L33297 39250
L33321 39273
L33345 39321
L33369 39416
L33369 39535
L33345 39630
L33321 39678
L33297 39702
L33250 39726
L33202 39726
L33154 39702
L33130 39678
L33107 39630
L33083 39535
L33083 39416
L33107 39321
L33130 39273
L33154 39250
L33202 39226
" />
</g></g>
<g style="fill:#840000; fill-opacity:0.0; 
stroke:#840000; stroke-width:60.000000; stroke-opacity:1; 
stroke-linecap:round; stroke-linejoin:round;">
<path d="M31750 38500
L31250 38500
" />
<path d="M33750 38500
L34250 38500
" />
</g>
<g style="fill:#006464; fill-opacity:0.0; 
stroke:#006464; stroke-width:60.000000; stroke-opacity:1; 
stroke-linecap:round; stroke-linejoin:round;">
<text x="29750.000000" y="37749.960630"
textLength="1940.944882" font-size="666.653543" lengthAdjust="spacingAndGlyphs"
text-anchor="middle" opacity="0">HBT1</text>
<g class="stroked-text"><desc>HBT1</desc>
<path d="M28928 37726
L28928 37226
" />
<path d="M28928 37464
L29214 37464
" />
<path d="M29214 37726
L29214 37226
" />
<path d="M29619 37464
L29690 37488
L29714 37511
L29738 37559
L29738 37630
L29714 37678
L29690 37702
L29642 37726
L29452 37726
L29452 37226
L29619 37226
L29666 37249
L29690 37273
L29714 37321
L29714 37368
L29690 37416
L29666 37440
L29619 37464
L29452 37464
" />
<path d="M29880 37226
L30166 37226
" />
<path d="M30023 37726
L30023 37226
" />
<path d="M30595 37726
L30309 37726
" />
<path d="M30452 37726
L30452 37226
L30404 37297
L30357 37345
L30309 37368
" />
</g><text x="29750.000000" y="39749.960630"
textLength="1583.818898" font-size="666.653543" lengthAdjust="spacingAndGlyphs"
text-anchor="middle" opacity="0">GRN</text>
<g class="stroked-text"><desc>GRN</desc>
<path d="M29369 39249
L29321 39226
L29250 39226
L29178 39249
L29130 39297
L29107 39345
L29083 39440
L29083 39511
L29107 39607
L29130 39654
L29178 39702
L29250 39726
L29297 39726
L29369 39702
L29392 39678
L29392 39511
L29297 39511
" />
<path d="M29892 39726
L29726 39488
" />
<path d="M29607 39726
L29607 39226
L29797 39226
L29845 39249
L29869 39273
L29892 39321
L29892 39392
L29869 39440
L29845 39464
L29797 39488
L29607 39488
" />
<path d="M30107 39726
L30107 39226
L30392 39726
L30392 39226
" />
</g></g>
<g style="fill:#840000; fill-opacity:0.0; 
stroke:#840000; stroke-width:60.000000; stroke-opacity:1; 
stroke-linecap:round; stroke-linejoin:round;">
<path d="M29250 38500
L28250 38500
" />
<path d="M30250 38500
L31250 38500
" />
</g>
<g style="fill:#009600; fill-opacity:0.0; 
stroke:#009600; stroke-width:60.000000; stroke-opacity:1; 
stroke-linecap:round; stroke-linejoin:round;">
</g>
<g style="fill:#009600; fill-opacity:1.0; 
stroke:#009600; stroke-width:60.000000; stroke-opacity:1; 
stroke-linecap:round; stroke-linejoin:round;">
<circle cx="50000.000000" cy="30500.000000" r="180.000000" /> 
<circle cx="50000.000000" cy="33500.000000" r="180.000000" /> 
<circle cx="45000.000000" cy="24500.000000" r="180.000000" /> 
<circle cx="50000.000000" cy="38500.000000" r="180.000000" /> 
<circle cx="50000.000000" cy="40500.000000" r="180.000000" /> 
<circle cx="27000.000000" cy="36500.000000" r="180.000000" /> 
<circle cx="27000.000000" cy="38500.000000" r="180.000000" /> 
<circle cx="27000.000000" cy="43500.000000" r="180.000000" /> 
</g> 
</svg>
