<?xml version="1.0" standalone="no"?>
 <!DOCTYPE svg PUBLIC "-//W3C//DTD SVG 1.1//EN" 
 "http://www.w3.org/Graphics/SVG/1.1/DTD/svg11.dtd"> 
<svg
  xmlns:svg="http://www.w3.org/2000/svg"
  xmlns="http://www.w3.org/2000/svg"
  xmlns:xlink="http://www.w3.org/1999/xlink"
  version="1.1"
  width="29.700220cm" height="21.000720cm" viewBox="0 0 116930 82680">
<title>SVG Picture created as karca-Raspberry Pi.svg date 2022/12/23 10:30:12 </title>
  <desc>Picture generated by Eeschema-SVG </desc>
<g style="fill:#000000; fill-opacity:1.000000;stroke:#000000; stroke-opacity:1.000000;
stroke-linecap:round; stroke-linejoin:round;"
 transform="translate(0 0) scale(1 1)">
</g>
<g style="fill:#000000; fill-opacity:0.0; 
stroke:#000000; stroke-width:60.000000; stroke-opacity:1; 
stroke-linecap:round; stroke-linejoin:round;">
<g >
</g>
<g style="fill:#840000; fill-opacity:0.0; 
stroke:#840000; stroke-width:60.000000; stroke-opacity:1; 
stroke-linecap:round; stroke-linejoin:round;">
<path style="fill:#840000; fill-opacity:0.0; 
stroke:#840000; stroke-width:60.000000; stroke-opacity:1; 
stroke-linecap:round; stroke-linejoin:round;fill:none"
d="M 36650.000000,38500.000000
36750.000000,38500.000000
" /> 
<path style="fill:#840000; fill-opacity:0.0; 
stroke:#840000; stroke-width:60.000000; stroke-opacity:1; 
stroke-linecap:round; stroke-linejoin:round;fill:none"
d="M 34850.000000,38500.000000
34750.000000,38500.000000
" /> 
<path style="fill:#840000; fill-opacity:0.0; 
stroke:#840000; stroke-width:60.000000; stroke-opacity:1; 
stroke-linecap:round; stroke-linejoin:round;fill:none"
d="M 36050.000000,38500.000000
36200.000000,38100.000000
36350.000000,38500.000000
36500.000000,38900.000000
36650.000000,38500.000000
" /> 
<path style="fill:#840000; fill-opacity:0.0; 
stroke:#840000; stroke-width:60.000000; stroke-opacity:1; 
stroke-linecap:round; stroke-linejoin:round;fill:none"
d="M 35450.000000,38500.000000
35600.000000,38100.000000
35750.000000,38500.000000
35900.000000,38900.000000
36050.000000,38500.000000
" /> 
<path style="fill:#840000; fill-opacity:0.0; 
stroke:#840000; stroke-width:60.000000; stroke-opacity:1; 
stroke-linecap:round; stroke-linejoin:round;fill:none"
d="M 34850.000000,38500.000000
35000.000000,38100.000000
35150.000000,38500.000000
35300.000000,38900.000000
35450.000000,38500.000000
" /> 
<path d="M34750 38500
L34250 38500
" />
<path d="M36750 38500
L37250 38500
" />
</g>
<g style="fill:#006464; fill-opacity:0.0; 
stroke:#006464; stroke-width:60.000000; stroke-opacity:1; 
stroke-linecap:round; stroke-linejoin:round;">
<text x="35750.000000" y="37750.000000"
textLength="1514.881890" font-size="666.653543" lengthAdjust="spacingAndGlyphs"
text-anchor="middle" opacity="0">R89</text>
<g class="stroked-text"><desc>R89</desc>
<path d="M35428 37726
L35261 37488
" />
<path d="M35142 37726
L35142 37226
L35333 37226
L35380 37250
L35404 37273
L35428 37321
L35428 37392
L35404 37440
L35380 37464
L35333 37488
L35142 37488
" />
<path d="M35714 37440
L35666 37416
L35642 37392
L35619 37345
L35619 37321
L35642 37273
L35666 37250
L35714 37226
L35809 37226
L35857 37250
L35880 37273
L35904 37321
L35904 37345
L35880 37392
L35857 37416
L35809 37440
L35714 37440
L35666 37464
L35642 37488
L35619 37535
L35619 37630
L35642 37678
L35666 37702
L35714 37726
L35809 37726
L35857 37702
L35880 37678
L35904 37630
L35904 37535
L35880 37488
L35857 37464
L35809 37440
" />
<path d="M36142 37726
L36238 37726
L36285 37702
L36309 37678
L36357 37607
L36380 37511
L36380 37321
L36357 37273
L36333 37250
L36285 37226
L36190 37226
L36142 37250
L36119 37273
L36095 37321
L36095 37440
L36119 37488
L36142 37511
L36190 37535
L36285 37535
L36333 37511
L36357 37488
L36380 37440
" />
</g><text x="35750.000000" y="39750.000000"
textLength="1488.582677" font-size="666.653543" lengthAdjust="spacingAndGlyphs"
text-anchor="middle" opacity="0">150</text>
<g class="stroked-text"><desc>150</desc>
<path d="M35416 39726
L35130 39726
" />
<path d="M35273 39726
L35273 39226
L35226 39297
L35178 39345
L35130 39369
" />
<path d="M35869 39226
L35630 39226
L35607 39464
L35630 39440
L35678 39416
L35797 39416
L35845 39440
L35869 39464
L35892 39511
L35892 39630
L35869 39678
L35845 39702
L35797 39726
L35678 39726
L35630 39702
L35607 39678
" />
<path d="M36202 39226
L36250 39226
L36297 39250
L36321 39273
L36345 39321
L36369 39416
L36369 39535
L36345 39630
L36321 39678
L36297 39702
L36250 39726
L36202 39726
L36154 39702
L36130 39678
L36107 39630
L36083 39535
L36083 39416
L36107 39321
L36130 39273
L36154 39250
L36202 39226
" />
</g></g>
</g>
<g style="fill:#006464; fill-opacity:0.0; 
stroke:#006464; stroke-width:60.000000; stroke-opacity:1; 
stroke-linecap:round; stroke-linejoin:round;">
<g >
</g>
<g style="fill:#840000; fill-opacity:0.0; 
stroke:#840000; stroke-width:60.000000; stroke-opacity:1; 
stroke-linecap:round; stroke-linejoin:round;">
<path style="fill:#840000; fill-opacity:0.0; 
stroke:#840000; stroke-width:60.000000; stroke-opacity:1; 
stroke-linecap:round; stroke-linejoin:round;fill:none"
d="M 50000.000000,40500.000000
50000.000000,41000.000000
50500.000000,41000.000000
50000.000000,41500.000000
49500.000000,41000.000000
50000.000000,41000.000000
" /> 
</g>
<g style="fill:#006464; fill-opacity:0.0; 
stroke:#006464; stroke-width:60.000000; stroke-opacity:1; 
stroke-linecap:round; stroke-linejoin:round;">
<text x="50000.000000" y="42749.960630"
textLength="1583.818898" font-size="666.653543" lengthAdjust="spacingAndGlyphs"
text-anchor="middle" opacity="0">GND</text>
<g class="stroked-text"><desc>GND</desc>
<path d="M49619 42249
L49571 42226
L49500 42226
L49428 42249
L49380 42297
L49357 42345
L49333 42440
L49333 42511
L49357 42607
L49380 42654
L49428 42702
L49500 42726
L49547 42726
L49619 42702
L49642 42678
L49642 42511
L49547 42511
" />
<path d="M49857 42726
L49857 42226
L50142 42726
L50142 42226
" />
<path d="M50380 42726
L50380 42226
L50500 42226
L50571 42249
L50619 42297
L50642 42345
L50666 42440
L50666 42511
L50642 42607
L50619 42654
L50571 42702
L50500 42726
L50380 42726
" />
</g></g>
</g>
<g style="fill:#006464; fill-opacity:0.0; 
stroke:#006464; stroke-width:60.000000; stroke-opacity:1; 
stroke-linecap:round; stroke-linejoin:round;">
<g >
</g>
<g style="fill:#840000; fill-opacity:0.0; 
stroke:#840000; stroke-width:60.000000; stroke-opacity:1; 
stroke-linecap:round; stroke-linejoin:round;">
<path style="fill:#840000; fill-opacity:0.0; 
stroke:#840000; stroke-width:60.000000; stroke-opacity:1; 
stroke-linecap:round; stroke-linejoin:round;fill:none"
d="M 44700.000000,24000.000000
45000.000000,23500.000000
" /> 
<path style="fill:#840000; fill-opacity:0.0; 
stroke:#840000; stroke-width:60.000000; stroke-opacity:1; 
stroke-linecap:round; stroke-linejoin:round;fill:none"
d="M 45000.000000,24500.000000
45000.000000,23500.000000
" /> 
<path style="fill:#840000; fill-opacity:0.0; 
stroke:#840000; stroke-width:60.000000; stroke-opacity:1; 
stroke-linecap:round; stroke-linejoin:round;fill:none"
d="M 45000.000000,23500.000000
45300.000000,24000.000000
" /> 
</g>
<g style="fill:#006464; fill-opacity:0.0; 
stroke:#006464; stroke-width:60.000000; stroke-opacity:1; 
stroke-linecap:round; stroke-linejoin:round;">
<text x="45000.000000" y="22749.960630"
textLength="1583.818898" font-size="666.653543" lengthAdjust="spacingAndGlyphs"
text-anchor="middle" opacity="0">+5V</text>
<g class="stroked-text"><desc>+5V</desc>
<path d="M44357 22535
L44738 22535
" />
<path d="M44547 22726
L44547 22345
" />
<path d="M45214 22226
L44976 22226
L44952 22464
L44976 22440
L45023 22416
L45142 22416
L45190 22440
L45214 22464
L45238 22511
L45238 22630
L45214 22678
L45190 22702
L45142 22726
L45023 22726
L44976 22702
L44952 22678
" />
<path d="M45380 22226
L45547 22726
L45714 22226
" />
</g></g>
</g>
<g style="fill:#006464; fill-opacity:0.0; 
stroke:#006464; stroke-width:60.000000; stroke-opacity:1; 
stroke-linecap:round; stroke-linejoin:round;">
<g >
</g>
<g style="fill:#840000; fill-opacity:0.0; 
stroke:#840000; stroke-width:60.000000; stroke-opacity:1; 
stroke-linecap:round; stroke-linejoin:round;">
</g>
<g style="fill:#FFFFC2; fill-opacity:0.0; 
stroke:#FFFFC2; stroke-width:60.000000; stroke-opacity:1; 
stroke-linecap:round; stroke-linejoin:round;">
</g>
<g style="fill:#FFFFC2; fill-opacity:0.6; 
stroke:#FFFFC2; stroke-width:0.039370; stroke-opacity:1; 
stroke-linecap:round; stroke-linejoin:round;">
<rect x="40500.000000" y="24000.000000" width="2000.000000" height="20000.000000" rx="0.000000" />
</g>
<g style="fill:#840000; fill-opacity:0.6; 
stroke:#840000; stroke-width:0.039370; stroke-opacity:1; 
stroke-linecap:round; stroke-linejoin:round;">
</g>
<g style="fill:#840000; fill-opacity:0.0; 
stroke:#840000; stroke-width:100.000000; stroke-opacity:1; 
stroke-linecap:round; stroke-linejoin:round;">
<rect x="40500.000000" y="24000.000000" width="2000.000000" height="20000.000000" rx="0.000000" />
</g>
<g style="fill:#840000; fill-opacity:0.0; 
stroke:#840000; stroke-width:60.000000; stroke-opacity:1; 
stroke-linecap:round; stroke-linejoin:round;">
<rect x="40500.000000" y="43450.000000" width="500.000000" height="100.000000" rx="0.000000" />
<rect x="40500.000000" y="42450.000000" width="500.000000" height="100.000000" rx="0.000000" />
<rect x="40500.000000" y="41450.000000" width="500.000000" height="100.000000" rx="0.000000" />
<rect x="40500.000000" y="40450.000000" width="500.000000" height="100.000000" rx="0.000000" />
<rect x="40500.000000" y="39450.000000" width="500.000000" height="100.000000" rx="0.000000" />
<rect x="40500.000000" y="38450.000000" width="500.000000" height="100.000000" rx="0.000000" />
<rect x="40500.000000" y="37450.000000" width="500.000000" height="100.000000" rx="0.000000" />
<rect x="40500.000000" y="36450.000000" width="500.000000" height="100.000000" rx="0.000000" />
<rect x="40500.000000" y="35450.000000" width="500.000000" height="100.000000" rx="0.000000" />
<rect x="40500.000000" y="34450.000000" width="500.000000" height="100.000000" rx="0.000000" />
<rect x="40500.000000" y="33450.000000" width="500.000000" height="100.000000" rx="0.000000" />
<rect x="40500.000000" y="32450.000000" width="500.000000" height="100.000000" rx="0.000000" />
<rect x="40500.000000" y="31450.000000" width="500.000000" height="100.000000" rx="0.000000" />
<rect x="40500.000000" y="30450.000000" width="500.000000" height="100.000000" rx="0.000000" />
<rect x="40500.000000" y="29450.000000" width="500.000000" height="100.000000" rx="0.000000" />
<rect x="40500.000000" y="28450.000000" width="500.000000" height="100.000000" rx="0.000000" />
<rect x="40500.000000" y="27450.000000" width="500.000000" height="100.000000" rx="0.000000" />
<rect x="40500.000000" y="26450.000000" width="500.000000" height="100.000000" rx="0.000000" />
<rect x="40500.000000" y="25450.000000" width="500.000000" height="100.000000" rx="0.000000" />
<rect x="40500.000000" y="24450.000000" width="500.000000" height="100.000000" rx="0.000000" />
</g>
<g style="fill:#840000; fill-opacity:0.0; 
stroke:#840000; stroke-width:100.000000; stroke-opacity:1; 
stroke-linecap:round; stroke-linejoin:round;">
<rect x="40500.000000" y="24000.000000" width="2000.000000" height="20000.000000" rx="0.000000" />
</g>
<g style="fill:#840000; fill-opacity:0.0; 
stroke:#840000; stroke-width:60.000000; stroke-opacity:1; 
stroke-linecap:round; stroke-linejoin:round;">
<rect x="42000.000000" y="43450.000000" width="500.000000" height="100.000000" rx="0.000000" />
<rect x="42000.000000" y="42450.000000" width="500.000000" height="100.000000" rx="0.000000" />
<rect x="42000.000000" y="41450.000000" width="500.000000" height="100.000000" rx="0.000000" />
<rect x="42000.000000" y="40450.000000" width="500.000000" height="100.000000" rx="0.000000" />
<rect x="42000.000000" y="39450.000000" width="500.000000" height="100.000000" rx="0.000000" />
<rect x="42000.000000" y="38450.000000" width="500.000000" height="100.000000" rx="0.000000" />
<rect x="42000.000000" y="37450.000000" width="500.000000" height="100.000000" rx="0.000000" />
<rect x="42000.000000" y="36450.000000" width="500.000000" height="100.000000" rx="0.000000" />
<rect x="42000.000000" y="35450.000000" width="500.000000" height="100.000000" rx="0.000000" />
<rect x="42000.000000" y="34450.000000" width="500.000000" height="100.000000" rx="0.000000" />
<rect x="42000.000000" y="33450.000000" width="500.000000" height="100.000000" rx="0.000000" />
<rect x="42000.000000" y="32450.000000" width="500.000000" height="100.000000" rx="0.000000" />
<rect x="42000.000000" y="31450.000000" width="500.000000" height="100.000000" rx="0.000000" />
<rect x="42000.000000" y="30450.000000" width="500.000000" height="100.000000" rx="0.000000" />
<rect x="42000.000000" y="29450.000000" width="500.000000" height="100.000000" rx="0.000000" />
<rect x="42000.000000" y="28450.000000" width="500.000000" height="100.000000" rx="0.000000" />
<rect x="42000.000000" y="27450.000000" width="500.000000" height="100.000000" rx="0.000000" />
<rect x="42000.000000" y="26450.000000" width="500.000000" height="100.000000" rx="0.000000" />
<rect x="42000.000000" y="25450.000000" width="500.000000" height="100.000000" rx="0.000000" />
<rect x="42000.000000" y="24450.000000" width="500.000000" height="100.000000" rx="0.000000" />
<path d="M40500 24500
L39000 24500
" />
</g>
<g style="fill:#A90000; fill-opacity:0.0; 
stroke:#A90000; stroke-width:60.000000; stroke-opacity:1; 
stroke-linecap:round; stroke-linejoin:round;">
<text x="39750.000000" y="24400.000000"
textLength="536.181102" font-size="666.653543" lengthAdjust="spacingAndGlyphs"
text-anchor="middle" opacity="0">1</text>
<g class="stroked-text"><desc>1</desc>
<path d="M39892 24376
L39607 24376
" />
<path d="M39750 24376
L39750 23876
L39702 23947
L39654 23995
L39607 24019
" />
</g></g>
<g style="fill:#840000; fill-opacity:0.0; 
stroke:#840000; stroke-width:60.000000; stroke-opacity:1; 
stroke-linecap:round; stroke-linejoin:round;">
<path d="M42500 28500
L44000 28500
" />
</g>
<g style="fill:#A90000; fill-opacity:0.0; 
stroke:#A90000; stroke-width:60.000000; stroke-opacity:1; 
stroke-linecap:round; stroke-linejoin:round;">
<text x="43250.000000" y="28400.000000"
textLength="1012.362205" font-size="666.653543" lengthAdjust="spacingAndGlyphs"
text-anchor="middle" opacity="0">10</text>
<g class="stroked-text"><desc>10</desc>
<path d="M43154 28376
L42869 28376
" />
<path d="M43011 28376
L43011 27876
L42964 27947
L42916 27995
L42869 28019
" />
<path d="M43464 27876
L43511 27876
L43559 27900
L43583 27923
L43607 27971
L43630 28066
L43630 28185
L43607 28280
L43583 28328
L43559 28352
L43511 28376
L43464 28376
L43416 28352
L43392 28328
L43369 28280
L43345 28185
L43345 28066
L43369 27971
L43392 27923
L43416 27900
L43464 27876
" />
</g></g>
<g style="fill:#840000; fill-opacity:0.0; 
stroke:#840000; stroke-width:60.000000; stroke-opacity:1; 
stroke-linecap:round; stroke-linejoin:round;">
<path d="M40500 29500
L39000 29500
" />
</g>
<g style="fill:#A90000; fill-opacity:0.0; 
stroke:#A90000; stroke-width:60.000000; stroke-opacity:1; 
stroke-linecap:round; stroke-linejoin:round;">
<text x="39750.000000" y="29400.000000"
textLength="1012.362205" font-size="666.653543" lengthAdjust="spacingAndGlyphs"
text-anchor="middle" opacity="0">11</text>
<g class="stroked-text"><desc>11</desc>
<path d="M39654 29376
L39369 29376
" />
<path d="M39511 29376
L39511 28876
L39464 28947
L39416 28995
L39369 29019
" />
<path d="M40130 29376
L39845 29376
" />
<path d="M39988 29376
L39988 28876
L39940 28947
L39892 28995
L39845 29019
" />
</g></g>
<g style="fill:#840000; fill-opacity:0.0; 
stroke:#840000; stroke-width:60.000000; stroke-opacity:1; 
stroke-linecap:round; stroke-linejoin:round;">
<path d="M42500 29500
L44000 29500
" />
</g>
<g style="fill:#A90000; fill-opacity:0.0; 
stroke:#A90000; stroke-width:60.000000; stroke-opacity:1; 
stroke-linecap:round; stroke-linejoin:round;">
<text x="43250.000000" y="29400.000000"
textLength="1012.362205" font-size="666.653543" lengthAdjust="spacingAndGlyphs"
text-anchor="middle" opacity="0">12</text>
<g class="stroked-text"><desc>12</desc>
<path d="M43154 29376
L42869 29376
" />
<path d="M43011 29376
L43011 28876
L42964 28947
L42916 28995
L42869 29019
" />
<path d="M43345 28923
L43369 28900
L43416 28876
L43535 28876
L43583 28900
L43607 28923
L43630 28971
L43630 29019
L43607 29090
L43321 29376
L43630 29376
" />
</g></g>
<g style="fill:#840000; fill-opacity:0.0; 
stroke:#840000; stroke-width:60.000000; stroke-opacity:1; 
stroke-linecap:round; stroke-linejoin:round;">
<path d="M40500 30500
L39000 30500
" />
</g>
<g style="fill:#A90000; fill-opacity:0.0; 
stroke:#A90000; stroke-width:60.000000; stroke-opacity:1; 
stroke-linecap:round; stroke-linejoin:round;">
<text x="39750.000000" y="30400.000000"
textLength="1012.362205" font-size="666.653543" lengthAdjust="spacingAndGlyphs"
text-anchor="middle" opacity="0">13</text>
<g class="stroked-text"><desc>13</desc>
<path d="M39654 30376
L39369 30376
" />
<path d="M39511 30376
L39511 29876
L39464 29947
L39416 29995
L39369 30019
" />
<path d="M39821 29876
L40130 29876
L39964 30066
L40035 30066
L40083 30090
L40107 30114
L40130 30161
L40130 30280
L40107 30328
L40083 30352
L40035 30376
L39892 30376
L39845 30352
L39821 30328
" />
</g></g>
<g style="fill:#840000; fill-opacity:0.0; 
stroke:#840000; stroke-width:60.000000; stroke-opacity:1; 
stroke-linecap:round; stroke-linejoin:round;">
<path d="M42500 30500
L44000 30500
" />
</g>
<g style="fill:#A90000; fill-opacity:0.0; 
stroke:#A90000; stroke-width:60.000000; stroke-opacity:1; 
stroke-linecap:round; stroke-linejoin:round;">
<text x="43250.000000" y="30400.000000"
textLength="1012.362205" font-size="666.653543" lengthAdjust="spacingAndGlyphs"
text-anchor="middle" opacity="0">14</text>
<g class="stroked-text"><desc>14</desc>
<path d="M43154 30376
L42869 30376
" />
<path d="M43011 30376
L43011 29876
L42964 29947
L42916 29995
L42869 30019
" />
<path d="M43583 30042
L43583 30376
" />
<path d="M43464 29852
L43345 30209
L43654 30209
" />
</g></g>
<g style="fill:#840000; fill-opacity:0.0; 
stroke:#840000; stroke-width:60.000000; stroke-opacity:1; 
stroke-linecap:round; stroke-linejoin:round;">
<path d="M40500 31500
L39000 31500
" />
</g>
<g style="fill:#A90000; fill-opacity:0.0; 
stroke:#A90000; stroke-width:60.000000; stroke-opacity:1; 
stroke-linecap:round; stroke-linejoin:round;">
<text x="39750.000000" y="31400.000000"
textLength="1012.362205" font-size="666.653543" lengthAdjust="spacingAndGlyphs"
text-anchor="middle" opacity="0">15</text>
<g class="stroked-text"><desc>15</desc>
<path d="M39654 31376
L39369 31376
" />
<path d="M39511 31376
L39511 30876
L39464 30947
L39416 30995
L39369 31019
" />
<path d="M40107 30876
L39869 30876
L39845 31114
L39869 31090
L39916 31066
L40035 31066
L40083 31090
L40107 31114
L40130 31161
L40130 31280
L40107 31328
L40083 31352
L40035 31376
L39916 31376
L39869 31352
L39845 31328
" />
</g></g>
<g style="fill:#840000; fill-opacity:0.0; 
stroke:#840000; stroke-width:60.000000; stroke-opacity:1; 
stroke-linecap:round; stroke-linejoin:round;">
<path d="M42500 31500
L44000 31500
" />
</g>
<g style="fill:#A90000; fill-opacity:0.0; 
stroke:#A90000; stroke-width:60.000000; stroke-opacity:1; 
stroke-linecap:round; stroke-linejoin:round;">
<text x="43250.000000" y="31400.000000"
textLength="1012.362205" font-size="666.653543" lengthAdjust="spacingAndGlyphs"
text-anchor="middle" opacity="0">16</text>
<g class="stroked-text"><desc>16</desc>
<path d="M43154 31376
L42869 31376
" />
<path d="M43011 31376
L43011 30876
L42964 30947
L42916 30995
L42869 31019
" />
<path d="M43583 30876
L43488 30876
L43440 30900
L43416 30923
L43369 30995
L43345 31090
L43345 31280
L43369 31328
L43392 31352
L43440 31376
L43535 31376
L43583 31352
L43607 31328
L43630 31280
L43630 31161
L43607 31114
L43583 31090
L43535 31066
L43440 31066
L43392 31090
L43369 31114
L43345 31161
" />
</g></g>
<g style="fill:#840000; fill-opacity:0.0; 
stroke:#840000; stroke-width:60.000000; stroke-opacity:1; 
stroke-linecap:round; stroke-linejoin:round;">
<path d="M40500 32500
L39000 32500
" />
</g>
<g style="fill:#A90000; fill-opacity:0.0; 
stroke:#A90000; stroke-width:60.000000; stroke-opacity:1; 
stroke-linecap:round; stroke-linejoin:round;">
<text x="39750.000000" y="32400.000000"
textLength="1012.362205" font-size="666.653543" lengthAdjust="spacingAndGlyphs"
text-anchor="middle" opacity="0">17</text>
<g class="stroked-text"><desc>17</desc>
<path d="M39654 32376
L39369 32376
" />
<path d="M39511 32376
L39511 31876
L39464 31947
L39416 31995
L39369 32019
" />
<path d="M39821 31876
L40154 31876
L39940 32376
" />
</g></g>
<g style="fill:#840000; fill-opacity:0.0; 
stroke:#840000; stroke-width:60.000000; stroke-opacity:1; 
stroke-linecap:round; stroke-linejoin:round;">
<path d="M42500 32500
L44000 32500
" />
</g>
<g style="fill:#A90000; fill-opacity:0.0; 
stroke:#A90000; stroke-width:60.000000; stroke-opacity:1; 
stroke-linecap:round; stroke-linejoin:round;">
<text x="43250.000000" y="32400.000000"
textLength="1012.362205" font-size="666.653543" lengthAdjust="spacingAndGlyphs"
text-anchor="middle" opacity="0">18</text>
<g class="stroked-text"><desc>18</desc>
<path d="M43154 32376
L42869 32376
" />
<path d="M43011 32376
L43011 31876
L42964 31947
L42916 31995
L42869 32019
" />
<path d="M43440 32090
L43392 32066
L43369 32042
L43345 31995
L43345 31971
L43369 31923
L43392 31900
L43440 31876
L43535 31876
L43583 31900
L43607 31923
L43630 31971
L43630 31995
L43607 32042
L43583 32066
L43535 32090
L43440 32090
L43392 32114
L43369 32138
L43345 32185
L43345 32280
L43369 32328
L43392 32352
L43440 32376
L43535 32376
L43583 32352
L43607 32328
L43630 32280
L43630 32185
L43607 32138
L43583 32114
L43535 32090
" />
</g></g>
<g style="fill:#840000; fill-opacity:0.0; 
stroke:#840000; stroke-width:60.000000; stroke-opacity:1; 
stroke-linecap:round; stroke-linejoin:round;">
<path d="M40500 33500
L39000 33500
" />
</g>
<g style="fill:#A90000; fill-opacity:0.0; 
stroke:#A90000; stroke-width:60.000000; stroke-opacity:1; 
stroke-linecap:round; stroke-linejoin:round;">
<text x="39750.000000" y="33400.000000"
textLength="1012.362205" font-size="666.653543" lengthAdjust="spacingAndGlyphs"
text-anchor="middle" opacity="0">19</text>
<g class="stroked-text"><desc>19</desc>
<path d="M39654 33376
L39369 33376
" />
<path d="M39511 33376
L39511 32876
L39464 32947
L39416 32995
L39369 33019
" />
<path d="M39892 33376
L39988 33376
L40035 33352
L40059 33328
L40107 33257
L40130 33161
L40130 32971
L40107 32923
L40083 32900
L40035 32876
L39940 32876
L39892 32900
L39869 32923
L39845 32971
L39845 33090
L39869 33138
L39892 33161
L39940 33185
L40035 33185
L40083 33161
L40107 33138
L40130 33090
" />
</g></g>
<g style="fill:#840000; fill-opacity:0.0; 
stroke:#840000; stroke-width:60.000000; stroke-opacity:1; 
stroke-linecap:round; stroke-linejoin:round;">
<path d="M42500 24500
L44000 24500
" />
</g>
<g style="fill:#A90000; fill-opacity:0.0; 
stroke:#A90000; stroke-width:60.000000; stroke-opacity:1; 
stroke-linecap:round; stroke-linejoin:round;">
<text x="43250.000000" y="24400.000000"
textLength="536.181102" font-size="666.653543" lengthAdjust="spacingAndGlyphs"
text-anchor="middle" opacity="0">2</text>
<g class="stroked-text"><desc>2</desc>
<path d="M43107 23923
L43130 23900
L43178 23876
L43297 23876
L43345 23900
L43369 23923
L43392 23971
L43392 24019
L43369 24090
L43083 24376
L43392 24376
" />
</g></g>
<g style="fill:#840000; fill-opacity:0.0; 
stroke:#840000; stroke-width:60.000000; stroke-opacity:1; 
stroke-linecap:round; stroke-linejoin:round;">
<path d="M42500 33500
L44000 33500
" />
</g>
<g style="fill:#A90000; fill-opacity:0.0; 
stroke:#A90000; stroke-width:60.000000; stroke-opacity:1; 
stroke-linecap:round; stroke-linejoin:round;">
<text x="43250.000000" y="33400.000000"
textLength="1012.362205" font-size="666.653543" lengthAdjust="spacingAndGlyphs"
text-anchor="middle" opacity="0">20</text>
<g class="stroked-text"><desc>20</desc>
<path d="M42869 32923
L42892 32900
L42940 32876
L43059 32876
L43107 32900
L43130 32923
L43154 32971
L43154 33019
L43130 33090
L42845 33376
L43154 33376
" />
<path d="M43464 32876
L43511 32876
L43559 32900
L43583 32923
L43607 32971
L43630 33066
L43630 33185
L43607 33280
L43583 33328
L43559 33352
L43511 33376
L43464 33376
L43416 33352
L43392 33328
L43369 33280
L43345 33185
L43345 33066
L43369 32971
L43392 32923
L43416 32900
L43464 32876
" />
</g></g>
<g style="fill:#840000; fill-opacity:0.0; 
stroke:#840000; stroke-width:60.000000; stroke-opacity:1; 
stroke-linecap:round; stroke-linejoin:round;">
<path d="M40500 34500
L39000 34500
" />
</g>
<g style="fill:#A90000; fill-opacity:0.0; 
stroke:#A90000; stroke-width:60.000000; stroke-opacity:1; 
stroke-linecap:round; stroke-linejoin:round;">
<text x="39750.000000" y="34400.000000"
textLength="1012.362205" font-size="666.653543" lengthAdjust="spacingAndGlyphs"
text-anchor="middle" opacity="0">21</text>
<g class="stroked-text"><desc>21</desc>
<path d="M39369 33923
L39392 33900
L39440 33876
L39559 33876
L39607 33900
L39630 33923
L39654 33971
L39654 34019
L39630 34090
L39345 34376
L39654 34376
" />
<path d="M40130 34376
L39845 34376
" />
<path d="M39988 34376
L39988 33876
L39940 33947
L39892 33995
L39845 34019
" />
</g></g>
<g style="fill:#840000; fill-opacity:0.0; 
stroke:#840000; stroke-width:60.000000; stroke-opacity:1; 
stroke-linecap:round; stroke-linejoin:round;">
<path d="M42500 34500
L44000 34500
" />
</g>
<g style="fill:#A90000; fill-opacity:0.0; 
stroke:#A90000; stroke-width:60.000000; stroke-opacity:1; 
stroke-linecap:round; stroke-linejoin:round;">
<text x="43250.000000" y="34400.000000"
textLength="1012.362205" font-size="666.653543" lengthAdjust="spacingAndGlyphs"
text-anchor="middle" opacity="0">22</text>
<g class="stroked-text"><desc>22</desc>
<path d="M42869 33923
L42892 33900
L42940 33876
L43059 33876
L43107 33900
L43130 33923
L43154 33971
L43154 34019
L43130 34090
L42845 34376
L43154 34376
" />
<path d="M43345 33923
L43369 33900
L43416 33876
L43535 33876
L43583 33900
L43607 33923
L43630 33971
L43630 34019
L43607 34090
L43321 34376
L43630 34376
" />
</g></g>
<g style="fill:#840000; fill-opacity:0.0; 
stroke:#840000; stroke-width:60.000000; stroke-opacity:1; 
stroke-linecap:round; stroke-linejoin:round;">
<path d="M40500 35500
L39000 35500
" />
</g>
<g style="fill:#A90000; fill-opacity:0.0; 
stroke:#A90000; stroke-width:60.000000; stroke-opacity:1; 
stroke-linecap:round; stroke-linejoin:round;">
<text x="39750.000000" y="35400.000000"
textLength="1012.362205" font-size="666.653543" lengthAdjust="spacingAndGlyphs"
text-anchor="middle" opacity="0">23</text>
<g class="stroked-text"><desc>23</desc>
<path d="M39369 34923
L39392 34900
L39440 34876
L39559 34876
L39607 34900
L39630 34923
L39654 34971
L39654 35019
L39630 35090
L39345 35376
L39654 35376
" />
<path d="M39821 34876
L40130 34876
L39964 35066
L40035 35066
L40083 35090
L40107 35114
L40130 35161
L40130 35280
L40107 35328
L40083 35352
L40035 35376
L39892 35376
L39845 35352
L39821 35328
" />
</g></g>
<g style="fill:#840000; fill-opacity:0.0; 
stroke:#840000; stroke-width:60.000000; stroke-opacity:1; 
stroke-linecap:round; stroke-linejoin:round;">
<path d="M42500 35500
L44000 35500
" />
</g>
<g style="fill:#A90000; fill-opacity:0.0; 
stroke:#A90000; stroke-width:60.000000; stroke-opacity:1; 
stroke-linecap:round; stroke-linejoin:round;">
<text x="43250.000000" y="35400.000000"
textLength="1012.362205" font-size="666.653543" lengthAdjust="spacingAndGlyphs"
text-anchor="middle" opacity="0">24</text>
<g class="stroked-text"><desc>24</desc>
<path d="M42869 34923
L42892 34900
L42940 34876
L43059 34876
L43107 34900
L43130 34923
L43154 34971
L43154 35019
L43130 35090
L42845 35376
L43154 35376
" />
<path d="M43583 35042
L43583 35376
" />
<path d="M43464 34852
L43345 35209
L43654 35209
" />
</g></g>
<g style="fill:#840000; fill-opacity:0.0; 
stroke:#840000; stroke-width:60.000000; stroke-opacity:1; 
stroke-linecap:round; stroke-linejoin:round;">
<path d="M40500 36500
L39000 36500
" />
</g>
<g style="fill:#A90000; fill-opacity:0.0; 
stroke:#A90000; stroke-width:60.000000; stroke-opacity:1; 
stroke-linecap:round; stroke-linejoin:round;">
<text x="39750.000000" y="36400.000000"
textLength="1012.362205" font-size="666.653543" lengthAdjust="spacingAndGlyphs"
text-anchor="middle" opacity="0">25</text>
<g class="stroked-text"><desc>25</desc>
<path d="M39369 35923
L39392 35900
L39440 35876
L39559 35876
L39607 35900
L39630 35923
L39654 35971
L39654 36019
L39630 36090
L39345 36376
L39654 36376
" />
<path d="M40107 35876
L39869 35876
L39845 36114
L39869 36090
L39916 36066
L40035 36066
L40083 36090
L40107 36114
L40130 36161
L40130 36280
L40107 36328
L40083 36352
L40035 36376
L39916 36376
L39869 36352
L39845 36328
" />
</g></g>
<g style="fill:#840000; fill-opacity:0.0; 
stroke:#840000; stroke-width:60.000000; stroke-opacity:1; 
stroke-linecap:round; stroke-linejoin:round;">
<path d="M42500 36500
L44000 36500
" />
</g>
<g style="fill:#A90000; fill-opacity:0.0; 
stroke:#A90000; stroke-width:60.000000; stroke-opacity:1; 
stroke-linecap:round; stroke-linejoin:round;">
<text x="43250.000000" y="36400.000000"
textLength="1012.362205" font-size="666.653543" lengthAdjust="spacingAndGlyphs"
text-anchor="middle" opacity="0">26</text>
<g class="stroked-text"><desc>26</desc>
<path d="M42869 35923
L42892 35900
L42940 35876
L43059 35876
L43107 35900
L43130 35923
L43154 35971
L43154 36019
L43130 36090
L42845 36376
L43154 36376
" />
<path d="M43583 35876
L43488 35876
L43440 35900
L43416 35923
L43369 35995
L43345 36090
L43345 36280
L43369 36328
L43392 36352
L43440 36376
L43535 36376
L43583 36352
L43607 36328
L43630 36280
L43630 36161
L43607 36114
L43583 36090
L43535 36066
L43440 36066
L43392 36090
L43369 36114
L43345 36161
" />
</g></g>
<g style="fill:#840000; fill-opacity:0.0; 
stroke:#840000; stroke-width:60.000000; stroke-opacity:1; 
stroke-linecap:round; stroke-linejoin:round;">
<path d="M40500 37500
L39000 37500
" />
</g>
<g style="fill:#A90000; fill-opacity:0.0; 
stroke:#A90000; stroke-width:60.000000; stroke-opacity:1; 
stroke-linecap:round; stroke-linejoin:round;">
<text x="39750.000000" y="37400.000000"
textLength="1012.362205" font-size="666.653543" lengthAdjust="spacingAndGlyphs"
text-anchor="middle" opacity="0">27</text>
<g class="stroked-text"><desc>27</desc>
<path d="M39369 36923
L39392 36900
L39440 36876
L39559 36876
L39607 36900
L39630 36923
L39654 36971
L39654 37019
L39630 37090
L39345 37376
L39654 37376
" />
<path d="M39821 36876
L40154 36876
L39940 37376
" />
</g></g>
<g style="fill:#840000; fill-opacity:0.0; 
stroke:#840000; stroke-width:60.000000; stroke-opacity:1; 
stroke-linecap:round; stroke-linejoin:round;">
<path d="M42500 37500
L44000 37500
" />
</g>
<g style="fill:#A90000; fill-opacity:0.0; 
stroke:#A90000; stroke-width:60.000000; stroke-opacity:1; 
stroke-linecap:round; stroke-linejoin:round;">
<text x="43250.000000" y="37400.000000"
textLength="1012.362205" font-size="666.653543" lengthAdjust="spacingAndGlyphs"
text-anchor="middle" opacity="0">28</text>
<g class="stroked-text"><desc>28</desc>
<path d="M42869 36923
L42892 36900
L42940 36876
L43059 36876
L43107 36900
L43130 36923
L43154 36971
L43154 37019
L43130 37090
L42845 37376
L43154 37376
" />
<path d="M43440 37090
L43392 37066
L43369 37042
L43345 36995
L43345 36971
L43369 36923
L43392 36900
L43440 36876
L43535 36876
L43583 36900
L43607 36923
L43630 36971
L43630 36995
L43607 37042
L43583 37066
L43535 37090
L43440 37090
L43392 37114
L43369 37138
L43345 37185
L43345 37280
L43369 37328
L43392 37352
L43440 37376
L43535 37376
L43583 37352
L43607 37328
L43630 37280
L43630 37185
L43607 37138
L43583 37114
L43535 37090
" />
</g></g>
<g style="fill:#840000; fill-opacity:0.0; 
stroke:#840000; stroke-width:60.000000; stroke-opacity:1; 
stroke-linecap:round; stroke-linejoin:round;">
<path d="M40500 38500
L39000 38500
" />
</g>
<g style="fill:#A90000; fill-opacity:0.0; 
stroke:#A90000; stroke-width:60.000000; stroke-opacity:1; 
stroke-linecap:round; stroke-linejoin:round;">
<text x="39750.000000" y="38400.000000"
textLength="1012.362205" font-size="666.653543" lengthAdjust="spacingAndGlyphs"
text-anchor="middle" opacity="0">29</text>
<g class="stroked-text"><desc>29</desc>
<path d="M39369 37923
L39392 37900
L39440 37876
L39559 37876
L39607 37900
L39630 37923
L39654 37971
L39654 38019
L39630 38090
L39345 38376
L39654 38376
" />
<path d="M39892 38376
L39988 38376
L40035 38352
L40059 38328
L40107 38257
L40130 38161
L40130 37971
L40107 37923
L40083 37900
L40035 37876
L39940 37876
L39892 37900
L39869 37923
L39845 37971
L39845 38090
L39869 38138
L39892 38161
L39940 38185
L40035 38185
L40083 38161
L40107 38138
L40130 38090
" />
</g></g>
<g style="fill:#840000; fill-opacity:0.0; 
stroke:#840000; stroke-width:60.000000; stroke-opacity:1; 
stroke-linecap:round; stroke-linejoin:round;">
<path d="M40500 25500
L39000 25500
" />
</g>
<g style="fill:#A90000; fill-opacity:0.0; 
stroke:#A90000; stroke-width:60.000000; stroke-opacity:1; 
stroke-linecap:round; stroke-linejoin:round;">
<text x="39750.000000" y="25400.000000"
textLength="536.181102" font-size="666.653543" lengthAdjust="spacingAndGlyphs"
text-anchor="middle" opacity="0">3</text>
<g class="stroked-text"><desc>3</desc>
<path d="M39583 24876
L39892 24876
L39726 25066
L39797 25066
L39845 25090
L39869 25114
L39892 25161
L39892 25280
L39869 25328
L39845 25352
L39797 25376
L39654 25376
L39607 25352
L39583 25328
" />
</g></g>
<g style="fill:#840000; fill-opacity:0.0; 
stroke:#840000; stroke-width:60.000000; stroke-opacity:1; 
stroke-linecap:round; stroke-linejoin:round;">
<path d="M42500 38500
L44000 38500
" />
</g>
<g style="fill:#A90000; fill-opacity:0.0; 
stroke:#A90000; stroke-width:60.000000; stroke-opacity:1; 
stroke-linecap:round; stroke-linejoin:round;">
<text x="43250.000000" y="38400.000000"
textLength="1012.362205" font-size="666.653543" lengthAdjust="spacingAndGlyphs"
text-anchor="middle" opacity="0">30</text>
<g class="stroked-text"><desc>30</desc>
<path d="M42845 37876
L43154 37876
L42988 38066
L43059 38066
L43107 38090
L43130 38114
L43154 38161
L43154 38280
L43130 38328
L43107 38352
L43059 38376
L42916 38376
L42869 38352
L42845 38328
" />
<path d="M43464 37876
L43511 37876
L43559 37900
L43583 37923
L43607 37971
L43630 38066
L43630 38185
L43607 38280
L43583 38328
L43559 38352
L43511 38376
L43464 38376
L43416 38352
L43392 38328
L43369 38280
L43345 38185
L43345 38066
L43369 37971
L43392 37923
L43416 37900
L43464 37876
" />
</g></g>
<g style="fill:#840000; fill-opacity:0.0; 
stroke:#840000; stroke-width:60.000000; stroke-opacity:1; 
stroke-linecap:round; stroke-linejoin:round;">
<path d="M40500 39500
L39000 39500
" />
</g>
<g style="fill:#A90000; fill-opacity:0.0; 
stroke:#A90000; stroke-width:60.000000; stroke-opacity:1; 
stroke-linecap:round; stroke-linejoin:round;">
<text x="39750.000000" y="39400.000000"
textLength="1012.362205" font-size="666.653543" lengthAdjust="spacingAndGlyphs"
text-anchor="middle" opacity="0">31</text>
<g class="stroked-text"><desc>31</desc>
<path d="M39345 38876
L39654 38876
L39488 39066
L39559 39066
L39607 39090
L39630 39114
L39654 39161
L39654 39280
L39630 39328
L39607 39352
L39559 39376
L39416 39376
L39369 39352
L39345 39328
" />
<path d="M40130 39376
L39845 39376
" />
<path d="M39988 39376
L39988 38876
L39940 38947
L39892 38995
L39845 39019
" />
</g></g>
<g style="fill:#840000; fill-opacity:0.0; 
stroke:#840000; stroke-width:60.000000; stroke-opacity:1; 
stroke-linecap:round; stroke-linejoin:round;">
<path d="M42500 39500
L44000 39500
" />
</g>
<g style="fill:#A90000; fill-opacity:0.0; 
stroke:#A90000; stroke-width:60.000000; stroke-opacity:1; 
stroke-linecap:round; stroke-linejoin:round;">
<text x="43250.000000" y="39400.000000"
textLength="1012.362205" font-size="666.653543" lengthAdjust="spacingAndGlyphs"
text-anchor="middle" opacity="0">32</text>
<g class="stroked-text"><desc>32</desc>
<path d="M42845 38876
L43154 38876
L42988 39066
L43059 39066
L43107 39090
L43130 39114
L43154 39161
L43154 39280
L43130 39328
L43107 39352
L43059 39376
L42916 39376
L42869 39352
L42845 39328
" />
<path d="M43345 38923
L43369 38900
L43416 38876
L43535 38876
L43583 38900
L43607 38923
L43630 38971
L43630 39019
L43607 39090
L43321 39376
L43630 39376
" />
</g></g>
<g style="fill:#840000; fill-opacity:0.0; 
stroke:#840000; stroke-width:60.000000; stroke-opacity:1; 
stroke-linecap:round; stroke-linejoin:round;">
<path d="M40500 40500
L39000 40500
" />
</g>
<g style="fill:#A90000; fill-opacity:0.0; 
stroke:#A90000; stroke-width:60.000000; stroke-opacity:1; 
stroke-linecap:round; stroke-linejoin:round;">
<text x="39750.000000" y="40400.000000"
textLength="1012.362205" font-size="666.653543" lengthAdjust="spacingAndGlyphs"
text-anchor="middle" opacity="0">33</text>
<g class="stroked-text"><desc>33</desc>
<path d="M39345 39876
L39654 39876
L39488 40066
L39559 40066
L39607 40090
L39630 40114
L39654 40161
L39654 40280
L39630 40328
L39607 40352
L39559 40376
L39416 40376
L39369 40352
L39345 40328
" />
<path d="M39821 39876
L40130 39876
L39964 40066
L40035 40066
L40083 40090
L40107 40114
L40130 40161
L40130 40280
L40107 40328
L40083 40352
L40035 40376
L39892 40376
L39845 40352
L39821 40328
" />
</g></g>
<g style="fill:#840000; fill-opacity:0.0; 
stroke:#840000; stroke-width:60.000000; stroke-opacity:1; 
stroke-linecap:round; stroke-linejoin:round;">
<path d="M42500 40500
L44000 40500
" />
</g>
<g style="fill:#A90000; fill-opacity:0.0; 
stroke:#A90000; stroke-width:60.000000; stroke-opacity:1; 
stroke-linecap:round; stroke-linejoin:round;">
<text x="43250.000000" y="40400.000000"
textLength="1012.362205" font-size="666.653543" lengthAdjust="spacingAndGlyphs"
text-anchor="middle" opacity="0">34</text>
<g class="stroked-text"><desc>34</desc>
<path d="M42845 39876
L43154 39876
L42988 40066
L43059 40066
L43107 40090
L43130 40114
L43154 40161
L43154 40280
L43130 40328
L43107 40352
L43059 40376
L42916 40376
L42869 40352
L42845 40328
" />
<path d="M43583 40042
L43583 40376
" />
<path d="M43464 39852
L43345 40209
L43654 40209
" />
</g></g>
<g style="fill:#840000; fill-opacity:0.0; 
stroke:#840000; stroke-width:60.000000; stroke-opacity:1; 
stroke-linecap:round; stroke-linejoin:round;">
<path d="M40500 41500
L39000 41500
" />
</g>
<g style="fill:#A90000; fill-opacity:0.0; 
stroke:#A90000; stroke-width:60.000000; stroke-opacity:1; 
stroke-linecap:round; stroke-linejoin:round;">
<text x="39750.000000" y="41400.000000"
textLength="1012.362205" font-size="666.653543" lengthAdjust="spacingAndGlyphs"
text-anchor="middle" opacity="0">35</text>
<g class="stroked-text"><desc>35</desc>
<path d="M39345 40876
L39654 40876
L39488 41066
L39559 41066
L39607 41090
L39630 41114
L39654 41161
L39654 41280
L39630 41328
L39607 41352
L39559 41376
L39416 41376
L39369 41352
L39345 41328
" />
<path d="M40107 40876
L39869 40876
L39845 41114
L39869 41090
L39916 41066
L40035 41066
L40083 41090
L40107 41114
L40130 41161
L40130 41280
L40107 41328
L40083 41352
L40035 41376
L39916 41376
L39869 41352
L39845 41328
" />
</g></g>
<g style="fill:#840000; fill-opacity:0.0; 
stroke:#840000; stroke-width:60.000000; stroke-opacity:1; 
stroke-linecap:round; stroke-linejoin:round;">
<path d="M42500 41500
L44000 41500
" />
</g>
<g style="fill:#A90000; fill-opacity:0.0; 
stroke:#A90000; stroke-width:60.000000; stroke-opacity:1; 
stroke-linecap:round; stroke-linejoin:round;">
<text x="43250.000000" y="41400.000000"
textLength="1012.362205" font-size="666.653543" lengthAdjust="spacingAndGlyphs"
text-anchor="middle" opacity="0">36</text>
<g class="stroked-text"><desc>36</desc>
<path d="M42845 40876
L43154 40876
L42988 41066
L43059 41066
L43107 41090
L43130 41114
L43154 41161
L43154 41280
L43130 41328
L43107 41352
L43059 41376
L42916 41376
L42869 41352
L42845 41328
" />
<path d="M43583 40876
L43488 40876
L43440 40900
L43416 40923
L43369 40995
L43345 41090
L43345 41280
L43369 41328
L43392 41352
L43440 41376
L43535 41376
L43583 41352
L43607 41328
L43630 41280
L43630 41161
L43607 41114
L43583 41090
L43535 41066
L43440 41066
L43392 41090
L43369 41114
L43345 41161
" />
</g></g>
<g style="fill:#840000; fill-opacity:0.0; 
stroke:#840000; stroke-width:60.000000; stroke-opacity:1; 
stroke-linecap:round; stroke-linejoin:round;">
<path d="M40500 42500
L39000 42500
" />
</g>
<g style="fill:#A90000; fill-opacity:0.0; 
stroke:#A90000; stroke-width:60.000000; stroke-opacity:1; 
stroke-linecap:round; stroke-linejoin:round;">
<text x="39750.000000" y="42400.000000"
textLength="1012.362205" font-size="666.653543" lengthAdjust="spacingAndGlyphs"
text-anchor="middle" opacity="0">37</text>
<g class="stroked-text"><desc>37</desc>
<path d="M39345 41876
L39654 41876
L39488 42066
L39559 42066
L39607 42090
L39630 42114
L39654 42161
L39654 42280
L39630 42328
L39607 42352
L39559 42376
L39416 42376
L39369 42352
L39345 42328
" />
<path d="M39821 41876
L40154 41876
L39940 42376
" />
</g></g>
<g style="fill:#840000; fill-opacity:0.0; 
stroke:#840000; stroke-width:60.000000; stroke-opacity:1; 
stroke-linecap:round; stroke-linejoin:round;">
<path d="M42500 42500
L44000 42500
" />
</g>
<g style="fill:#A90000; fill-opacity:0.0; 
stroke:#A90000; stroke-width:60.000000; stroke-opacity:1; 
stroke-linecap:round; stroke-linejoin:round;">
<text x="43250.000000" y="42400.000000"
textLength="1012.362205" font-size="666.653543" lengthAdjust="spacingAndGlyphs"
text-anchor="middle" opacity="0">38</text>
<g class="stroked-text"><desc>38</desc>
<path d="M42845 41876
L43154 41876
L42988 42066
L43059 42066
L43107 42090
L43130 42114
L43154 42161
L43154 42280
L43130 42328
L43107 42352
L43059 42376
L42916 42376
L42869 42352
L42845 42328
" />
<path d="M43440 42090
L43392 42066
L43369 42042
L43345 41995
L43345 41971
L43369 41923
L43392 41900
L43440 41876
L43535 41876
L43583 41900
L43607 41923
L43630 41971
L43630 41995
L43607 42042
L43583 42066
L43535 42090
L43440 42090
L43392 42114
L43369 42138
L43345 42185
L43345 42280
L43369 42328
L43392 42352
L43440 42376
L43535 42376
L43583 42352
L43607 42328
L43630 42280
L43630 42185
L43607 42138
L43583 42114
L43535 42090
" />
</g></g>
<g style="fill:#840000; fill-opacity:0.0; 
stroke:#840000; stroke-width:60.000000; stroke-opacity:1; 
stroke-linecap:round; stroke-linejoin:round;">
<path d="M40500 43500
L39000 43500
" />
</g>
<g style="fill:#A90000; fill-opacity:0.0; 
stroke:#A90000; stroke-width:60.000000; stroke-opacity:1; 
stroke-linecap:round; stroke-linejoin:round;">
<text x="39750.000000" y="43400.000000"
textLength="1012.362205" font-size="666.653543" lengthAdjust="spacingAndGlyphs"
text-anchor="middle" opacity="0">39</text>
<g class="stroked-text"><desc>39</desc>
<path d="M39345 42876
L39654 42876
L39488 43066
L39559 43066
L39607 43090
L39630 43114
L39654 43161
L39654 43280
L39630 43328
L39607 43352
L39559 43376
L39416 43376
L39369 43352
L39345 43328
" />
<path d="M39892 43376
L39988 43376
L40035 43352
L40059 43328
L40107 43257
L40130 43161
L40130 42971
L40107 42923
L40083 42900
L40035 42876
L39940 42876
L39892 42900
L39869 42923
L39845 42971
L39845 43090
L39869 43138
L39892 43161
L39940 43185
L40035 43185
L40083 43161
L40107 43138
L40130 43090
" />
</g></g>
<g style="fill:#840000; fill-opacity:0.0; 
stroke:#840000; stroke-width:60.000000; stroke-opacity:1; 
stroke-linecap:round; stroke-linejoin:round;">
<path d="M42500 25500
L44000 25500
" />
</g>
<g style="fill:#A90000; fill-opacity:0.0; 
stroke:#A90000; stroke-width:60.000000; stroke-opacity:1; 
stroke-linecap:round; stroke-linejoin:round;">
<text x="43250.000000" y="25400.000000"
textLength="536.181102" font-size="666.653543" lengthAdjust="spacingAndGlyphs"
text-anchor="middle" opacity="0">4</text>
<g class="stroked-text"><desc>4</desc>
<path d="M43345 25042
L43345 25376
" />
<path d="M43226 24852
L43107 25209
L43416 25209
" />
</g></g>
<g style="fill:#840000; fill-opacity:0.0; 
stroke:#840000; stroke-width:60.000000; stroke-opacity:1; 
stroke-linecap:round; stroke-linejoin:round;">
<path d="M42500 43500
L44000 43500
" />
</g>
<g style="fill:#A90000; fill-opacity:0.0; 
stroke:#A90000; stroke-width:60.000000; stroke-opacity:1; 
stroke-linecap:round; stroke-linejoin:round;">
<text x="43250.000000" y="43400.000000"
textLength="1012.362205" font-size="666.653543" lengthAdjust="spacingAndGlyphs"
text-anchor="middle" opacity="0">40</text>
<g class="stroked-text"><desc>40</desc>
<path d="M43107 43042
L43107 43376
" />
<path d="M42988 42852
L42869 43209
L43178 43209
" />
<path d="M43464 42876
L43511 42876
L43559 42900
L43583 42923
L43607 42971
L43630 43066
L43630 43185
L43607 43280
L43583 43328
L43559 43352
L43511 43376
L43464 43376
L43416 43352
L43392 43328
L43369 43280
L43345 43185
L43345 43066
L43369 42971
L43392 42923
L43416 42900
L43464 42876
" />
</g></g>
<g style="fill:#840000; fill-opacity:0.0; 
stroke:#840000; stroke-width:60.000000; stroke-opacity:1; 
stroke-linecap:round; stroke-linejoin:round;">
<path d="M40500 26500
L39000 26500
" />
</g>
<g style="fill:#A90000; fill-opacity:0.0; 
stroke:#A90000; stroke-width:60.000000; stroke-opacity:1; 
stroke-linecap:round; stroke-linejoin:round;">
<text x="39750.000000" y="26400.000000"
textLength="536.181102" font-size="666.653543" lengthAdjust="spacingAndGlyphs"
text-anchor="middle" opacity="0">5</text>
<g class="stroked-text"><desc>5</desc>
<path d="M39869 25876
L39630 25876
L39607 26114
L39630 26090
L39678 26066
L39797 26066
L39845 26090
L39869 26114
L39892 26161
L39892 26280
L39869 26328
L39845 26352
L39797 26376
L39678 26376
L39630 26352
L39607 26328
" />
</g></g>
<g style="fill:#840000; fill-opacity:0.0; 
stroke:#840000; stroke-width:60.000000; stroke-opacity:1; 
stroke-linecap:round; stroke-linejoin:round;">
<path d="M42500 26500
L44000 26500
" />
</g>
<g style="fill:#A90000; fill-opacity:0.0; 
stroke:#A90000; stroke-width:60.000000; stroke-opacity:1; 
stroke-linecap:round; stroke-linejoin:round;">
<text x="43250.000000" y="26400.000000"
textLength="536.181102" font-size="666.653543" lengthAdjust="spacingAndGlyphs"
text-anchor="middle" opacity="0">6</text>
<g class="stroked-text"><desc>6</desc>
<path d="M43345 25876
L43250 25876
L43202 25900
L43178 25923
L43130 25995
L43107 26090
L43107 26280
L43130 26328
L43154 26352
L43202 26376
L43297 26376
L43345 26352
L43369 26328
L43392 26280
L43392 26161
L43369 26114
L43345 26090
L43297 26066
L43202 26066
L43154 26090
L43130 26114
L43107 26161
" />
</g></g>
<g style="fill:#840000; fill-opacity:0.0; 
stroke:#840000; stroke-width:60.000000; stroke-opacity:1; 
stroke-linecap:round; stroke-linejoin:round;">
<path d="M40500 27500
L39000 27500
" />
</g>
<g style="fill:#A90000; fill-opacity:0.0; 
stroke:#A90000; stroke-width:60.000000; stroke-opacity:1; 
stroke-linecap:round; stroke-linejoin:round;">
<text x="39750.000000" y="27400.000000"
textLength="536.181102" font-size="666.653543" lengthAdjust="spacingAndGlyphs"
text-anchor="middle" opacity="0">7</text>
<g class="stroked-text"><desc>7</desc>
<path d="M39583 26876
L39916 26876
L39702 27376
" />
</g></g>
<g style="fill:#840000; fill-opacity:0.0; 
stroke:#840000; stroke-width:60.000000; stroke-opacity:1; 
stroke-linecap:round; stroke-linejoin:round;">
<path d="M42500 27500
L44000 27500
" />
</g>
<g style="fill:#A90000; fill-opacity:0.0; 
stroke:#A90000; stroke-width:60.000000; stroke-opacity:1; 
stroke-linecap:round; stroke-linejoin:round;">
<text x="43250.000000" y="27400.000000"
textLength="536.181102" font-size="666.653543" lengthAdjust="spacingAndGlyphs"
text-anchor="middle" opacity="0">8</text>
<g class="stroked-text"><desc>8</desc>
<path d="M43202 27090
L43154 27066
L43130 27042
L43107 26995
L43107 26971
L43130 26923
L43154 26900
L43202 26876
L43297 26876
L43345 26900
L43369 26923
L43392 26971
L43392 26995
L43369 27042
L43345 27066
L43297 27090
L43202 27090
L43154 27114
L43130 27138
L43107 27185
L43107 27280
L43130 27328
L43154 27352
L43202 27376
L43297 27376
L43345 27352
L43369 27328
L43392 27280
L43392 27185
L43369 27138
L43345 27114
L43297 27090
" />
</g></g>
<g style="fill:#840000; fill-opacity:0.0; 
stroke:#840000; stroke-width:60.000000; stroke-opacity:1; 
stroke-linecap:round; stroke-linejoin:round;">
<path d="M40500 28500
L39000 28500
" />
</g>
<g style="fill:#A90000; fill-opacity:0.0; 
stroke:#A90000; stroke-width:60.000000; stroke-opacity:1; 
stroke-linecap:round; stroke-linejoin:round;">
<text x="39750.000000" y="28400.000000"
textLength="536.181102" font-size="666.653543" lengthAdjust="spacingAndGlyphs"
text-anchor="middle" opacity="0">9</text>
<g class="stroked-text"><desc>9</desc>
<path d="M39654 28376
L39750 28376
L39797 28352
L39821 28328
L39869 28257
L39892 28161
L39892 27971
L39869 27923
L39845 27900
L39797 27876
L39702 27876
L39654 27900
L39630 27923
L39607 27971
L39607 28090
L39630 28138
L39654 28161
L39702 28185
L39797 28185
L39845 28161
L39869 28138
L39892 28090
" />
</g></g>
<g style="fill:#006464; fill-opacity:0.0; 
stroke:#006464; stroke-width:60.000000; stroke-opacity:1; 
stroke-linecap:round; stroke-linejoin:round;">
<text x="41500.000000" y="22249.960630"
textLength="1393.346457" font-size="666.653543" lengthAdjust="spacingAndGlyphs"
text-anchor="middle" opacity="0">J33</text>
<g class="stroked-text"><desc>J33</desc>
<path d="M41095 21726
L41095 22083
L41071 22154
L41023 22202
L40952 22226
L40904 22226
" />
<path d="M41285 21726
L41595 21726
L41428 21916
L41500 21916
L41547 21940
L41571 21964
L41595 22011
L41595 22130
L41571 22178
L41547 22202
L41500 22226
L41357 22226
L41309 22202
L41285 22178
" />
<path d="M41761 21726
L42071 21726
L41904 21916
L41976 21916
L42023 21940
L42047 21964
L42071 22011
L42071 22130
L42047 22178
L42023 22202
L41976 22226
L41833 22226
L41785 22202
L41761 22178
" />
</g><text x="41500.000000" y="23249.960630"
textLength="3060.000000" font-size="666.653543" lengthAdjust="spacingAndGlyphs"
text-anchor="middle" opacity="0">2540-5</text>
<g class="stroked-text"><desc>2540-5</desc>
<path d="M40095 22773
L40119 22749
L40166 22726
L40285 22726
L40333 22749
L40357 22773
L40380 22821
L40380 22868
L40357 22940
L40071 23226
L40380 23226
" />
<path d="M40833 22726
L40595 22726
L40571 22964
L40595 22940
L40642 22916
L40761 22916
L40809 22940
L40833 22964
L40857 23011
L40857 23130
L40833 23178
L40809 23202
L40761 23226
L40642 23226
L40595 23202
L40571 23178
" />
<path d="M41285 22892
L41285 23226
" />
<path d="M41166 22702
L41047 23059
L41357 23059
" />
<path d="M41642 22726
L41690 22726
L41738 22749
L41761 22773
L41785 22821
L41809 22916
L41809 23035
L41785 23130
L41761 23178
L41738 23202
L41690 23226
L41642 23226
L41595 23202
L41571 23178
L41547 23130
L41523 23035
L41523 22916
L41547 22821
L41571 22773
L41595 22749
L41642 22726
" />
<path d="M42023 23035
L42404 23035
" />
<path d="M42880 22726
L42642 22726
L42619 22964
L42642 22940
L42690 22916
L42809 22916
L42857 22940
L42880 22964
L42904 23011
L42904 23130
L42880 23178
L42857 23202
L42809 23226
L42690 23226
L42642 23202
L42619 23178
" />
</g></g>
</g>
<g style="fill:#006464; fill-opacity:0.0; 
stroke:#006464; stroke-width:60.000000; stroke-opacity:1; 
stroke-linecap:round; stroke-linejoin:round;">
<g >
</g>
<g style="fill:#840000; fill-opacity:0.0; 
stroke:#840000; stroke-width:60.000000; stroke-opacity:1; 
stroke-linecap:round; stroke-linejoin:round;">
</g>
<g style="fill:#840000; fill-opacity:0.0; 
stroke:#840000; stroke-width:100.000000; stroke-opacity:1; 
stroke-linecap:round; stroke-linejoin:round;">
<path style="fill:#840000; fill-opacity:0.0; 
stroke:#840000; stroke-width:100.000000; stroke-opacity:1; 
stroke-linecap:round; stroke-linejoin:round;fill:none"
d="M 32250.000000,39000.000000
32250.000000,38000.000000
" /> 
</g>
<g style="fill:#840000; fill-opacity:0.0; 
stroke:#840000; stroke-width:60.000000; stroke-opacity:1; 
stroke-linecap:round; stroke-linejoin:round;">
<path style="fill:#840000; fill-opacity:0.0; 
stroke:#840000; stroke-width:60.000000; stroke-opacity:1; 
stroke-linecap:round; stroke-linejoin:round;fill:none"
d="M 32250.000000,38500.000000
33250.000000,38500.000000
" /> 
</g>
<g style="fill:#840000; fill-opacity:0.0; 
stroke:#840000; stroke-width:100.000000; stroke-opacity:1; 
stroke-linecap:round; stroke-linejoin:round;">
<path style="fill:#840000; fill-opacity:0.0; 
stroke:#840000; stroke-width:100.000000; stroke-opacity:1; 
stroke-linecap:round; stroke-linejoin:round;fill:none"
d="M 33250.000000,39000.000000
33250.000000,38000.000000
32250.000000,38500.000000
Z" /> 
</g>
<g style="fill:#840000; fill-opacity:0.0; 
stroke:#840000; stroke-width:60.000000; stroke-opacity:1; 
stroke-linecap:round; stroke-linejoin:round;">
<path style="fill:#840000; fill-opacity:0.0; 
stroke:#840000; stroke-width:60.000000; stroke-opacity:1; 
stroke-linecap:round; stroke-linejoin:round;fill:none"
d="M 31550.000000,38800.000000
30950.000000,39400.000000
31250.000000,39400.000000
30950.000000,39400.000000
30950.000000,39100.000000
" /> 
<path style="fill:#840000; fill-opacity:0.0; 
stroke:#840000; stroke-width:60.000000; stroke-opacity:1; 
stroke-linecap:round; stroke-linejoin:round;fill:none"
d="M 32050.000000,38800.000000
31450.000000,39400.000000
31750.000000,39400.000000
31450.000000,39400.000000
31450.000000,39100.000000
" /> 
<path d="M32250 38500
L31250 38500
" />
<path d="M33250 38500
L34250 38500
" />
</g>
<g style="fill:#006464; fill-opacity:0.0; 
stroke:#006464; stroke-width:60.000000; stroke-opacity:1; 
stroke-linecap:round; stroke-linejoin:round;">
<text x="32750.000000" y="37749.960630"
textLength="1940.944882" font-size="666.653543" lengthAdjust="spacingAndGlyphs"
text-anchor="middle" opacity="0">HBT1</text>
<g class="stroked-text"><desc>HBT1</desc>
<path d="M31928 37726
L31928 37226
" />
<path d="M31928 37464
L32214 37464
" />
<path d="M32214 37726
L32214 37226
" />
<path d="M32619 37464
L32690 37488
L32714 37511
L32738 37559
L32738 37630
L32714 37678
L32690 37702
L32642 37726
L32452 37726
L32452 37226
L32619 37226
L32666 37249
L32690 37273
L32714 37321
L32714 37368
L32690 37416
L32666 37440
L32619 37464
L32452 37464
" />
<path d="M32880 37226
L33166 37226
" />
<path d="M33023 37726
L33023 37226
" />
<path d="M33595 37726
L33309 37726
" />
<path d="M33452 37726
L33452 37226
L33404 37297
L33357 37345
L33309 37368
" />
</g><text x="32750.000000" y="39749.960630"
textLength="1488.582677" font-size="666.653543" lengthAdjust="spacingAndGlyphs"
text-anchor="middle" opacity="0">BLU</text>
<g class="stroked-text"><desc>BLU</desc>
<path d="M32321 39464
L32392 39488
L32416 39511
L32440 39559
L32440 39630
L32416 39678
L32392 39702
L32345 39726
L32154 39726
L32154 39226
L32321 39226
L32369 39249
L32392 39273
L32416 39321
L32416 39368
L32392 39416
L32369 39440
L32321 39464
L32154 39464
" />
<path d="M32892 39726
L32654 39726
L32654 39226
" />
<path d="M33059 39226
L33059 39630
L33083 39678
L33107 39702
L33154 39726
L33250 39726
L33297 39702
L33321 39678
L33345 39630
L33345 39226
" />
</g></g>
</g>
<g style="fill:#006464; fill-opacity:0.0; 
stroke:#006464; stroke-width:60.000000; stroke-opacity:1; 
stroke-linecap:round; stroke-linejoin:round;">
<g >
</g>
<g style="fill:#840000; fill-opacity:0.0; 
stroke:#840000; stroke-width:60.000000; stroke-opacity:1; 
stroke-linecap:round; stroke-linejoin:round;">
<path style="fill:#840000; fill-opacity:0.0; 
stroke:#840000; stroke-width:60.000000; stroke-opacity:1; 
stroke-linecap:round; stroke-linejoin:round;fill:none"
d="M 30000.000000,43500.000000
30000.000000,44000.000000
30500.000000,44000.000000
30000.000000,44500.000000
29500.000000,44000.000000
30000.000000,44000.000000
" /> 
</g>
<g style="fill:#006464; fill-opacity:0.0; 
stroke:#006464; stroke-width:60.000000; stroke-opacity:1; 
stroke-linecap:round; stroke-linejoin:round;">
<text x="30000.000000" y="45749.960630"
textLength="1583.818898" font-size="666.653543" lengthAdjust="spacingAndGlyphs"
text-anchor="middle" opacity="0">GND</text>
<g class="stroked-text"><desc>GND</desc>
<path d="M29619 45249
L29571 45226
L29500 45226
L29428 45249
L29380 45297
L29357 45345
L29333 45440
L29333 45511
L29357 45607
L29380 45654
L29428 45702
L29500 45726
L29547 45726
L29619 45702
L29642 45678
L29642 45511
L29547 45511
" />
<path d="M29857 45726
L29857 45226
L30142 45726
L30142 45226
" />
<path d="M30380 45726
L30380 45226
L30500 45226
L30571 45249
L30619 45297
L30642 45345
L30666 45440
L30666 45511
L30642 45607
L30619 45654
L30571 45702
L30500 45726
L30380 45726
" />
</g></g>
</g>
<g style="fill:#006464; fill-opacity:0.0; 
stroke:#006464; stroke-width:62.519685; stroke-opacity:1; 
stroke-linecap:round; stroke-linejoin:round;">
</g>
<g style="fill:#006464; fill-opacity:0.0; 
stroke:#006464; stroke-width:60.000000; stroke-opacity:1; 
stroke-linecap:round; stroke-linejoin:round;">
</g>
<g style="fill:#840000; fill-opacity:0.0; 
stroke:#840000; stroke-width:60.000000; stroke-opacity:1; 
stroke-linecap:round; stroke-linejoin:round;">
<text x="44187.519685" y="35785.748031"
textLength="3321.889764" font-size="666.653543" lengthAdjust="spacingAndGlyphs"
text-anchor="start" opacity="0">ADC2_CS</text>
<g class="stroked-text"><desc>ADC2_CS</desc>
<path d="M44312 35619
L44550 35619
" />
<path d="M44265 35761
L44431 35261
L44598 35761
" />
<path d="M44765 35761
L44765 35261
L44884 35261
L44955 35285
L45003 35333
L45027 35380
L45050 35476
L45050 35547
L45027 35642
L45003 35690
L44955 35738
L44884 35761
L44765 35761
" />
<path d="M45550 35714
L45527 35738
L45455 35761
L45407 35761
L45336 35738
L45288 35690
L45265 35642
L45241 35547
L45241 35476
L45265 35380
L45288 35333
L45336 35285
L45407 35261
L45455 35261
L45527 35285
L45550 35309
" />
<path d="M45741 35309
L45765 35285
L45812 35261
L45931 35261
L45979 35285
L46003 35309
L46027 35357
L46027 35404
L46003 35476
L45717 35761
L46027 35761
" />
<path d="M46122 35809
L46503 35809
" />
<path d="M46907 35714
L46884 35738
L46812 35761
L46765 35761
L46693 35738
L46646 35690
L46622 35642
L46598 35547
L46598 35476
L46622 35380
L46646 35333
L46693 35285
L46765 35261
L46812 35261
L46884 35285
L46907 35309
" />
<path d="M47098 35738
L47169 35761
L47288 35761
L47336 35738
L47360 35714
L47384 35666
L47384 35619
L47360 35571
L47336 35547
L47288 35523
L47193 35500
L47146 35476
L47122 35452
L47098 35404
L47098 35357
L47122 35309
L47146 35285
L47193 35261
L47312 35261
L47384 35285
" />
</g><path style="fill:#840000; fill-opacity:0.0; 
stroke:#840000; stroke-width:60.000000; stroke-opacity:1; 
stroke-linecap:round; stroke-linejoin:round;fill:none"
d="M 44000.000000,35500.000000
44000.000000,36000.157480
47762.086614,36000.157480
48199.606299,35500.000000
47762.086614,34999.842520
44000.000000,34999.842520
Z" /> 
</g>
<g style="fill:#840000; fill-opacity:0.0; 
stroke:#840000; stroke-width:62.519685; stroke-opacity:1; 
stroke-linecap:round; stroke-linejoin:round;">
</g>
<g style="fill:#840000; fill-opacity:0.0; 
stroke:#840000; stroke-width:60.000000; stroke-opacity:1; 
stroke-linecap:round; stroke-linejoin:round;">
<text x="44187.519685" y="34785.748031"
textLength="3324.409449" font-size="666.653543" lengthAdjust="spacingAndGlyphs"
text-anchor="start" opacity="0">ADC1_CS</text>
<g class="stroked-text"><desc>ADC1_CS</desc>
<path d="M44312 34619
L44550 34619
" />
<path d="M44265 34761
L44431 34261
L44598 34761
" />
<path d="M44765 34761
L44765 34261
L44884 34261
L44955 34285
L45003 34333
L45027 34380
L45050 34476
L45050 34547
L45027 34642
L45003 34690
L44955 34738
L44884 34761
L44765 34761
" />
<path d="M45550 34714
L45527 34738
L45455 34761
L45407 34761
L45336 34738
L45288 34690
L45265 34642
L45241 34547
L45241 34476
L45265 34380
L45288 34333
L45336 34285
L45407 34261
L45455 34261
L45527 34285
L45550 34309
" />
<path d="M46027 34761
L45741 34761
" />
<path d="M45884 34761
L45884 34261
L45836 34333
L45788 34380
L45741 34404
" />
<path d="M46122 34809
L46503 34809
" />
<path d="M46907 34714
L46884 34738
L46812 34761
L46765 34761
L46693 34738
L46646 34690
L46622 34642
L46598 34547
L46598 34476
L46622 34380
L46646 34333
L46693 34285
L46765 34261
L46812 34261
L46884 34285
L46907 34309
" />
<path d="M47098 34738
L47169 34761
L47288 34761
L47336 34738
L47360 34714
L47384 34666
L47384 34619
L47360 34571
L47336 34547
L47288 34523
L47193 34500
L47146 34476
L47122 34452
L47098 34404
L47098 34357
L47122 34309
L47146 34285
L47193 34261
L47312 34261
L47384 34285
" />
</g><path style="fill:#840000; fill-opacity:0.0; 
stroke:#840000; stroke-width:60.000000; stroke-opacity:1; 
stroke-linecap:round; stroke-linejoin:round;fill:none"
d="M 44000.000000,34500.000000
44000.000000,35000.157480
47762.086614,35000.157480
48199.606299,34500.000000
47762.086614,33999.842520
44000.000000,33999.842520
Z" /> 
</g>
<g style="fill:#840000; fill-opacity:0.0; 
stroke:#840000; stroke-width:62.519685; stroke-opacity:1; 
stroke-linecap:round; stroke-linejoin:round;">
</g>
<g style="fill:#840000; fill-opacity:0.0; 
stroke:#840000; stroke-width:60.000000; stroke-opacity:1; 
stroke-linecap:round; stroke-linejoin:round;">
<text x="44187.519685" y="36785.748031"
textLength="3324.409449" font-size="666.653543" lengthAdjust="spacingAndGlyphs"
text-anchor="start" opacity="0">ADC3_CS</text>
<g class="stroked-text"><desc>ADC3_CS</desc>
<path d="M44312 36619
L44550 36619
" />
<path d="M44265 36761
L44431 36261
L44598 36761
" />
<path d="M44765 36761
L44765 36261
L44884 36261
L44955 36285
L45003 36333
L45027 36380
L45050 36476
L45050 36547
L45027 36642
L45003 36690
L44955 36738
L44884 36761
L44765 36761
" />
<path d="M45550 36714
L45527 36738
L45455 36761
L45407 36761
L45336 36738
L45288 36690
L45265 36642
L45241 36547
L45241 36476
L45265 36380
L45288 36333
L45336 36285
L45407 36261
L45455 36261
L45527 36285
L45550 36309
" />
<path d="M45717 36261
L46027 36261
L45860 36452
L45931 36452
L45979 36476
L46003 36500
L46027 36547
L46027 36666
L46003 36714
L45979 36738
L45931 36761
L45788 36761
L45741 36738
L45717 36714
" />
<path d="M46122 36809
L46503 36809
" />
<path d="M46907 36714
L46884 36738
L46812 36761
L46765 36761
L46693 36738
L46646 36690
L46622 36642
L46598 36547
L46598 36476
L46622 36380
L46646 36333
L46693 36285
L46765 36261
L46812 36261
L46884 36285
L46907 36309
" />
<path d="M47098 36738
L47169 36761
L47288 36761
L47336 36738
L47360 36714
L47384 36666
L47384 36619
L47360 36571
L47336 36547
L47288 36523
L47193 36500
L47146 36476
L47122 36452
L47098 36404
L47098 36357
L47122 36309
L47146 36285
L47193 36261
L47312 36261
L47384 36285
" />
</g><path style="fill:#840000; fill-opacity:0.0; 
stroke:#840000; stroke-width:60.000000; stroke-opacity:1; 
stroke-linecap:round; stroke-linejoin:round;fill:none"
d="M 44000.000000,36500.000000
44000.000000,37000.157480
47762.086614,37000.157480
48199.606299,36500.000000
47762.086614,35999.842520
44000.000000,35999.842520
Z" /> 
</g>
<g style="fill:#840000; fill-opacity:0.0; 
stroke:#840000; stroke-width:62.519685; stroke-opacity:1; 
stroke-linecap:round; stroke-linejoin:round;">
</g>
<g style="fill:#840000; fill-opacity:0.0; 
stroke:#840000; stroke-width:60.000000; stroke-opacity:1; 
stroke-linecap:round; stroke-linejoin:round;">
<text x="38812.480315" y="29785.748031"
textLength="4014.881890" font-size="666.653543" lengthAdjust="spacingAndGlyphs"
text-anchor="end" opacity="0">DRV_CTL_6</text>
<g class="stroked-text"><desc>DRV_CTL_6</desc>
<path d="M34949 29761
L34949 29261
L35068 29261
L35139 29285
L35187 29333
L35211 29380
L35234 29476
L35234 29547
L35211 29642
L35187 29690
L35139 29738
L35068 29761
L34949 29761
" />
<path d="M35734 29761
L35568 29523
" />
<path d="M35449 29761
L35449 29261
L35639 29261
L35687 29285
L35711 29309
L35734 29357
L35734 29428
L35711 29476
L35687 29500
L35639 29523
L35449 29523
" />
<path d="M35877 29261
L36044 29761
L36211 29261
" />
<path d="M36258 29809
L36639 29809
" />
<path d="M37044 29714
L37020 29738
L36949 29761
L36901 29761
L36830 29738
L36782 29690
L36758 29642
L36734 29547
L36734 29476
L36758 29380
L36782 29333
L36830 29285
L36901 29261
L36949 29261
L37020 29285
L37044 29309
" />
<path d="M37187 29261
L37472 29261
" />
<path d="M37330 29761
L37330 29261
" />
<path d="M37877 29761
L37639 29761
L37639 29261
" />
<path d="M37925 29809
L38306 29809
" />
<path d="M38639 29261
L38544 29261
L38496 29285
L38472 29309
L38425 29380
L38401 29476
L38401 29666
L38425 29714
L38449 29738
L38496 29761
L38591 29761
L38639 29738
L38663 29714
L38687 29666
L38687 29547
L38663 29500
L38639 29476
L38591 29452
L38496 29452
L38449 29476
L38425 29500
L38401 29547
" />
</g><path style="fill:#840000; fill-opacity:0.0; 
stroke:#840000; stroke-width:60.000000; stroke-opacity:1; 
stroke-linecap:round; stroke-linejoin:round;fill:none"
d="M 39000.000000,29500.000000
39000.000000,28999.842520
34547.440945,28999.842520
34109.921260,29500.000000
34547.440945,30000.157480
39000.000000,30000.157480
Z" /> 
</g>
<g style="fill:#840000; fill-opacity:0.0; 
stroke:#840000; stroke-width:62.519685; stroke-opacity:1; 
stroke-linecap:round; stroke-linejoin:round;">
</g>
<g style="fill:#840000; fill-opacity:0.0; 
stroke:#840000; stroke-width:60.000000; stroke-opacity:1; 
stroke-linecap:round; stroke-linejoin:round;">
<text x="38812.480315" y="39785.748031"
textLength="4014.881890" font-size="666.653543" lengthAdjust="spacingAndGlyphs"
text-anchor="end" opacity="0">DRV_CTL_3</text>
<g class="stroked-text"><desc>DRV_CTL_3</desc>
<path d="M34949 39761
L34949 39261
L35068 39261
L35139 39285
L35187 39333
L35211 39380
L35234 39476
L35234 39547
L35211 39642
L35187 39690
L35139 39738
L35068 39761
L34949 39761
" />
<path d="M35734 39761
L35568 39523
" />
<path d="M35449 39761
L35449 39261
L35639 39261
L35687 39285
L35711 39309
L35734 39357
L35734 39428
L35711 39476
L35687 39500
L35639 39523
L35449 39523
" />
<path d="M35877 39261
L36044 39761
L36211 39261
" />
<path d="M36258 39809
L36639 39809
" />
<path d="M37044 39714
L37020 39738
L36949 39761
L36901 39761
L36830 39738
L36782 39690
L36758 39642
L36734 39547
L36734 39476
L36758 39380
L36782 39333
L36830 39285
L36901 39261
L36949 39261
L37020 39285
L37044 39309
" />
<path d="M37187 39261
L37472 39261
" />
<path d="M37330 39761
L37330 39261
" />
<path d="M37877 39761
L37639 39761
L37639 39261
" />
<path d="M37925 39809
L38306 39809
" />
<path d="M38377 39261
L38687 39261
L38520 39452
L38591 39452
L38639 39476
L38663 39500
L38687 39547
L38687 39666
L38663 39714
L38639 39738
L38591 39761
L38449 39761
L38401 39738
L38377 39714
" />
</g><path style="fill:#840000; fill-opacity:0.0; 
stroke:#840000; stroke-width:60.000000; stroke-opacity:1; 
stroke-linecap:round; stroke-linejoin:round;fill:none"
d="M 39000.000000,39500.000000
39000.000000,38999.842520
34547.440945,38999.842520
34109.921260,39500.000000
34547.440945,40000.157480
39000.000000,40000.157480
Z" /> 
</g>
<g style="fill:#840000; fill-opacity:0.0; 
stroke:#840000; stroke-width:62.519685; stroke-opacity:1; 
stroke-linecap:round; stroke-linejoin:round;">
</g>
<g style="fill:#840000; fill-opacity:0.0; 
stroke:#840000; stroke-width:60.000000; stroke-opacity:1; 
stroke-linecap:round; stroke-linejoin:round;">
<text x="38812.480315" y="40785.748031"
textLength="4014.881890" font-size="666.653543" lengthAdjust="spacingAndGlyphs"
text-anchor="end" opacity="0">DRV_CTL_2</text>
<g class="stroked-text"><desc>DRV_CTL_2</desc>
<path d="M34949 40761
L34949 40261
L35068 40261
L35139 40285
L35187 40333
L35211 40380
L35234 40476
L35234 40547
L35211 40642
L35187 40690
L35139 40738
L35068 40761
L34949 40761
" />
<path d="M35734 40761
L35568 40523
" />
<path d="M35449 40761
L35449 40261
L35639 40261
L35687 40285
L35711 40309
L35734 40357
L35734 40428
L35711 40476
L35687 40500
L35639 40523
L35449 40523
" />
<path d="M35877 40261
L36044 40761
L36211 40261
" />
<path d="M36258 40809
L36639 40809
" />
<path d="M37044 40714
L37020 40738
L36949 40761
L36901 40761
L36830 40738
L36782 40690
L36758 40642
L36734 40547
L36734 40476
L36758 40380
L36782 40333
L36830 40285
L36901 40261
L36949 40261
L37020 40285
L37044 40309
" />
<path d="M37187 40261
L37472 40261
" />
<path d="M37330 40761
L37330 40261
" />
<path d="M37877 40761
L37639 40761
L37639 40261
" />
<path d="M37925 40809
L38306 40809
" />
<path d="M38401 40309
L38425 40285
L38472 40261
L38591 40261
L38639 40285
L38663 40309
L38687 40357
L38687 40404
L38663 40476
L38377 40761
L38687 40761
" />
</g><path style="fill:#840000; fill-opacity:0.0; 
stroke:#840000; stroke-width:60.000000; stroke-opacity:1; 
stroke-linecap:round; stroke-linejoin:round;fill:none"
d="M 39000.000000,40500.000000
39000.000000,39999.842520
34547.440945,39999.842520
34109.921260,40500.000000
34547.440945,41000.157480
39000.000000,41000.157480
Z" /> 
</g>
<g style="fill:#840000; fill-opacity:0.0; 
stroke:#840000; stroke-width:62.519685; stroke-opacity:1; 
stroke-linecap:round; stroke-linejoin:round;">
</g>
<g style="fill:#840000; fill-opacity:0.0; 
stroke:#840000; stroke-width:60.000000; stroke-opacity:1; 
stroke-linecap:round; stroke-linejoin:round;">
<text x="38812.480315" y="41785.748031"
textLength="4014.881890" font-size="666.653543" lengthAdjust="spacingAndGlyphs"
text-anchor="end" opacity="0">DRV_CTL_1</text>
<g class="stroked-text"><desc>DRV_CTL_1</desc>
<path d="M34949 41761
L34949 41261
L35068 41261
L35139 41285
L35187 41333
L35211 41380
L35234 41476
L35234 41547
L35211 41642
L35187 41690
L35139 41738
L35068 41761
L34949 41761
" />
<path d="M35734 41761
L35568 41523
" />
<path d="M35449 41761
L35449 41261
L35639 41261
L35687 41285
L35711 41309
L35734 41357
L35734 41428
L35711 41476
L35687 41500
L35639 41523
L35449 41523
" />
<path d="M35877 41261
L36044 41761
L36211 41261
" />
<path d="M36258 41809
L36639 41809
" />
<path d="M37044 41714
L37020 41738
L36949 41761
L36901 41761
L36830 41738
L36782 41690
L36758 41642
L36734 41547
L36734 41476
L36758 41380
L36782 41333
L36830 41285
L36901 41261
L36949 41261
L37020 41285
L37044 41309
" />
<path d="M37187 41261
L37472 41261
" />
<path d="M37330 41761
L37330 41261
" />
<path d="M37877 41761
L37639 41761
L37639 41261
" />
<path d="M37925 41809
L38306 41809
" />
<path d="M38687 41761
L38401 41761
" />
<path d="M38544 41761
L38544 41261
L38496 41333
L38449 41380
L38401 41404
" />
</g><path style="fill:#840000; fill-opacity:0.0; 
stroke:#840000; stroke-width:60.000000; stroke-opacity:1; 
stroke-linecap:round; stroke-linejoin:round;fill:none"
d="M 39000.000000,41500.000000
39000.000000,40999.842520
34547.440945,40999.842520
34109.921260,41500.000000
34547.440945,42000.157480
39000.000000,42000.157480
Z" /> 
</g>
<g style="fill:#840000; fill-opacity:0.0; 
stroke:#840000; stroke-width:62.519685; stroke-opacity:1; 
stroke-linecap:round; stroke-linejoin:round;">
</g>
<g style="fill:#840000; fill-opacity:0.0; 
stroke:#840000; stroke-width:60.000000; stroke-opacity:1; 
stroke-linecap:round; stroke-linejoin:round;">
<text x="38812.480315" y="35785.748031"
textLength="3062.519685" font-size="666.653543" lengthAdjust="spacingAndGlyphs"
text-anchor="end" opacity="0">SPI_CLK</text>
<g class="stroked-text"><desc>SPI_CLK</desc>
<path d="M35877 35738
L35949 35761
L36068 35761
L36115 35738
L36139 35714
L36163 35666
L36163 35619
L36139 35571
L36115 35547
L36068 35523
L35972 35500
L35925 35476
L35901 35452
L35877 35404
L35877 35357
L35901 35309
L35925 35285
L35972 35261
L36091 35261
L36163 35285
" />
<path d="M36377 35761
L36377 35261
L36568 35261
L36615 35285
L36639 35309
L36663 35357
L36663 35428
L36639 35476
L36615 35500
L36568 35523
L36377 35523
" />
<path d="M36877 35761
L36877 35261
" />
<path d="M36996 35809
L37377 35809
" />
<path d="M37782 35714
L37758 35738
L37687 35761
L37639 35761
L37568 35738
L37520 35690
L37496 35642
L37472 35547
L37472 35476
L37496 35380
L37520 35333
L37568 35285
L37639 35261
L37687 35261
L37758 35285
L37782 35309
" />
<path d="M38234 35761
L37996 35761
L37996 35261
" />
<path d="M38401 35761
L38401 35261
" />
<path d="M38687 35761
L38472 35476
" />
<path d="M38687 35261
L38401 35547
" />
</g><path style="fill:#840000; fill-opacity:0.0; 
stroke:#840000; stroke-width:60.000000; stroke-opacity:1; 
stroke-linecap:round; stroke-linejoin:round;fill:none"
d="M 39000.000000,35500.000000
39000.000000,34999.842520
35499.803150,34999.842520
35062.283465,35500.000000
35499.803150,36000.157480
39000.000000,36000.157480
Z" /> 
</g>
<g style="fill:#840000; fill-opacity:0.0; 
stroke:#840000; stroke-width:62.519685; stroke-opacity:1; 
stroke-linecap:round; stroke-linejoin:round;">
</g>
<g style="fill:#840000; fill-opacity:0.0; 
stroke:#840000; stroke-width:60.000000; stroke-opacity:1; 
stroke-linecap:round; stroke-linejoin:round;">
<text x="38437.480315" y="34785.748031"
textLength="3467.283465" font-size="666.653543" lengthAdjust="spacingAndGlyphs"
text-anchor="end" opacity="0">SPI_MISO</text>
<g class="stroked-text"><desc>SPI_MISO</desc>
<path d="M35097 34738
L35169 34761
L35288 34761
L35336 34738
L35359 34714
L35383 34666
L35383 34619
L35359 34571
L35336 34547
L35288 34523
L35193 34500
L35145 34476
L35121 34452
L35097 34404
L35097 34357
L35121 34309
L35145 34285
L35193 34261
L35312 34261
L35383 34285
" />
<path d="M35597 34761
L35597 34261
L35788 34261
L35836 34285
L35859 34309
L35883 34357
L35883 34428
L35859 34476
L35836 34500
L35788 34523
L35597 34523
" />
<path d="M36097 34761
L36097 34261
" />
<path d="M36216 34809
L36597 34809
" />
<path d="M36716 34761
L36716 34261
L36883 34619
L37050 34261
L37050 34761
" />
<path d="M37288 34761
L37288 34261
" />
<path d="M37502 34738
L37574 34761
L37693 34761
L37740 34738
L37764 34714
L37788 34666
L37788 34619
L37764 34571
L37740 34547
L37693 34523
L37597 34500
L37550 34476
L37526 34452
L37502 34404
L37502 34357
L37526 34309
L37550 34285
L37597 34261
L37716 34261
L37788 34285
" />
<path d="M38097 34261
L38193 34261
L38240 34285
L38288 34333
L38312 34428
L38312 34595
L38288 34690
L38240 34738
L38193 34761
L38097 34761
L38050 34738
L38002 34690
L37978 34595
L37978 34428
L38002 34333
L38050 34285
L38097 34261
" />
</g><path style="fill:#840000; fill-opacity:0.0; 
stroke:#840000; stroke-width:60.000000; stroke-opacity:1; 
stroke-linecap:round; stroke-linejoin:round;fill:none"
d="M 39000.000000,34500.000000
38562.480315,33999.842520
34657.519685,33999.842520
34657.519685,34500.000000
34657.519685,35000.157480
38562.480315,35000.157480
Z" /> 
</g>
<g style="fill:#840000; fill-opacity:0.0; 
stroke:#840000; stroke-width:62.519685; stroke-opacity:1; 
stroke-linecap:round; stroke-linejoin:round;">
</g>
<g style="fill:#840000; fill-opacity:0.0; 
stroke:#840000; stroke-width:60.000000; stroke-opacity:1; 
stroke-linecap:round; stroke-linejoin:round;">
<text x="38812.480315" y="33785.748031"
textLength="3467.283465" font-size="666.653543" lengthAdjust="spacingAndGlyphs"
text-anchor="end" opacity="0">SPI_MOSI</text>
<g class="stroked-text"><desc>SPI_MOSI</desc>
<path d="M35472 33738
L35544 33761
L35663 33761
L35711 33738
L35734 33714
L35758 33666
L35758 33619
L35734 33571
L35711 33547
L35663 33523
L35568 33500
L35520 33476
L35496 33452
L35472 33404
L35472 33357
L35496 33309
L35520 33285
L35568 33261
L35687 33261
L35758 33285
" />
<path d="M35972 33761
L35972 33261
L36163 33261
L36211 33285
L36234 33309
L36258 33357
L36258 33428
L36234 33476
L36211 33500
L36163 33523
L35972 33523
" />
<path d="M36472 33761
L36472 33261
" />
<path d="M36591 33809
L36972 33809
" />
<path d="M37091 33761
L37091 33261
L37258 33619
L37425 33261
L37425 33761
" />
<path d="M37758 33261
L37853 33261
L37901 33285
L37949 33333
L37972 33428
L37972 33595
L37949 33690
L37901 33738
L37853 33761
L37758 33761
L37711 33738
L37663 33690
L37639 33595
L37639 33428
L37663 33333
L37711 33285
L37758 33261
" />
<path d="M38163 33738
L38234 33761
L38353 33761
L38401 33738
L38425 33714
L38449 33666
L38449 33619
L38425 33571
L38401 33547
L38353 33523
L38258 33500
L38211 33476
L38187 33452
L38163 33404
L38163 33357
L38187 33309
L38211 33285
L38258 33261
L38377 33261
L38449 33285
" />
<path d="M38663 33761
L38663 33261
" />
</g><path style="fill:#840000; fill-opacity:0.0; 
stroke:#840000; stroke-width:60.000000; stroke-opacity:1; 
stroke-linecap:round; stroke-linejoin:round;fill:none"
d="M 39000.000000,33500.000000
39000.000000,32999.842520
35095.039370,32999.842520
34657.519685,33500.000000
35095.039370,34000.157480
39000.000000,34000.157480
Z" /> 
</g>
<g style="fill:#840000; fill-opacity:0.0; 
stroke:#840000; stroke-width:62.519685; stroke-opacity:1; 
stroke-linecap:round; stroke-linejoin:round;">
</g>
<g style="fill:#840000; fill-opacity:0.0; 
stroke:#840000; stroke-width:60.000000; stroke-opacity:1; 
stroke-linecap:round; stroke-linejoin:round;">
<text x="38812.480315" y="30785.748031"
textLength="4014.881890" font-size="666.653543" lengthAdjust="spacingAndGlyphs"
text-anchor="end" opacity="0">DRV_CTL_5</text>
<g class="stroked-text"><desc>DRV_CTL_5</desc>
<path d="M34949 30761
L34949 30261
L35068 30261
L35139 30285
L35187 30333
L35211 30380
L35234 30476
L35234 30547
L35211 30642
L35187 30690
L35139 30738
L35068 30761
L34949 30761
" />
<path d="M35734 30761
L35568 30523
" />
<path d="M35449 30761
L35449 30261
L35639 30261
L35687 30285
L35711 30309
L35734 30357
L35734 30428
L35711 30476
L35687 30500
L35639 30523
L35449 30523
" />
<path d="M35877 30261
L36044 30761
L36211 30261
" />
<path d="M36258 30809
L36639 30809
" />
<path d="M37044 30714
L37020 30738
L36949 30761
L36901 30761
L36830 30738
L36782 30690
L36758 30642
L36734 30547
L36734 30476
L36758 30380
L36782 30333
L36830 30285
L36901 30261
L36949 30261
L37020 30285
L37044 30309
" />
<path d="M37187 30261
L37472 30261
" />
<path d="M37330 30761
L37330 30261
" />
<path d="M37877 30761
L37639 30761
L37639 30261
" />
<path d="M37925 30809
L38306 30809
" />
<path d="M38663 30261
L38425 30261
L38401 30500
L38425 30476
L38472 30452
L38591 30452
L38639 30476
L38663 30500
L38687 30547
L38687 30666
L38663 30714
L38639 30738
L38591 30761
L38472 30761
L38425 30738
L38401 30714
" />
</g><path style="fill:#840000; fill-opacity:0.0; 
stroke:#840000; stroke-width:60.000000; stroke-opacity:1; 
stroke-linecap:round; stroke-linejoin:round;fill:none"
d="M 39000.000000,30500.000000
39000.000000,29999.842520
34547.440945,29999.842520
34109.921260,30500.000000
34547.440945,31000.157480
39000.000000,31000.157480
Z" /> 
</g>
<g style="fill:#840000; fill-opacity:0.0; 
stroke:#840000; stroke-width:62.519685; stroke-opacity:1; 
stroke-linecap:round; stroke-linejoin:round;">
</g>
<g style="fill:#840000; fill-opacity:0.0; 
stroke:#840000; stroke-width:60.000000; stroke-opacity:1; 
stroke-linecap:round; stroke-linejoin:round;">
<text x="38812.480315" y="31785.748031"
textLength="4014.881890" font-size="666.653543" lengthAdjust="spacingAndGlyphs"
text-anchor="end" opacity="0">DRV_CTL_4</text>
<g class="stroked-text"><desc>DRV_CTL_4</desc>
<path d="M34949 31761
L34949 31261
L35068 31261
L35139 31285
L35187 31333
L35211 31380
L35234 31476
L35234 31547
L35211 31642
L35187 31690
L35139 31738
L35068 31761
L34949 31761
" />
<path d="M35734 31761
L35568 31523
" />
<path d="M35449 31761
L35449 31261
L35639 31261
L35687 31285
L35711 31309
L35734 31357
L35734 31428
L35711 31476
L35687 31500
L35639 31523
L35449 31523
" />
<path d="M35877 31261
L36044 31761
L36211 31261
" />
<path d="M36258 31809
L36639 31809
" />
<path d="M37044 31714
L37020 31738
L36949 31761
L36901 31761
L36830 31738
L36782 31690
L36758 31642
L36734 31547
L36734 31476
L36758 31380
L36782 31333
L36830 31285
L36901 31261
L36949 31261
L37020 31285
L37044 31309
" />
<path d="M37187 31261
L37472 31261
" />
<path d="M37330 31761
L37330 31261
" />
<path d="M37877 31761
L37639 31761
L37639 31261
" />
<path d="M37925 31809
L38306 31809
" />
<path d="M38639 31428
L38639 31761
" />
<path d="M38520 31238
L38401 31595
L38711 31595
" />
</g><path style="fill:#840000; fill-opacity:0.0; 
stroke:#840000; stroke-width:60.000000; stroke-opacity:1; 
stroke-linecap:round; stroke-linejoin:round;fill:none"
d="M 39000.000000,31500.000000
39000.000000,30999.842520
34547.440945,30999.842520
34109.921260,31500.000000
34547.440945,32000.157480
39000.000000,32000.157480
Z" /> 
</g>
<g style="fill:#009600; fill-opacity:0.0; 
stroke:#009600; stroke-width:60.000000; stroke-opacity:1; 
stroke-linecap:round; stroke-linejoin:round;">
<path d="M44000 30500
L50000 30500
" />
<path d="M50000 33500
L50000 30500
" />
<path d="M44000 26500
L50000 26500
" />
<path d="M50000 26500
L50000 30500
" />
<path d="M44000 33500
L50000 33500
" />
<path d="M30000 36500
L39000 36500
" />
<path d="M30000 36500
L30000 38500
" />
<path d="M50000 38500
L50000 33500
" />
<path d="M45000 24500
L45000 25500
" />
<path d="M45000 24500
L44000 24500
" />
<path d="M45000 25500
L44000 25500
" />
<path d="M50000 40500
L50000 38500
" />
<path d="M30000 38500
L31250 38500
" />
<path d="M37250 38500
L39000 38500
" />
<path d="M30000 28500
L30000 36500
" />
<path d="M30000 28500
L39000 28500
" />
<path d="M44000 40500
L50000 40500
" />
<path d="M30000 43500
L39000 43500
" />
<path d="M30000 43500
L30000 44000
" />
<path d="M44000 38500
L50000 38500
" />
<path d="M30000 38500
L30000 43500
" />
</g>
<g style="fill:#000084; fill-opacity:0.0; 
stroke:#000084; stroke-width:60.000000; stroke-opacity:1; 
stroke-linecap:round; stroke-linejoin:round;">
<path d="M38760 37260
L39240 37740
" />
<path d="M39240 37260
L38760 37740
" />
<path d="M43760 29260
L44240 29740
" />
<path d="M44240 29260
L43760 29740
" />
<path d="M43760 31260
L44240 31740
" />
<path d="M44240 31260
L43760 31740
" />
<path d="M43760 27260
L44240 27740
" />
<path d="M44240 27260
L43760 27740
" />
<path d="M43760 28260
L44240 28740
" />
<path d="M44240 28260
L43760 28740
" />
<path d="M43760 43260
L44240 43740
" />
<path d="M44240 43260
L43760 43740
" />
<path d="M38760 32260
L39240 32740
" />
<path d="M39240 32260
L38760 32740
" />
<path d="M43760 37260
L44240 37740
" />
<path d="M44240 37260
L43760 37740
" />
<path d="M43760 39260
L44240 39740
" />
<path d="M44240 39260
L43760 39740
" />
<path d="M43760 32260
L44240 32740
" />
<path d="M44240 32260
L43760 32740
" />
<path d="M43760 42260
L44240 42740
" />
<path d="M44240 42260
L43760 42740
" />
<path d="M43760 41260
L44240 41740
" />
<path d="M44240 41260
L43760 41740
" />
<path d="M38760 42260
L39240 42740
" />
<path d="M39240 42260
L38760 42740
" />
<path d="M38760 24260
L39240 24740
" />
<path d="M39240 24260
L38760 24740
" />
<path d="M38760 25260
L39240 25740
" />
<path d="M39240 25260
L38760 25740
" />
<path d="M38760 27260
L39240 27740
" />
<path d="M39240 27260
L38760 27740
" />
<path d="M38760 26260
L39240 26740
" />
<path d="M39240 26260
L38760 26740
" />
</g>
<g style="fill:#006464; fill-opacity:0.0; 
stroke:#006464; stroke-width:60.000000; stroke-opacity:1; 
stroke-linecap:round; stroke-linejoin:round;">
<text x="35750.000000" y="37750.000000"
textLength="1514.881890" font-size="666.653543" lengthAdjust="spacingAndGlyphs"
text-anchor="middle" opacity="0">R89</text>
<g class="stroked-text"><desc>R89</desc>
<path d="M35428 37726
L35261 37488
" />
<path d="M35142 37726
L35142 37226
L35333 37226
L35380 37250
L35404 37273
L35428 37321
L35428 37392
L35404 37440
L35380 37464
L35333 37488
L35142 37488
" />
<path d="M35714 37440
L35666 37416
L35642 37392
L35619 37345
L35619 37321
L35642 37273
L35666 37250
L35714 37226
L35809 37226
L35857 37250
L35880 37273
L35904 37321
L35904 37345
L35880 37392
L35857 37416
L35809 37440
L35714 37440
L35666 37464
L35642 37488
L35619 37535
L35619 37630
L35642 37678
L35666 37702
L35714 37726
L35809 37726
L35857 37702
L35880 37678
L35904 37630
L35904 37535
L35880 37488
L35857 37464
L35809 37440
" />
<path d="M36142 37726
L36238 37726
L36285 37702
L36309 37678
L36357 37607
L36380 37511
L36380 37321
L36357 37273
L36333 37250
L36285 37226
L36190 37226
L36142 37250
L36119 37273
L36095 37321
L36095 37440
L36119 37488
L36142 37511
L36190 37535
L36285 37535
L36333 37511
L36357 37488
L36380 37440
" />
</g><text x="35750.000000" y="39750.000000"
textLength="1488.582677" font-size="666.653543" lengthAdjust="spacingAndGlyphs"
text-anchor="middle" opacity="0">150</text>
<g class="stroked-text"><desc>150</desc>
<path d="M35416 39726
L35130 39726
" />
<path d="M35273 39726
L35273 39226
L35226 39297
L35178 39345
L35130 39369
" />
<path d="M35869 39226
L35630 39226
L35607 39464
L35630 39440
L35678 39416
L35797 39416
L35845 39440
L35869 39464
L35892 39511
L35892 39630
L35869 39678
L35845 39702
L35797 39726
L35678 39726
L35630 39702
L35607 39678
" />
<path d="M36202 39226
L36250 39226
L36297 39250
L36321 39273
L36345 39321
L36369 39416
L36369 39535
L36345 39630
L36321 39678
L36297 39702
L36250 39726
L36202 39726
L36154 39702
L36130 39678
L36107 39630
L36083 39535
L36083 39416
L36107 39321
L36130 39273
L36154 39250
L36202 39226
" />
</g></g>
<g style="fill:#840000; fill-opacity:0.0; 
stroke:#840000; stroke-width:60.000000; stroke-opacity:1; 
stroke-linecap:round; stroke-linejoin:round;">
<path d="M34750 38500
L34250 38500
" />
<path d="M36750 38500
L37250 38500
" />
</g>
<g style="fill:#006464; fill-opacity:0.0; 
stroke:#006464; stroke-width:60.000000; stroke-opacity:1; 
stroke-linecap:round; stroke-linejoin:round;">
<text x="32750.000000" y="37749.960630"
textLength="1940.944882" font-size="666.653543" lengthAdjust="spacingAndGlyphs"
text-anchor="middle" opacity="0">HBT1</text>
<g class="stroked-text"><desc>HBT1</desc>
<path d="M31928 37726
L31928 37226
" />
<path d="M31928 37464
L32214 37464
" />
<path d="M32214 37726
L32214 37226
" />
<path d="M32619 37464
L32690 37488
L32714 37511
L32738 37559
L32738 37630
L32714 37678
L32690 37702
L32642 37726
L32452 37726
L32452 37226
L32619 37226
L32666 37249
L32690 37273
L32714 37321
L32714 37368
L32690 37416
L32666 37440
L32619 37464
L32452 37464
" />
<path d="M32880 37226
L33166 37226
" />
<path d="M33023 37726
L33023 37226
" />
<path d="M33595 37726
L33309 37726
" />
<path d="M33452 37726
L33452 37226
L33404 37297
L33357 37345
L33309 37368
" />
</g><text x="32750.000000" y="39749.960630"
textLength="1488.582677" font-size="666.653543" lengthAdjust="spacingAndGlyphs"
text-anchor="middle" opacity="0">BLU</text>
<g class="stroked-text"><desc>BLU</desc>
<path d="M32321 39464
L32392 39488
L32416 39511
L32440 39559
L32440 39630
L32416 39678
L32392 39702
L32345 39726
L32154 39726
L32154 39226
L32321 39226
L32369 39249
L32392 39273
L32416 39321
L32416 39368
L32392 39416
L32369 39440
L32321 39464
L32154 39464
" />
<path d="M32892 39726
L32654 39726
L32654 39226
" />
<path d="M33059 39226
L33059 39630
L33083 39678
L33107 39702
L33154 39726
L33250 39726
L33297 39702
L33321 39678
L33345 39630
L33345 39226
" />
</g></g>
<g style="fill:#840000; fill-opacity:0.0; 
stroke:#840000; stroke-width:60.000000; stroke-opacity:1; 
stroke-linecap:round; stroke-linejoin:round;">
<path d="M32250 38500
L31250 38500
" />
<path d="M33250 38500
L34250 38500
" />
</g>
<g style="fill:#009600; fill-opacity:0.0; 
stroke:#009600; stroke-width:60.000000; stroke-opacity:1; 
stroke-linecap:round; stroke-linejoin:round;">
</g>
<g style="fill:#009600; fill-opacity:1.0; 
stroke:#009600; stroke-width:60.000000; stroke-opacity:1; 
stroke-linecap:round; stroke-linejoin:round;">
<circle cx="30000.000000" cy="36500.000000" r="180.000000" /> 
<circle cx="30000.000000" cy="38500.000000" r="180.000000" /> 
<circle cx="30000.000000" cy="43500.000000" r="180.000000" /> 
<circle cx="50000.000000" cy="38500.000000" r="180.000000" /> 
<circle cx="50000.000000" cy="30500.000000" r="180.000000" /> 
<circle cx="50000.000000" cy="33500.000000" r="180.000000" /> 
<circle cx="45000.000000" cy="24500.000000" r="180.000000" /> 
<circle cx="50000.000000" cy="40500.000000" r="180.000000" /> 
</g> 
</svg>
