<?xml version="1.0" standalone="no"?>
 <!DOCTYPE svg PUBLIC "-//W3C//DTD SVG 1.1//EN" 
 "http://www.w3.org/Graphics/SVG/1.1/DTD/svg11.dtd"> 
<svg
  xmlns:svg="http://www.w3.org/2000/svg"
  xmlns="http://www.w3.org/2000/svg"
  xmlns:xlink="http://www.w3.org/1999/xlink"
  version="1.1"
  width="29.700220cm" height="21.000720cm" viewBox="0 0 116930 82680">
<title>SVG Picture created as karca-Thermocouples.svg date 2022/12/23 00:16:05 </title>
  <desc>Picture generated by Eeschema-SVG </desc>
<g style="fill:#000000; fill-opacity:1.000000;stroke:#000000; stroke-opacity:1.000000;
stroke-linecap:round; stroke-linejoin:round;"
 transform="translate(0 0) scale(1 1)">
</g>
<g style="fill:#840000; fill-opacity:0.0; 
stroke:#840000; stroke-width:0.000000; stroke-opacity:1; 
stroke-linecap:round; stroke-linejoin:round;">
</g>
<g style="fill:#840000; fill-opacity:0.0; 
stroke:#840000; stroke-width:60.000000; stroke-opacity:1; 
stroke-linecap:round; stroke-linejoin:round;">
<rect x="69685.905512" y="65357.165354" width="42519.685039" height="12598.425197" rx="0.000000" />
<rect x="3937.007874" y="3937.007874" width="109055.984252" height="74805.984252" rx="0.000000" />
<rect x="4724.409449" y="4724.409449" width="107481.181102" height="73231.181102" rx="0.000000" />
<path d="M23622 4724
L23622 3937
" />
<path d="M43307 4724
L43307 3937
" />
<path d="M62992 4724
L62992 3937
" />
<path d="M82677 4724
L82677 3937
" />
<path d="M102362 4724
L102362 3937
" />
<text x="13779.527559" y="4586.614173"
textLength="549.960630" font-size="682.401575" lengthAdjust="spacingAndGlyphs"
text-anchor="start" opacity="0">1</text>
<g class="stroked-text"><desc>1</desc>
<path d="M14199 4562
L13907 4562
" />
<path d="M14053 4562
L14053 4050
L14004 4123
L13955 4172
L13907 4196
" />
</g><text x="33464.566929" y="4586.614173"
textLength="547.440945" font-size="682.401575" lengthAdjust="spacingAndGlyphs"
text-anchor="start" opacity="0">2</text>
<g class="stroked-text"><desc>2</desc>
<path d="M33592 4099
L33616 4074
L33665 4050
L33787 4050
L33835 4074
L33860 4099
L33884 4147
L33884 4196
L33860 4269
L33567 4562
L33884 4562
" />
</g><text x="53149.606299" y="4586.614173"
textLength="547.440945" font-size="682.401575" lengthAdjust="spacingAndGlyphs"
text-anchor="start" opacity="0">3</text>
<g class="stroked-text"><desc>3</desc>
<path d="M53252 4050
L53569 4050
L53398 4245
L53472 4245
L53520 4269
L53545 4294
L53569 4342
L53569 4464
L53545 4513
L53520 4537
L53472 4562
L53325 4562
L53277 4537
L53252 4513
" />
</g><text x="72834.645669" y="4586.614173"
textLength="547.440945" font-size="682.401575" lengthAdjust="spacingAndGlyphs"
text-anchor="start" opacity="0">4</text>
<g class="stroked-text"><desc>4</desc>
<path d="M73205 4221
L73205 4562
" />
<path d="M73083 4026
L72962 4391
L73278 4391
" />
</g><text x="92519.685039" y="4586.614173"
textLength="547.440945" font-size="682.401575" lengthAdjust="spacingAndGlyphs"
text-anchor="start" opacity="0">5</text>
<g class="stroked-text"><desc>5</desc>
<path d="M92915 4050
L92671 4050
L92647 4294
L92671 4269
L92720 4245
L92842 4245
L92890 4269
L92915 4294
L92939 4342
L92939 4464
L92915 4513
L92890 4537
L92842 4562
L92720 4562
L92671 4537
L92647 4513
" />
</g><text x="112204.724409" y="4586.614173"
textLength="547.440945" font-size="682.401575" lengthAdjust="spacingAndGlyphs"
text-anchor="start" opacity="0">6</text>
<g class="stroked-text"><desc>6</desc>
<path d="M112575 4050
L112478 4050
L112429 4074
L112405 4099
L112356 4172
L112332 4269
L112332 4464
L112356 4513
L112380 4537
L112429 4562
L112527 4562
L112575 4537
L112600 4513
L112624 4464
L112624 4342
L112600 4294
L112575 4269
L112527 4245
L112429 4245
L112380 4269
L112356 4294
L112332 4342
" />
</g><path d="M23622 77955
L23622 78742
" />
<path d="M43307 77955
L43307 78742
" />
<path d="M62992 77955
L62992 78742
" />
<path d="M82677 77955
L82677 78742
" />
<path d="M102362 77955
L102362 78742
" />
<text x="13779.527559" y="78605.196850"
textLength="547.440945" font-size="682.401575" lengthAdjust="spacingAndGlyphs"
text-anchor="start" opacity="0">1</text>
<g class="stroked-text"><desc>1</desc>
<path d="M14199 78580
L13907 78580
" />
<path d="M14053 78580
L14053 78068
L14004 78142
L13955 78190
L13907 78215
" />
</g><text x="33464.566929" y="78605.196850"
textLength="547.440945" font-size="682.401575" lengthAdjust="spacingAndGlyphs"
text-anchor="start" opacity="0">2</text>
<g class="stroked-text"><desc>2</desc>
<path d="M33592 78117
L33616 78093
L33665 78068
L33787 78068
L33835 78093
L33860 78117
L33884 78166
L33884 78215
L33860 78288
L33567 78580
L33884 78580
" />
</g><text x="53149.606299" y="78605.196850"
textLength="547.440945" font-size="682.401575" lengthAdjust="spacingAndGlyphs"
text-anchor="start" opacity="0">3</text>
<g class="stroked-text"><desc>3</desc>
<path d="M53252 78068
L53569 78068
L53398 78263
L53472 78263
L53520 78288
L53545 78312
L53569 78361
L53569 78483
L53545 78532
L53520 78556
L53472 78580
L53325 78580
L53277 78556
L53252 78532
" />
</g><text x="72834.645669" y="78605.196850"
textLength="547.440945" font-size="682.401575" lengthAdjust="spacingAndGlyphs"
text-anchor="start" opacity="0">4</text>
<g class="stroked-text"><desc>4</desc>
<path d="M73205 78239
L73205 78580
" />
<path d="M73083 78044
L72962 78410
L73278 78410
" />
</g><text x="92519.685039" y="78605.196850"
textLength="547.440945" font-size="682.401575" lengthAdjust="spacingAndGlyphs"
text-anchor="start" opacity="0">5</text>
<g class="stroked-text"><desc>5</desc>
<path d="M92915 78068
L92671 78068
L92647 78312
L92671 78288
L92720 78263
L92842 78263
L92890 78288
L92915 78312
L92939 78361
L92939 78483
L92915 78532
L92890 78556
L92842 78580
L92720 78580
L92671 78556
L92647 78532
" />
</g><text x="112204.724409" y="78605.196850"
textLength="547.440945" font-size="682.401575" lengthAdjust="spacingAndGlyphs"
text-anchor="start" opacity="0">6</text>
<g class="stroked-text"><desc>6</desc>
<path d="M112575 78068
L112478 78068
L112429 78093
L112405 78117
L112356 78190
L112332 78288
L112332 78483
L112356 78532
L112380 78556
L112429 78580
L112527 78580
L112575 78556
L112600 78532
L112624 78483
L112624 78361
L112600 78312
L112575 78288
L112527 78263
L112429 78263
L112380 78288
L112356 78312
L112332 78361
" />
</g><path d="M3937 23622
L4724 23622
" />
<path d="M3937 43307
L4724 43307
" />
<path d="M3937 62992
L4724 62992
" />
<text x="4330.708661" y="14035.433071"
textLength="498.700787" font-size="682.401575" lengthAdjust="spacingAndGlyphs"
text-anchor="middle" opacity="0">A</text>
<g class="stroked-text"><desc>A</desc>
<path d="M4208 13864
L4452 13864
" />
<path d="M4160 14011
L4330 13499
L4501 14011
" />
</g><text x="4330.708661" y="33720.472441"
textLength="571.811024" font-size="682.401575" lengthAdjust="spacingAndGlyphs"
text-anchor="middle" opacity="0">B</text>
<g class="stroked-text"><desc>B</desc>
<path d="M4367 33427
L4440 33452
L4464 33476
L4489 33525
L4489 33598
L4464 33647
L4440 33671
L4391 33696
L4196 33696
L4196 33184
L4367 33184
L4415 33208
L4440 33233
L4464 33281
L4464 33330
L4440 33379
L4415 33403
L4367 33427
L4196 33427
" />
</g><text x="4330.708661" y="53405.511811"
textLength="571.811024" font-size="682.401575" lengthAdjust="spacingAndGlyphs"
text-anchor="middle" opacity="0">C</text>
<g class="stroked-text"><desc>C</desc>
<path d="M4489 53332
L4464 53356
L4391 53381
L4342 53381
L4269 53356
L4221 53307
L4196 53259
L4172 53161
L4172 53088
L4196 52991
L4221 52942
L4269 52893
L4342 52869
L4391 52869
L4464 52893
L4489 52918
" />
</g><text x="4330.708661" y="73090.551181"
textLength="571.811024" font-size="682.401575" lengthAdjust="spacingAndGlyphs"
text-anchor="middle" opacity="0">D</text>
<g class="stroked-text"><desc>D</desc>
<path d="M4196 73066
L4196 72554
L4318 72554
L4391 72578
L4440 72627
L4464 72676
L4489 72773
L4489 72846
L4464 72944
L4440 72993
L4391 73041
L4318 73066
L4196 73066
" />
</g><path d="M112992 23622
L112205 23622
" />
<path d="M112992 43307
L112205 43307
" />
<path d="M112992 62992
L112205 62992
" />
<text x="112599.291339" y="14035.433071"
textLength="498.700787" font-size="682.401575" lengthAdjust="spacingAndGlyphs"
text-anchor="middle" opacity="0">A</text>
<g class="stroked-text"><desc>A</desc>
<path d="M112477 13864
L112721 13864
" />
<path d="M112428 14011
L112599 13499
L112769 14011
" />
</g><text x="112599.291339" y="33720.472441"
textLength="571.811024" font-size="682.401575" lengthAdjust="spacingAndGlyphs"
text-anchor="middle" opacity="0">B</text>
<g class="stroked-text"><desc>B</desc>
<path d="M112635 33427
L112708 33452
L112733 33476
L112757 33525
L112757 33598
L112733 33647
L112708 33671
L112660 33696
L112465 33696
L112465 33184
L112635 33184
L112684 33208
L112708 33233
L112733 33281
L112733 33330
L112708 33379
L112684 33403
L112635 33427
L112465 33427
" />
</g><text x="112599.291339" y="53405.511811"
textLength="571.811024" font-size="682.401575" lengthAdjust="spacingAndGlyphs"
text-anchor="middle" opacity="0">C</text>
<g class="stroked-text"><desc>C</desc>
<path d="M112757 53332
L112733 53356
L112660 53381
L112611 53381
L112538 53356
L112489 53307
L112465 53259
L112440 53161
L112440 53088
L112465 52991
L112489 52942
L112538 52893
L112611 52869
L112660 52869
L112733 52893
L112757 52918
" />
</g><text x="112599.291339" y="73090.551181"
textLength="571.811024" font-size="682.401575" lengthAdjust="spacingAndGlyphs"
text-anchor="middle" opacity="0">D</text>
<g class="stroked-text"><desc>D</desc>
<path d="M112465 73066
L112465 72554
L112587 72554
L112660 72578
L112708 72627
L112733 72676
L112757 72773
L112757 72846
L112733 72944
L112708 72993
L112660 73041
L112587 73066
L112465 73066
" />
</g><text x="78741.023622" y="76321.732283"
textLength="2759.645669" font-size="787.401575" lengthAdjust="spacingAndGlyphs"
text-anchor="start" opacity="0">Date: </text>
<g class="stroked-text"><desc>Date: </desc>
<path d="M78911 76293
L78911 75703
L79052 75703
L79136 75731
L79192 75787
L79220 75843
L79249 75956
L79249 76040
L79220 76152
L79192 76209
L79136 76265
L79052 76293
L78911 76293
" />
<path d="M79755 76293
L79755 75984
L79727 75928
L79670 75899
L79558 75899
L79502 75928
" />
<path d="M79755 76265
L79699 76293
L79558 76293
L79502 76265
L79474 76209
L79474 76152
L79502 76096
L79558 76068
L79699 76068
L79755 76040
" />
<path d="M79952 75899
L80177 75899
" />
<path d="M80036 75703
L80036 76209
L80064 76265
L80120 76293
L80177 76293
" />
<path d="M80598 76265
L80542 76293
L80430 76293
L80373 76265
L80345 76209
L80345 75984
L80373 75928
L80430 75899
L80542 75899
L80598 75928
L80627 75984
L80627 76040
L80345 76096
" />
<path d="M80880 76237
L80908 76265
L80880 76293
L80852 76265
L80880 76237
L80880 76293
" />
<path d="M80880 75928
L80908 75956
L80880 75984
L80852 75956
L80880 75928
L80880 75984
" />
</g><path d="M69685 76577
L112205 76577
" />
<text x="70079.606299" y="77424.094488"
textLength="27112.874016" font-size="787.401575" lengthAdjust="spacingAndGlyphs"
text-anchor="start" opacity="0">KiCad E.D.A.  kicad 6.0.10-86aedd382b~118~ubuntu22.04.1</text>
<g class="stroked-text"><desc>KiCad E.D.A.  kicad 6.0.10-86aedd382b~118~ubuntu22.04.1</desc>
<path d="M70250 77395
L70250 76805
" />
<path d="M70587 77395
L70334 77058
" />
<path d="M70587 76805
L70250 77142
" />
<path d="M70840 77395
L70840 77002
" />
<path d="M70840 76805
L70812 76833
L70840 76861
L70868 76833
L70840 76805
L70840 76861
" />
<path d="M71459 77339
L71431 77367
L71346 77395
L71290 77395
L71206 77367
L71150 77311
L71121 77255
L71093 77142
L71093 77058
L71121 76946
L71150 76889
L71206 76833
L71290 76805
L71346 76805
L71431 76833
L71459 76861
" />
<path d="M71965 77395
L71965 77086
L71937 77030
L71881 77002
L71768 77002
L71712 77030
" />
<path d="M71965 77367
L71909 77395
L71768 77395
L71712 77367
L71684 77311
L71684 77255
L71712 77199
L71768 77170
L71909 77170
L71965 77142
" />
<path d="M72499 77395
L72499 76805
" />
<path d="M72499 77367
L72443 77395
L72331 77395
L72274 77367
L72246 77339
L72218 77283
L72218 77114
L72246 77058
L72274 77030
L72331 77002
L72443 77002
L72499 77030
" />
<path d="M73231 77086
L73427 77086
" />
<path d="M73512 77395
L73231 77395
L73231 76805
L73512 76805
" />
<path d="M73765 77339
L73793 77367
L73765 77395
L73737 77367
L73765 77339
L73765 77395
" />
<path d="M74046 77395
L74046 76805
L74187 76805
L74271 76833
L74327 76889
L74355 76946
L74384 77058
L74384 77142
L74355 77255
L74327 77311
L74271 77367
L74187 77395
L74046 77395
" />
<path d="M74637 77339
L74665 77367
L74637 77395
L74609 77367
L74637 77339
L74637 77395
" />
<path d="M74890 77227
L75171 77227
" />
<path d="M74834 77395
L75030 76805
L75227 77395
" />
<path d="M75424 77339
L75452 77367
L75424 77395
L75396 77367
L75424 77339
L75424 77395
" />
<path d="M76605 77395
L76605 76805
" />
<path d="M76661 77170
L76830 77395
" />
<path d="M76830 77002
L76605 77227
" />
<path d="M77083 77395
L77083 77002
" />
<path d="M77083 76805
L77055 76833
L77083 76861
L77111 76833
L77083 76805
L77083 76861
" />
<path d="M77618 77367
L77561 77395
L77449 77395
L77393 77367
L77364 77339
L77336 77283
L77336 77114
L77364 77058
L77393 77030
L77449 77002
L77561 77002
L77618 77030
" />
<path d="M78124 77395
L78124 77086
L78096 77030
L78039 77002
L77927 77002
L77871 77030
" />
<path d="M78124 77367
L78067 77395
L77927 77395
L77871 77367
L77842 77311
L77842 77255
L77871 77199
L77927 77170
L78067 77170
L78124 77142
" />
<path d="M78658 77395
L78658 76805
" />
<path d="M78658 77367
L78602 77395
L78489 77395
L78433 77367
L78405 77339
L78377 77283
L78377 77114
L78405 77058
L78433 77030
L78489 77002
L78602 77002
L78658 77030
" />
<path d="M79642 76805
L79530 76805
L79474 76833
L79445 76861
L79389 76946
L79361 77058
L79361 77283
L79389 77339
L79417 77367
L79474 77395
L79586 77395
L79642 77367
L79670 77339
L79699 77283
L79699 77142
L79670 77086
L79642 77058
L79586 77030
L79474 77030
L79417 77058
L79389 77086
L79361 77142
" />
<path d="M79952 77339
L79980 77367
L79952 77395
L79923 77367
L79952 77339
L79952 77395
" />
<path d="M80345 76805
L80402 76805
L80458 76833
L80486 76861
L80514 76917
L80542 77030
L80542 77170
L80514 77283
L80486 77339
L80458 77367
L80402 77395
L80345 77395
L80289 77367
L80261 77339
L80233 77283
L80205 77170
L80205 77030
L80233 76917
L80261 76861
L80289 76833
L80345 76805
" />
<path d="M80795 77339
L80823 77367
L80795 77395
L80767 77367
L80795 77339
L80795 77395
" />
<path d="M81386 77395
L81048 77395
" />
<path d="M81217 77395
L81217 76805
L81161 76889
L81105 76946
L81048 76974
" />
<path d="M81751 76805
L81808 76805
L81864 76833
L81892 76861
L81920 76917
L81948 77030
L81948 77170
L81920 77283
L81892 77339
L81864 77367
L81808 77395
L81751 77395
L81695 77367
L81667 77339
L81639 77283
L81611 77170
L81611 77030
L81639 76917
L81667 76861
L81695 76833
L81751 76805
" />
<path d="M82201 77170
L82651 77170
" />
<path d="M83017 77058
L82961 77030
L82932 77002
L82904 76946
L82904 76917
L82932 76861
L82961 76833
L83017 76805
L83129 76805
L83186 76833
L83214 76861
L83242 76917
L83242 76946
L83214 77002
L83186 77030
L83129 77058
L83017 77058
L82961 77086
L82932 77114
L82904 77170
L82904 77283
L82932 77339
L82961 77367
L83017 77395
L83129 77395
L83186 77367
L83214 77339
L83242 77283
L83242 77170
L83214 77114
L83186 77086
L83129 77058
" />
<path d="M83748 76805
L83636 76805
L83579 76833
L83551 76861
L83495 76946
L83467 77058
L83467 77283
L83495 77339
L83523 77367
L83579 77395
L83692 77395
L83748 77367
L83776 77339
L83804 77283
L83804 77142
L83776 77086
L83748 77058
L83692 77030
L83579 77030
L83523 77058
L83495 77086
L83467 77142
" />
<path d="M84310 77395
L84310 77086
L84282 77030
L84226 77002
L84114 77002
L84057 77030
" />
<path d="M84310 77367
L84254 77395
L84114 77395
L84057 77367
L84029 77311
L84029 77255
L84057 77199
L84114 77170
L84254 77170
L84310 77142
" />
<path d="M84817 77367
L84760 77395
L84648 77395
L84592 77367
L84564 77311
L84564 77086
L84592 77030
L84648 77002
L84760 77002
L84817 77030
L84845 77086
L84845 77142
L84564 77199
" />
<path d="M85351 77395
L85351 76805
" />
<path d="M85351 77367
L85295 77395
L85182 77395
L85126 77367
L85098 77339
L85070 77283
L85070 77114
L85098 77058
L85126 77030
L85182 77002
L85295 77002
L85351 77030
" />
<path d="M85885 77395
L85885 76805
" />
<path d="M85885 77367
L85829 77395
L85717 77395
L85660 77367
L85632 77339
L85604 77283
L85604 77114
L85632 77058
L85660 77030
L85717 77002
L85829 77002
L85885 77030
" />
<path d="M86110 76805
L86476 76805
L86279 77030
L86363 77030
L86420 77058
L86448 77086
L86476 77142
L86476 77283
L86448 77339
L86420 77367
L86363 77395
L86195 77395
L86138 77367
L86110 77339
" />
<path d="M86813 77058
L86757 77030
L86729 77002
L86701 76946
L86701 76917
L86729 76861
L86757 76833
L86813 76805
L86926 76805
L86982 76833
L87010 76861
L87038 76917
L87038 76946
L87010 77002
L86982 77030
L86926 77058
L86813 77058
L86757 77086
L86729 77114
L86701 77170
L86701 77283
L86729 77339
L86757 77367
L86813 77395
L86926 77395
L86982 77367
L87010 77339
L87038 77283
L87038 77170
L87010 77114
L86982 77086
L86926 77058
" />
<path d="M87263 76861
L87291 76833
L87348 76805
L87488 76805
L87544 76833
L87573 76861
L87601 76917
L87601 76974
L87573 77058
L87235 77395
L87601 77395
" />
<path d="M87854 77395
L87854 76805
" />
<path d="M87854 77030
L87910 77002
L88022 77002
L88079 77030
L88107 77058
L88135 77114
L88135 77283
L88107 77339
L88079 77367
L88022 77395
L87910 77395
L87854 77367
" />
<path d="M88304 77170
L88332 77142
L88388 77114
L88501 77170
L88557 77142
L88585 77114
" />
<path d="M89119 77395
L88782 77395
" />
<path d="M88950 77395
L88950 76805
L88894 76889
L88838 76946
L88782 76974
" />
<path d="M89682 77395
L89344 77395
" />
<path d="M89513 77395
L89513 76805
L89457 76889
L89400 76946
L89344 76974
" />
<path d="M90019 77058
L89963 77030
L89935 77002
L89907 76946
L89907 76917
L89935 76861
L89963 76833
L90019 76805
L90132 76805
L90188 76833
L90216 76861
L90244 76917
L90244 76946
L90216 77002
L90188 77030
L90132 77058
L90019 77058
L89963 77086
L89935 77114
L89907 77170
L89907 77283
L89935 77339
L89963 77367
L90019 77395
L90132 77395
L90188 77367
L90216 77339
L90244 77283
L90244 77170
L90216 77114
L90188 77086
L90132 77058
" />
<path d="M90413 77170
L90441 77142
L90497 77114
L90610 77170
L90666 77142
L90694 77114
" />
<path d="M91172 77002
L91172 77395
" />
<path d="M90919 77002
L90919 77311
L90947 77367
L91003 77395
L91088 77395
L91144 77367
L91172 77339
" />
<path d="M91453 77395
L91453 76805
" />
<path d="M91453 77030
L91510 77002
L91622 77002
L91678 77030
L91706 77058
L91735 77114
L91735 77283
L91706 77339
L91678 77367
L91622 77395
L91510 77395
L91453 77367
" />
<path d="M92241 77002
L92241 77395
" />
<path d="M91988 77002
L91988 77311
L92016 77367
L92072 77395
L92156 77395
L92213 77367
L92241 77339
" />
<path d="M92522 77002
L92522 77395
" />
<path d="M92522 77058
L92550 77030
L92606 77002
L92691 77002
L92747 77030
L92775 77086
L92775 77395
" />
<path d="M92972 77002
L93197 77002
" />
<path d="M93056 76805
L93056 77311
L93084 77367
L93141 77395
L93197 77395
" />
<path d="M93647 77002
L93647 77395
" />
<path d="M93394 77002
L93394 77311
L93422 77367
L93478 77395
L93562 77395
L93619 77367
L93647 77339
" />
<path d="M93900 76861
L93928 76833
L93984 76805
L94125 76805
L94181 76833
L94209 76861
L94237 76917
L94237 76974
L94209 77058
L93872 77395
L94237 77395
" />
<path d="M94462 76861
L94490 76833
L94547 76805
L94687 76805
L94744 76833
L94772 76861
L94800 76917
L94800 76974
L94772 77058
L94434 77395
L94800 77395
" />
<path d="M95053 77339
L95081 77367
L95053 77395
L95025 77367
L95053 77339
L95053 77395
" />
<path d="M95447 76805
L95503 76805
L95559 76833
L95587 76861
L95615 76917
L95643 77030
L95643 77170
L95615 77283
L95587 77339
L95559 77367
L95503 77395
L95447 77395
L95390 77367
L95362 77339
L95334 77283
L95306 77170
L95306 77030
L95334 76917
L95362 76861
L95390 76833
L95447 76805
" />
<path d="M96150 77002
L96150 77395
" />
<path d="M96009 76777
L95868 77199
L96234 77199
" />
<path d="M96459 77339
L96487 77367
L96459 77395
L96431 77367
L96459 77339
L96459 77395
" />
<path d="M97049 77395
L96712 77395
" />
<path d="M96881 77395
L96881 76805
L96825 76889
L96768 76946
L96712 76974
" />
</g><path d="M69685 75396
L112205 75396
" />
</g>
<g style="fill:#840000; fill-opacity:0.0; 
stroke:#840000; stroke-width:118.110236; stroke-opacity:1; 
stroke-linecap:round; stroke-linejoin:round;">
<text x="103544.173228" y="76321.732283"
textLength="2900.275591" font-size="787.401575" lengthAdjust="spacingAndGlyphs"
text-anchor="start" opacity="0">Rev: 1</text>
<g class="stroked-text"><desc>Rev: 1</desc>
<path d="M104098 76293
L103902 76012
" />
<path d="M103761 76293
L103761 75703
L103986 75703
L104042 75731
L104070 75759
L104098 75815
L104098 75899
L104070 75956
L104042 75984
L103986 76012
L103761 76012
" />
<path d="M104577 76265
L104520 76293
L104408 76293
L104352 76265
L104323 76209
L104323 75984
L104352 75928
L104408 75899
L104520 75899
L104577 75928
L104605 75984
L104605 76040
L104323 76096
" />
<path d="M104802 75899
L104942 76293
L105083 75899
" />
<path d="M105308 76237
L105336 76265
L105308 76293
L105280 76265
L105308 76237
L105308 76293
" />
<path d="M105308 75928
L105336 75956
L105308 75984
L105280 75956
L105308 75928
L105308 75984
" />
<path d="M106348 76293
L106011 76293
" />
<path d="M106180 76293
L106180 75703
L106123 75787
L106067 75843
L106011 75871
" />
</g></g>
<g style="fill:#840000; fill-opacity:0.0; 
stroke:#840000; stroke-width:60.000000; stroke-opacity:1; 
stroke-linecap:round; stroke-linejoin:round;">
<text x="70079.606299" y="76321.732283"
textLength="3781.220472" font-size="787.401575" lengthAdjust="spacingAndGlyphs"
text-anchor="start" opacity="0">Size: A4</text>
<g class="stroked-text"><desc>Size: A4</desc>
<path d="M70222 76265
L70306 76293
L70447 76293
L70503 76265
L70531 76237
L70559 76181
L70559 76124
L70531 76068
L70503 76040
L70447 76012
L70334 75984
L70278 75956
L70250 75928
L70222 75871
L70222 75815
L70250 75759
L70278 75731
L70334 75703
L70475 75703
L70559 75731
" />
<path d="M70812 76293
L70812 75899
" />
<path d="M70812 75703
L70784 75731
L70812 75759
L70840 75731
L70812 75703
L70812 75759
" />
<path d="M71037 75899
L71346 75899
L71037 76293
L71346 76293
" />
<path d="M71796 76265
L71740 76293
L71628 76293
L71571 76265
L71543 76209
L71543 75984
L71571 75928
L71628 75899
L71740 75899
L71796 75928
L71825 75984
L71825 76040
L71543 76096
" />
<path d="M72078 76237
L72106 76265
L72078 76293
L72049 76265
L72078 76237
L72078 76293
" />
<path d="M72078 75928
L72106 75956
L72078 75984
L72049 75956
L72078 75928
L72078 75984
" />
<path d="M72781 76124
L73062 76124
" />
<path d="M72724 76293
L72921 75703
L73118 76293
" />
<path d="M73568 75899
L73568 76293
" />
<path d="M73427 75674
L73287 76096
L73652 76096
" />
</g><text x="103544.173228" y="77424.094488"
textLength="3350.196850" font-size="787.401575" lengthAdjust="spacingAndGlyphs"
text-anchor="start" opacity="0">Id: 7/9</text>
<g class="stroked-text"><desc>Id: 7/9</desc>
<path d="M103714 77395
L103714 76805
" />
<path d="M104249 77395
L104249 76805
" />
<path d="M104249 77367
L104192 77395
L104080 77395
L104024 77367
L103995 77339
L103967 77283
L103967 77114
L103995 77058
L104024 77030
L104080 77002
L104192 77002
L104249 77030
" />
<path d="M104530 77339
L104558 77367
L104530 77395
L104502 77367
L104530 77339
L104530 77395
" />
<path d="M104530 77030
L104558 77058
L104530 77086
L104502 77058
L104530 77030
L104530 77086
" />
<path d="M105205 76805
L105598 76805
L105345 77395
" />
<path d="M106245 76777
L105739 77536
" />
<path d="M106470 77395
L106583 77395
L106639 77367
L106667 77339
L106723 77255
L106751 77142
L106751 76917
L106723 76861
L106695 76833
L106639 76805
L106526 76805
L106470 76833
L106442 76861
L106414 76917
L106414 77058
L106442 77114
L106470 77142
L106526 77170
L106639 77170
L106695 77142
L106723 77114
L106751 77058
" />
</g><path d="M69685 73821
L112205 73821
" />
</g>
<g style="fill:#840000; fill-opacity:0.0; 
stroke:#840000; stroke-width:157.480315; stroke-opacity:1; 
stroke-linecap:round; stroke-linejoin:round;">
<text x="70079.606299" y="74924.094488"
textLength="15516.535433" font-size="1049.842520" lengthAdjust="spacingAndGlyphs"
text-anchor="start" opacity="0">Title: Thermocouple Ports</text>
<g class="stroked-text"><desc>Title: Thermocouple Ports</desc>
<path d="M70360 74099
L70810 74099
" />
<path d="M70486 74886
L70585 74099
" />
<path d="M70974 74886
L71039 74361
" />
<path d="M71072 74099
L71030 74136
L71063 74174
L71105 74136
L71072 74099
L71063 74174
" />
<path d="M71302 74361
L71602 74361
" />
<path d="M71447 74099
L71363 74774
L71391 74849
L71461 74886
L71536 74886
" />
<path d="M71911 74886
L71841 74849
L71812 74774
L71897 74099
" />
<path d="M72516 74849
L72436 74886
L72286 74886
L72216 74849
L72187 74774
L72225 74474
L72272 74399
L72352 74361
L72501 74361
L72572 74399
L72600 74474
L72591 74549
L72206 74624
" />
<path d="M72895 74811
L72928 74849
L72886 74886
L72853 74849
L72895 74811
L72886 74886
" />
<path d="M72947 74399
L72980 74436
L72937 74474
L72905 74436
L72947 74399
L72937 74474
" />
<path d="M73847 74099
L74297 74099
" />
<path d="M73973 74886
L74072 74099
" />
<path d="M74461 74886
L74559 74099
" />
<path d="M74798 74886
L74850 74474
L74822 74399
L74751 74361
L74639 74361
L74559 74399
L74517 74436
" />
<path d="M75478 74849
L75398 74886
L75248 74886
L75178 74849
L75150 74774
L75187 74474
L75234 74399
L75314 74361
L75464 74361
L75534 74399
L75562 74474
L75553 74549
L75168 74624
" />
<path d="M75848 74886
L75914 74361
" />
<path d="M75895 74511
L75942 74436
L75984 74399
L76064 74361
L76139 74361
" />
<path d="M76335 74886
L76401 74361
" />
<path d="M76392 74436
L76434 74399
L76513 74361
L76626 74361
L76696 74399
L76724 74474
L76673 74886
" />
<path d="M76724 74474
L76771 74399
L76851 74361
L76963 74361
L77034 74399
L77062 74474
L77010 74886
" />
<path d="M77498 74886
L77427 74849
L77395 74811
L77367 74736
L77395 74511
L77441 74436
L77484 74399
L77563 74361
L77676 74361
L77746 74399
L77779 74436
L77807 74511
L77779 74736
L77732 74811
L77690 74849
L77610 74886
L77498 74886
" />
<path d="M78440 74849
L78360 74886
L78210 74886
L78140 74849
L78107 74811
L78079 74736
L78107 74511
L78154 74436
L78196 74399
L78276 74361
L78426 74361
L78496 74399
" />
<path d="M78885 74886
L78815 74849
L78782 74811
L78754 74736
L78782 74511
L78829 74436
L78871 74399
L78951 74361
L79063 74361
L79133 74399
L79166 74436
L79194 74511
L79166 74736
L79119 74811
L79077 74849
L78998 74886
L78885 74886
" />
<path d="M79888 74361
L79822 74886
" />
<path d="M79551 74361
L79499 74774
L79527 74849
L79597 74886
L79710 74886
L79790 74849
L79832 74811
" />
<path d="M80263 74361
L80165 75149
" />
<path d="M80258 74399
L80338 74361
L80488 74361
L80558 74399
L80591 74436
L80619 74511
L80591 74736
L80544 74811
L80502 74849
L80422 74886
L80272 74886
L80202 74849
" />
<path d="M81022 74886
L80952 74849
L80924 74774
L81008 74099
" />
<path d="M81627 74849
L81547 74886
L81397 74886
L81327 74849
L81299 74774
L81336 74474
L81383 74399
L81463 74361
L81613 74361
L81683 74399
L81711 74474
L81702 74549
L81318 74624
" />
<path d="M82597 74886
L82696 74099
L82995 74099
L83066 74136
L83099 74174
L83127 74249
L83113 74361
L83066 74436
L83024 74474
L82944 74511
L82644 74511
" />
<path d="M83497 74886
L83427 74849
L83394 74811
L83366 74736
L83394 74511
L83441 74436
L83483 74399
L83563 74361
L83675 74361
L83745 74399
L83778 74436
L83806 74511
L83778 74736
L83731 74811
L83689 74849
L83609 74886
L83497 74886
" />
<path d="M84097 74886
L84163 74361
" />
<path d="M84144 74511
L84191 74436
L84233 74399
L84312 74361
L84387 74361
" />
<path d="M84537 74361
L84837 74361
" />
<path d="M84683 74099
L84598 74774
L84627 74849
L84697 74886
L84772 74886
" />
<path d="M85001 74849
L85072 74886
L85222 74886
L85301 74849
L85348 74774
L85353 74736
L85325 74661
L85255 74624
L85142 74624
L85072 74586
L85044 74511
L85048 74474
L85095 74399
L85175 74361
L85287 74361
L85358 74399
" />
</g></g>
<g style="fill:#840000; fill-opacity:0.0; 
stroke:#840000; stroke-width:60.000000; stroke-opacity:1; 
stroke-linecap:round; stroke-linejoin:round;">
<text x="70079.606299" y="73408.346457"
textLength="13590.551181" font-size="787.401575" lengthAdjust="spacingAndGlyphs"
text-anchor="start" opacity="0">File: thermocouples.kicad_sch</text>
<g class="stroked-text"><desc>File: thermocouples.kicad_sch</desc>
<path d="M70447 73070
L70250 73070
" />
<path d="M70250 73380
L70250 72789
L70531 72789
" />
<path d="M70756 73380
L70756 72986
" />
<path d="M70756 72789
L70728 72817
L70756 72845
L70784 72817
L70756 72789
L70756 72845
" />
<path d="M71121 73380
L71065 73352
L71037 73295
L71037 72789
" />
<path d="M71571 73352
L71515 73380
L71403 73380
L71346 73352
L71318 73295
L71318 73070
L71346 73014
L71403 72986
L71515 72986
L71571 73014
L71600 73070
L71600 73127
L71318 73183
" />
<path d="M71853 73323
L71881 73352
L71853 73380
L71825 73352
L71853 73323
L71853 73380
" />
<path d="M71853 73014
L71881 73042
L71853 73070
L71825 73042
L71853 73014
L71853 73070
" />
<path d="M72499 72986
L72724 72986
" />
<path d="M72584 72789
L72584 73295
L72612 73352
L72668 73380
L72724 73380
" />
<path d="M72921 73380
L72921 72789
" />
<path d="M73174 73380
L73174 73070
L73146 73014
L73090 72986
L73006 72986
L72949 73014
L72921 73042
" />
<path d="M73681 73352
L73624 73380
L73512 73380
L73456 73352
L73427 73295
L73427 73070
L73456 73014
L73512 72986
L73624 72986
L73681 73014
L73709 73070
L73709 73127
L73427 73183
" />
<path d="M73962 73380
L73962 72986
" />
<path d="M73962 73098
L73990 73042
L74018 73014
L74074 72986
L74130 72986
" />
<path d="M74327 73380
L74327 72986
" />
<path d="M74327 73042
L74355 73014
L74412 72986
L74496 72986
L74552 73014
L74580 73070
L74580 73380
" />
<path d="M74580 73070
L74609 73014
L74665 72986
L74749 72986
L74805 73014
L74834 73070
L74834 73380
" />
<path d="M75199 73380
L75143 73352
L75115 73323
L75087 73267
L75087 73098
L75115 73042
L75143 73014
L75199 72986
L75283 72986
L75340 73014
L75368 73042
L75396 73098
L75396 73267
L75368 73323
L75340 73352
L75283 73380
L75199 73380
" />
<path d="M75902 73352
L75846 73380
L75733 73380
L75677 73352
L75649 73323
L75621 73267
L75621 73098
L75649 73042
L75677 73014
L75733 72986
L75846 72986
L75902 73014
" />
<path d="M76240 73380
L76183 73352
L76155 73323
L76127 73267
L76127 73098
L76155 73042
L76183 73014
L76240 72986
L76324 72986
L76380 73014
L76408 73042
L76436 73098
L76436 73267
L76408 73323
L76380 73352
L76324 73380
L76240 73380
" />
<path d="M76943 72986
L76943 73380
" />
<path d="M76690 72986
L76690 73295
L76718 73352
L76774 73380
L76858 73380
L76915 73352
L76943 73323
" />
<path d="M77224 72986
L77224 73577
" />
<path d="M77224 73014
L77280 72986
L77393 72986
L77449 73014
L77477 73042
L77505 73098
L77505 73267
L77477 73323
L77449 73352
L77393 73380
L77280 73380
L77224 73352
" />
<path d="M77842 73380
L77786 73352
L77758 73295
L77758 72789
" />
<path d="M78292 73352
L78236 73380
L78124 73380
L78067 73352
L78039 73295
L78039 73070
L78067 73014
L78124 72986
L78236 72986
L78292 73014
L78321 73070
L78321 73127
L78039 73183
" />
<path d="M78546 73352
L78602 73380
L78714 73380
L78771 73352
L78799 73295
L78799 73267
L78771 73211
L78714 73183
L78630 73183
L78574 73155
L78546 73098
L78546 73070
L78574 73014
L78630 72986
L78714 72986
L78771 73014
" />
<path d="M79052 73323
L79080 73352
L79052 73380
L79024 73352
L79052 73323
L79052 73380
" />
<path d="M79333 73380
L79333 72789
" />
<path d="M79389 73155
L79558 73380
" />
<path d="M79558 72986
L79333 73211
" />
<path d="M79811 73380
L79811 72986
" />
<path d="M79811 72789
L79783 72817
L79811 72845
L79839 72817
L79811 72789
L79811 72845
" />
<path d="M80345 73352
L80289 73380
L80177 73380
L80120 73352
L80092 73323
L80064 73267
L80064 73098
L80092 73042
L80120 73014
L80177 72986
L80289 72986
L80345 73014
" />
<path d="M80852 73380
L80852 73070
L80823 73014
L80767 72986
L80655 72986
L80598 73014
" />
<path d="M80852 73352
L80795 73380
L80655 73380
L80598 73352
L80570 73295
L80570 73239
L80598 73183
L80655 73155
L80795 73155
L80852 73127
" />
<path d="M81386 73380
L81386 72789
" />
<path d="M81386 73352
L81330 73380
L81217 73380
L81161 73352
L81133 73323
L81105 73267
L81105 73098
L81133 73042
L81161 73014
L81217 72986
L81330 72986
L81386 73014
" />
<path d="M81526 73436
L81976 73436
" />
<path d="M82089 73352
L82145 73380
L82258 73380
L82314 73352
L82342 73295
L82342 73267
L82314 73211
L82258 73183
L82173 73183
L82117 73155
L82089 73098
L82089 73070
L82117 73014
L82173 72986
L82258 72986
L82314 73014
" />
<path d="M82848 73352
L82792 73380
L82679 73380
L82623 73352
L82595 73323
L82567 73267
L82567 73098
L82595 73042
L82623 73014
L82679 72986
L82792 72986
L82848 73014
" />
<path d="M83101 73380
L83101 72789
" />
<path d="M83354 73380
L83354 73070
L83326 73014
L83270 72986
L83186 72986
L83129 73014
L83101 73042
" />
</g><path d="M69685 71459
L112205 71459
" />
<text x="70079.606299" y="72345.354331"
textLength="11055.511811" font-size="787.401575" lengthAdjust="spacingAndGlyphs"
text-anchor="start" opacity="0">Sheet: /Thermocouples/</text>
<g class="stroked-text"><desc>Sheet: /Thermocouples/</desc>
<path d="M70222 72289
L70306 72317
L70447 72317
L70503 72289
L70531 72260
L70559 72204
L70559 72148
L70531 72092
L70503 72064
L70447 72035
L70334 72007
L70278 71979
L70250 71951
L70222 71895
L70222 71839
L70250 71782
L70278 71754
L70334 71726
L70475 71726
L70559 71754
" />
<path d="M70812 72317
L70812 71726
" />
<path d="M71065 72317
L71065 72007
L71037 71951
L70981 71923
L70897 71923
L70840 71951
L70812 71979
" />
<path d="M71571 72289
L71515 72317
L71403 72317
L71346 72289
L71318 72232
L71318 72007
L71346 71951
L71403 71923
L71515 71923
L71571 71951
L71600 72007
L71600 72064
L71318 72120
" />
<path d="M72078 72289
L72021 72317
L71909 72317
L71853 72289
L71825 72232
L71825 72007
L71853 71951
L71909 71923
L72021 71923
L72078 71951
L72106 72007
L72106 72064
L71825 72120
" />
<path d="M72274 71923
L72499 71923
" />
<path d="M72359 71726
L72359 72232
L72387 72289
L72443 72317
L72499 72317
" />
<path d="M72696 72260
L72724 72289
L72696 72317
L72668 72289
L72696 72260
L72696 72317
" />
<path d="M72696 71951
L72724 71979
L72696 72007
L72668 71979
L72696 71951
L72696 72007
" />
<path d="M73849 71698
L73343 72457
" />
<path d="M73962 71726
L74299 71726
" />
<path d="M74130 72317
L74130 71726
" />
<path d="M74496 72317
L74496 71726
" />
<path d="M74749 72317
L74749 72007
L74721 71951
L74665 71923
L74580 71923
L74524 71951
L74496 71979
" />
<path d="M75255 72289
L75199 72317
L75087 72317
L75030 72289
L75002 72232
L75002 72007
L75030 71951
L75087 71923
L75199 71923
L75255 71951
L75283 72007
L75283 72064
L75002 72120
" />
<path d="M75537 72317
L75537 71923
" />
<path d="M75537 72035
L75565 71979
L75593 71951
L75649 71923
L75705 71923
" />
<path d="M75902 72317
L75902 71923
" />
<path d="M75902 71979
L75930 71951
L75986 71923
L76071 71923
L76127 71951
L76155 72007
L76155 72317
" />
<path d="M76155 72007
L76183 71951
L76240 71923
L76324 71923
L76380 71951
L76408 72007
L76408 72317
" />
<path d="M76774 72317
L76718 72289
L76690 72260
L76661 72204
L76661 72035
L76690 71979
L76718 71951
L76774 71923
L76858 71923
L76915 71951
L76943 71979
L76971 72035
L76971 72204
L76943 72260
L76915 72289
L76858 72317
L76774 72317
" />
<path d="M77477 72289
L77421 72317
L77308 72317
L77252 72289
L77224 72260
L77196 72204
L77196 72035
L77224 71979
L77252 71951
L77308 71923
L77421 71923
L77477 71951
" />
<path d="M77814 72317
L77758 72289
L77730 72260
L77702 72204
L77702 72035
L77730 71979
L77758 71951
L77814 71923
L77899 71923
L77955 71951
L77983 71979
L78011 72035
L78011 72204
L77983 72260
L77955 72289
L77899 72317
L77814 72317
" />
<path d="M78517 71923
L78517 72317
" />
<path d="M78264 71923
L78264 72232
L78292 72289
L78349 72317
L78433 72317
L78489 72289
L78517 72260
" />
<path d="M78799 71923
L78799 72514
" />
<path d="M78799 71951
L78855 71923
L78967 71923
L79024 71951
L79052 71979
L79080 72035
L79080 72204
L79052 72260
L79024 72289
L78967 72317
L78855 72317
L78799 72289
" />
<path d="M79417 72317
L79361 72289
L79333 72232
L79333 71726
" />
<path d="M79867 72289
L79811 72317
L79699 72317
L79642 72289
L79614 72232
L79614 72007
L79642 71951
L79699 71923
L79811 71923
L79867 71951
L79895 72007
L79895 72064
L79614 72120
" />
<path d="M80120 72289
L80177 72317
L80289 72317
L80345 72289
L80373 72232
L80373 72204
L80345 72148
L80289 72120
L80205 72120
L80148 72092
L80120 72035
L80120 72007
L80148 71951
L80205 71923
L80289 71923
L80345 71951
" />
<path d="M81048 71698
L80542 72457
" />
</g></g>
<g style="fill:#840000; fill-opacity:0.0; 
stroke:#840000; stroke-width:118.110236; stroke-opacity:1; 
stroke-linecap:round; stroke-linejoin:round;">
<text x="70079.606299" y="71164.251969"
textLength="5543.700787" font-size="787.401575" lengthAdjust="spacingAndGlyphs"
text-anchor="start" opacity="0">Rice Eclipse</text>
<g class="stroked-text"><desc>Rice Eclipse</desc>
<path d="M70634 71136
L70437 70854
" />
<path d="M70296 71136
L70296 70545
L70521 70545
L70578 70573
L70606 70601
L70634 70658
L70634 70742
L70606 70798
L70578 70826
L70521 70854
L70296 70854
" />
<path d="M70887 71136
L70887 70742
" />
<path d="M70887 70545
L70859 70573
L70887 70601
L70915 70573
L70887 70545
L70887 70601
" />
<path d="M71421 71107
L71365 71136
L71253 71136
L71196 71107
L71168 71079
L71140 71023
L71140 70854
L71168 70798
L71196 70770
L71253 70742
L71365 70742
L71421 70770
" />
<path d="M71899 71107
L71843 71136
L71731 71136
L71674 71107
L71646 71051
L71646 70826
L71674 70770
L71731 70742
L71843 70742
L71899 70770
L71928 70826
L71928 70883
L71646 70939
" />
<path d="M72631 70826
L72827 70826
" />
<path d="M72912 71136
L72631 71136
L72631 70545
L72912 70545
" />
<path d="M73418 71107
L73362 71136
L73249 71136
L73193 71107
L73165 71079
L73137 71023
L73137 70854
L73165 70798
L73193 70770
L73249 70742
L73362 70742
L73418 70770
" />
<path d="M73755 71136
L73699 71107
L73671 71051
L73671 70545
" />
<path d="M73980 71136
L73980 70742
" />
<path d="M73980 70545
L73952 70573
L73980 70601
L74009 70573
L73980 70545
L73980 70601
" />
<path d="M74262 70742
L74262 71332
" />
<path d="M74262 70770
L74318 70742
L74430 70742
L74487 70770
L74515 70798
L74543 70854
L74543 71023
L74515 71079
L74487 71107
L74430 71136
L74318 71136
L74262 71107
" />
<path d="M74768 71107
L74824 71136
L74937 71136
L74993 71107
L75021 71051
L75021 71023
L74993 70967
L74937 70939
L74852 70939
L74796 70911
L74768 70854
L74768 70826
L74796 70770
L74852 70742
L74937 70742
L74993 70770
" />
<path d="M75499 71107
L75443 71136
L75330 71136
L75274 71107
L75246 71051
L75246 70826
L75274 70770
L75330 70742
L75443 70742
L75499 70770
L75527 70826
L75527 70883
L75246 70939
" />
</g></g>
<g style="fill:#840000; fill-opacity:0.0; 
stroke:#840000; stroke-width:60.000000; stroke-opacity:1; 
stroke-linecap:round; stroke-linejoin:round;">
<text x="70079.606299" y="69983.149606"
textLength="153.543307" font-size="787.401575" lengthAdjust="spacingAndGlyphs"
text-anchor="start" opacity="0"></text>
<g class="stroked-text"><desc></desc>
</g><text x="70079.606299" y="68802.047244"
textLength="60.000000" font-size="787.401575" lengthAdjust="spacingAndGlyphs"
text-anchor="start" opacity="0"></text>
<g class="stroked-text"><desc></desc>
</g><text x="70079.606299" y="67620.944882"
textLength="60.000000" font-size="787.401575" lengthAdjust="spacingAndGlyphs"
text-anchor="start" opacity="0"></text>
<g class="stroked-text"><desc></desc>
</g><text x="70079.606299" y="66439.842520"
textLength="60.000000" font-size="787.401575" lengthAdjust="spacingAndGlyphs"
text-anchor="start" opacity="0"></text>
<g class="stroked-text"><desc></desc>
</g><path d="M77559 75396
L77559 76577
" />
<path d="M102756 75396
L102756 77955
" />
<g >
</g>
<g style="fill:#FFFFC2; fill-opacity:0.0; 
stroke:#FFFFC2; stroke-width:60.000000; stroke-opacity:1; 
stroke-linecap:round; stroke-linejoin:round;">
</g>
<g style="fill:#FFFFC2; fill-opacity:0.6; 
stroke:#FFFFC2; stroke-width:0.039370; stroke-opacity:1; 
stroke-linecap:round; stroke-linejoin:round;">
<rect x="13000.000000" y="13500.000000" width="1000.000000" height="3000.000000" rx="0.000000" />
</g>
<g style="fill:#840000; fill-opacity:0.6; 
stroke:#840000; stroke-width:0.039370; stroke-opacity:1; 
stroke-linecap:round; stroke-linejoin:round;">
</g>
<g style="fill:#840000; fill-opacity:0.0; 
stroke:#840000; stroke-width:100.000000; stroke-opacity:1; 
stroke-linecap:round; stroke-linejoin:round;">
<rect x="13000.000000" y="13500.000000" width="1000.000000" height="3000.000000" rx="0.000000" />
<rect x="13000.000000" y="13500.000000" width="1000.000000" height="3000.000000" rx="0.000000" />
</g>
<g style="fill:#840000; fill-opacity:0.0; 
stroke:#840000; stroke-width:60.000000; stroke-opacity:1; 
stroke-linecap:round; stroke-linejoin:round;">
<circle cx="13500.000000" cy="16000.000000" r="250.000000" /> 
<path style="fill:#840000; fill-opacity:0.0; 
stroke:#840000; stroke-width:60.000000; stroke-opacity:1; 
stroke-linecap:round; stroke-linejoin:round;fill:none"
d="M 13710.000000,15870.000000
13370.000000,16200.000000
" /> 
<path style="fill:#840000; fill-opacity:0.0; 
stroke:#840000; stroke-width:60.000000; stroke-opacity:1; 
stroke-linecap:round; stroke-linejoin:round;fill:none"
d="M 13710.000000,14870.000000
13370.000000,15200.000000
" /> 
<path style="fill:#840000; fill-opacity:0.0; 
stroke:#840000; stroke-width:60.000000; stroke-opacity:1; 
stroke-linecap:round; stroke-linejoin:round;fill:none"
d="M 13710.000000,13870.000000
13370.000000,14200.000000
" /> 
<path style="fill:#840000; fill-opacity:0.0; 
stroke:#840000; stroke-width:60.000000; stroke-opacity:1; 
stroke-linecap:round; stroke-linejoin:round;fill:none"
d="M 13640.000000,15800.000000
13300.000000,16130.000000
" /> 
<path style="fill:#840000; fill-opacity:0.0; 
stroke:#840000; stroke-width:60.000000; stroke-opacity:1; 
stroke-linecap:round; stroke-linejoin:round;fill:none"
d="M 13640.000000,14800.000000
13300.000000,15130.000000
" /> 
<path style="fill:#840000; fill-opacity:0.0; 
stroke:#840000; stroke-width:60.000000; stroke-opacity:1; 
stroke-linecap:round; stroke-linejoin:round;fill:none"
d="M 13640.000000,13800.000000
13300.000000,14130.000000
" /> 
<circle cx="13500.000000" cy="15000.000000" r="250.000000" /> 
<circle cx="13500.000000" cy="14000.000000" r="250.000000" /> 
<path d="M14000 14000
L15500 14000
" />
</g>
<g style="fill:#A90000; fill-opacity:0.0; 
stroke:#A90000; stroke-width:60.000000; stroke-opacity:1; 
stroke-linecap:round; stroke-linejoin:round;">
<text x="14750.000000" y="13900.000000"
textLength="536.181102" font-size="666.653543" lengthAdjust="spacingAndGlyphs"
text-anchor="middle" opacity="0">1</text>
<g class="stroked-text"><desc>1</desc>
<path d="M14892 13876
L14607 13876
" />
<path d="M14750 13876
L14750 13376
L14702 13447
L14654 13495
L14607 13519
" />
</g></g>
<g style="fill:#840000; fill-opacity:0.0; 
stroke:#840000; stroke-width:60.000000; stroke-opacity:1; 
stroke-linecap:round; stroke-linejoin:round;">
<path d="M14000 15000
L15500 15000
" />
</g>
<g style="fill:#A90000; fill-opacity:0.0; 
stroke:#A90000; stroke-width:60.000000; stroke-opacity:1; 
stroke-linecap:round; stroke-linejoin:round;">
<text x="14750.000000" y="14900.000000"
textLength="536.181102" font-size="666.653543" lengthAdjust="spacingAndGlyphs"
text-anchor="middle" opacity="0">2</text>
<g class="stroked-text"><desc>2</desc>
<path d="M14607 14423
L14630 14400
L14678 14376
L14797 14376
L14845 14400
L14869 14423
L14892 14471
L14892 14519
L14869 14590
L14583 14876
L14892 14876
" />
</g></g>
<g style="fill:#840000; fill-opacity:0.0; 
stroke:#840000; stroke-width:60.000000; stroke-opacity:1; 
stroke-linecap:round; stroke-linejoin:round;">
<path d="M14000 16000
L15500 16000
" />
</g>
<g style="fill:#A90000; fill-opacity:0.0; 
stroke:#A90000; stroke-width:60.000000; stroke-opacity:1; 
stroke-linecap:round; stroke-linejoin:round;">
<text x="14750.000000" y="15900.000000"
textLength="536.181102" font-size="666.653543" lengthAdjust="spacingAndGlyphs"
text-anchor="middle" opacity="0">3</text>
<g class="stroked-text"><desc>3</desc>
<path d="M14583 15376
L14892 15376
L14726 15566
L14797 15566
L14845 15590
L14869 15614
L14892 15661
L14892 15780
L14869 15828
L14845 15852
L14797 15876
L14654 15876
L14607 15852
L14583 15828
" />
</g></g>
<g style="fill:#006464; fill-opacity:0.0; 
stroke:#006464; stroke-width:60.000000; stroke-opacity:1; 
stroke-linecap:round; stroke-linejoin:round;">
<text x="13499.960630" y="12749.960630"
textLength="3345.708661" font-size="666.653543" lengthAdjust="spacingAndGlyphs"
text-anchor="middle" opacity="0">CON_TC1</text>
<g class="stroked-text"><desc>CON_TC1</desc>
<path d="M12261 12678
L12238 12702
L12166 12726
L12118 12726
L12047 12702
L11999 12654
L11976 12607
L11952 12511
L11952 12440
L11976 12345
L11999 12297
L12047 12249
L12118 12226
L12166 12226
L12238 12249
L12261 12273
" />
<path d="M12571 12226
L12666 12226
L12714 12249
L12761 12297
L12785 12392
L12785 12559
L12761 12654
L12714 12702
L12666 12726
L12571 12726
L12523 12702
L12476 12654
L12452 12559
L12452 12392
L12476 12297
L12523 12249
L12571 12226
" />
<path d="M12999 12726
L12999 12226
L13285 12726
L13285 12226
" />
<path d="M13404 12773
L13785 12773
" />
<path d="M13833 12226
L14118 12226
" />
<path d="M13976 12726
L13976 12226
" />
<path d="M14571 12678
L14547 12702
L14476 12726
L14428 12726
L14357 12702
L14309 12654
L14285 12607
L14261 12511
L14261 12440
L14285 12345
L14309 12297
L14357 12249
L14428 12226
L14476 12226
L14547 12249
L14571 12273
" />
<path d="M15047 12726
L14761 12726
" />
<path d="M14904 12726
L14904 12226
L14857 12297
L14809 12345
L14761 12368
" />
</g></g>
</g>
<g style="fill:#006464; fill-opacity:0.0; 
stroke:#006464; stroke-width:60.000000; stroke-opacity:1; 
stroke-linecap:round; stroke-linejoin:round;">
<g >
</g>
<g style="fill:#840000; fill-opacity:0.0; 
stroke:#840000; stroke-width:60.000000; stroke-opacity:1; 
stroke-linecap:round; stroke-linejoin:round;">
<path style="fill:#840000; fill-opacity:0.0; 
stroke:#840000; stroke-width:60.000000; stroke-opacity:1; 
stroke-linecap:round; stroke-linejoin:round;fill:none"
d="M 17000.000000,17500.000000
17000.000000,18000.000000
17500.000000,18000.000000
17000.000000,18500.000000
16500.000000,18000.000000
17000.000000,18000.000000
" /> 
</g>
<g style="fill:#006464; fill-opacity:0.0; 
stroke:#006464; stroke-width:60.000000; stroke-opacity:1; 
stroke-linecap:round; stroke-linejoin:round;">
<text x="17000.000000" y="19749.960630"
textLength="1583.818898" font-size="666.653543" lengthAdjust="spacingAndGlyphs"
text-anchor="middle" opacity="0">GND</text>
<g class="stroked-text"><desc>GND</desc>
<path d="M16619 19249
L16571 19226
L16500 19226
L16428 19249
L16380 19297
L16357 19345
L16333 19440
L16333 19511
L16357 19607
L16380 19654
L16428 19702
L16500 19726
L16547 19726
L16619 19702
L16642 19678
L16642 19511
L16547 19511
" />
<path d="M16857 19726
L16857 19226
L17142 19726
L17142 19226
" />
<path d="M17380 19726
L17380 19226
L17500 19226
L17571 19249
L17619 19297
L17642 19345
L17666 19440
L17666 19511
L17642 19607
L17619 19654
L17571 19702
L17500 19726
L17380 19726
" />
</g></g>
</g>
<g style="fill:#006464; fill-opacity:0.0; 
stroke:#006464; stroke-width:60.000000; stroke-opacity:1; 
stroke-linecap:round; stroke-linejoin:round;">
<g >
</g>
<g style="fill:#840000; fill-opacity:0.0; 
stroke:#840000; stroke-width:60.000000; stroke-opacity:1; 
stroke-linecap:round; stroke-linejoin:round;">
<path style="fill:#840000; fill-opacity:0.0; 
stroke:#840000; stroke-width:60.000000; stroke-opacity:1; 
stroke-linecap:round; stroke-linejoin:round;fill:none"
d="M 16700.000000,12500.000000
17000.000000,12000.000000
" /> 
<path style="fill:#840000; fill-opacity:0.0; 
stroke:#840000; stroke-width:60.000000; stroke-opacity:1; 
stroke-linecap:round; stroke-linejoin:round;fill:none"
d="M 17000.000000,13000.000000
17000.000000,12000.000000
" /> 
<path style="fill:#840000; fill-opacity:0.0; 
stroke:#840000; stroke-width:60.000000; stroke-opacity:1; 
stroke-linecap:round; stroke-linejoin:round;fill:none"
d="M 17000.000000,12000.000000
17300.000000,12500.000000
" /> 
</g>
<g style="fill:#006464; fill-opacity:0.0; 
stroke:#006464; stroke-width:60.000000; stroke-opacity:1; 
stroke-linecap:round; stroke-linejoin:round;">
<text x="17000.000000" y="11249.960630"
textLength="1583.818898" font-size="666.653543" lengthAdjust="spacingAndGlyphs"
text-anchor="middle" opacity="0">+5V</text>
<g class="stroked-text"><desc>+5V</desc>
<path d="M16357 11035
L16738 11035
" />
<path d="M16547 11226
L16547 10845
" />
<path d="M17214 10726
L16976 10726
L16952 10964
L16976 10940
L17023 10916
L17142 10916
L17190 10940
L17214 10964
L17238 11011
L17238 11130
L17214 11178
L17190 11202
L17142 11226
L17023 11226
L16976 11202
L16952 11178
" />
<path d="M17380 10726
L17547 11226
L17714 10726
" />
</g></g>
</g>
<g style="fill:#006464; fill-opacity:0.0; 
stroke:#006464; stroke-width:60.000000; stroke-opacity:1; 
stroke-linecap:round; stroke-linejoin:round;">
<g >
</g>
<g style="fill:#840000; fill-opacity:0.0; 
stroke:#840000; stroke-width:60.000000; stroke-opacity:1; 
stroke-linecap:round; stroke-linejoin:round;">
</g>
<g style="fill:#FFFFC2; fill-opacity:0.0; 
stroke:#FFFFC2; stroke-width:60.000000; stroke-opacity:1; 
stroke-linecap:round; stroke-linejoin:round;">
</g>
<g style="fill:#FFFFC2; fill-opacity:0.6; 
stroke:#FFFFC2; stroke-width:0.039370; stroke-opacity:1; 
stroke-linecap:round; stroke-linejoin:round;">
<rect x="13000.000000" y="41000.000000" width="1000.000000" height="3000.000000" rx="0.000000" />
</g>
<g style="fill:#840000; fill-opacity:0.6; 
stroke:#840000; stroke-width:0.039370; stroke-opacity:1; 
stroke-linecap:round; stroke-linejoin:round;">
</g>
<g style="fill:#840000; fill-opacity:0.0; 
stroke:#840000; stroke-width:100.000000; stroke-opacity:1; 
stroke-linecap:round; stroke-linejoin:round;">
<rect x="13000.000000" y="41000.000000" width="1000.000000" height="3000.000000" rx="0.000000" />
<rect x="13000.000000" y="41000.000000" width="1000.000000" height="3000.000000" rx="0.000000" />
</g>
<g style="fill:#840000; fill-opacity:0.0; 
stroke:#840000; stroke-width:60.000000; stroke-opacity:1; 
stroke-linecap:round; stroke-linejoin:round;">
<circle cx="13500.000000" cy="43500.000000" r="250.000000" /> 
<path style="fill:#840000; fill-opacity:0.0; 
stroke:#840000; stroke-width:60.000000; stroke-opacity:1; 
stroke-linecap:round; stroke-linejoin:round;fill:none"
d="M 13710.000000,43370.000000
13370.000000,43700.000000
" /> 
<path style="fill:#840000; fill-opacity:0.0; 
stroke:#840000; stroke-width:60.000000; stroke-opacity:1; 
stroke-linecap:round; stroke-linejoin:round;fill:none"
d="M 13710.000000,42370.000000
13370.000000,42700.000000
" /> 
<path style="fill:#840000; fill-opacity:0.0; 
stroke:#840000; stroke-width:60.000000; stroke-opacity:1; 
stroke-linecap:round; stroke-linejoin:round;fill:none"
d="M 13710.000000,41370.000000
13370.000000,41700.000000
" /> 
<path style="fill:#840000; fill-opacity:0.0; 
stroke:#840000; stroke-width:60.000000; stroke-opacity:1; 
stroke-linecap:round; stroke-linejoin:round;fill:none"
d="M 13640.000000,43300.000000
13300.000000,43630.000000
" /> 
<path style="fill:#840000; fill-opacity:0.0; 
stroke:#840000; stroke-width:60.000000; stroke-opacity:1; 
stroke-linecap:round; stroke-linejoin:round;fill:none"
d="M 13640.000000,42300.000000
13300.000000,42630.000000
" /> 
<path style="fill:#840000; fill-opacity:0.0; 
stroke:#840000; stroke-width:60.000000; stroke-opacity:1; 
stroke-linecap:round; stroke-linejoin:round;fill:none"
d="M 13640.000000,41300.000000
13300.000000,41630.000000
" /> 
<circle cx="13500.000000" cy="42500.000000" r="250.000000" /> 
<circle cx="13500.000000" cy="41500.000000" r="250.000000" /> 
<path d="M14000 41500
L15500 41500
" />
</g>
<g style="fill:#A90000; fill-opacity:0.0; 
stroke:#A90000; stroke-width:60.000000; stroke-opacity:1; 
stroke-linecap:round; stroke-linejoin:round;">
<text x="14750.000000" y="41400.000000"
textLength="536.181102" font-size="666.653543" lengthAdjust="spacingAndGlyphs"
text-anchor="middle" opacity="0">1</text>
<g class="stroked-text"><desc>1</desc>
<path d="M14892 41376
L14607 41376
" />
<path d="M14750 41376
L14750 40876
L14702 40947
L14654 40995
L14607 41019
" />
</g></g>
<g style="fill:#840000; fill-opacity:0.0; 
stroke:#840000; stroke-width:60.000000; stroke-opacity:1; 
stroke-linecap:round; stroke-linejoin:round;">
<path d="M14000 42500
L15500 42500
" />
</g>
<g style="fill:#A90000; fill-opacity:0.0; 
stroke:#A90000; stroke-width:60.000000; stroke-opacity:1; 
stroke-linecap:round; stroke-linejoin:round;">
<text x="14750.000000" y="42400.000000"
textLength="536.181102" font-size="666.653543" lengthAdjust="spacingAndGlyphs"
text-anchor="middle" opacity="0">2</text>
<g class="stroked-text"><desc>2</desc>
<path d="M14607 41923
L14630 41900
L14678 41876
L14797 41876
L14845 41900
L14869 41923
L14892 41971
L14892 42019
L14869 42090
L14583 42376
L14892 42376
" />
</g></g>
<g style="fill:#840000; fill-opacity:0.0; 
stroke:#840000; stroke-width:60.000000; stroke-opacity:1; 
stroke-linecap:round; stroke-linejoin:round;">
<path d="M14000 43500
L15500 43500
" />
</g>
<g style="fill:#A90000; fill-opacity:0.0; 
stroke:#A90000; stroke-width:60.000000; stroke-opacity:1; 
stroke-linecap:round; stroke-linejoin:round;">
<text x="14750.000000" y="43400.000000"
textLength="536.181102" font-size="666.653543" lengthAdjust="spacingAndGlyphs"
text-anchor="middle" opacity="0">3</text>
<g class="stroked-text"><desc>3</desc>
<path d="M14583 42876
L14892 42876
L14726 43066
L14797 43066
L14845 43090
L14869 43114
L14892 43161
L14892 43280
L14869 43328
L14845 43352
L14797 43376
L14654 43376
L14607 43352
L14583 43328
" />
</g></g>
<g style="fill:#006464; fill-opacity:0.0; 
stroke:#006464; stroke-width:60.000000; stroke-opacity:1; 
stroke-linecap:round; stroke-linejoin:round;">
<text x="13499.960630" y="40249.960630"
textLength="3345.708661" font-size="666.653543" lengthAdjust="spacingAndGlyphs"
text-anchor="middle" opacity="0">CON_TC3</text>
<g class="stroked-text"><desc>CON_TC3</desc>
<path d="M12261 40178
L12238 40202
L12166 40226
L12118 40226
L12047 40202
L11999 40154
L11976 40107
L11952 40011
L11952 39940
L11976 39845
L11999 39797
L12047 39749
L12118 39726
L12166 39726
L12238 39749
L12261 39773
" />
<path d="M12571 39726
L12666 39726
L12714 39749
L12761 39797
L12785 39892
L12785 40059
L12761 40154
L12714 40202
L12666 40226
L12571 40226
L12523 40202
L12476 40154
L12452 40059
L12452 39892
L12476 39797
L12523 39749
L12571 39726
" />
<path d="M12999 40226
L12999 39726
L13285 40226
L13285 39726
" />
<path d="M13404 40273
L13785 40273
" />
<path d="M13833 39726
L14118 39726
" />
<path d="M13976 40226
L13976 39726
" />
<path d="M14571 40178
L14547 40202
L14476 40226
L14428 40226
L14357 40202
L14309 40154
L14285 40107
L14261 40011
L14261 39940
L14285 39845
L14309 39797
L14357 39749
L14428 39726
L14476 39726
L14547 39749
L14571 39773
" />
<path d="M14738 39726
L15047 39726
L14880 39916
L14952 39916
L14999 39940
L15023 39964
L15047 40011
L15047 40130
L15023 40178
L14999 40202
L14952 40226
L14809 40226
L14761 40202
L14738 40178
" />
</g></g>
</g>
<g style="fill:#006464; fill-opacity:0.0; 
stroke:#006464; stroke-width:60.000000; stroke-opacity:1; 
stroke-linecap:round; stroke-linejoin:round;">
<g >
</g>
<g style="fill:#840000; fill-opacity:0.0; 
stroke:#840000; stroke-width:60.000000; stroke-opacity:1; 
stroke-linecap:round; stroke-linejoin:round;">
</g>
<g style="fill:#FFFFC2; fill-opacity:0.0; 
stroke:#FFFFC2; stroke-width:60.000000; stroke-opacity:1; 
stroke-linecap:round; stroke-linejoin:round;">
</g>
<g style="fill:#FFFFC2; fill-opacity:0.6; 
stroke:#FFFFC2; stroke-width:0.039370; stroke-opacity:1; 
stroke-linecap:round; stroke-linejoin:round;">
<rect x="13000.000000" y="27500.000000" width="1000.000000" height="3000.000000" rx="0.000000" />
</g>
<g style="fill:#840000; fill-opacity:0.6; 
stroke:#840000; stroke-width:0.039370; stroke-opacity:1; 
stroke-linecap:round; stroke-linejoin:round;">
</g>
<g style="fill:#840000; fill-opacity:0.0; 
stroke:#840000; stroke-width:100.000000; stroke-opacity:1; 
stroke-linecap:round; stroke-linejoin:round;">
<rect x="13000.000000" y="27500.000000" width="1000.000000" height="3000.000000" rx="0.000000" />
<rect x="13000.000000" y="27500.000000" width="1000.000000" height="3000.000000" rx="0.000000" />
</g>
<g style="fill:#840000; fill-opacity:0.0; 
stroke:#840000; stroke-width:60.000000; stroke-opacity:1; 
stroke-linecap:round; stroke-linejoin:round;">
<circle cx="13500.000000" cy="30000.000000" r="250.000000" /> 
<path style="fill:#840000; fill-opacity:0.0; 
stroke:#840000; stroke-width:60.000000; stroke-opacity:1; 
stroke-linecap:round; stroke-linejoin:round;fill:none"
d="M 13710.000000,29870.000000
13370.000000,30200.000000
" /> 
<path style="fill:#840000; fill-opacity:0.0; 
stroke:#840000; stroke-width:60.000000; stroke-opacity:1; 
stroke-linecap:round; stroke-linejoin:round;fill:none"
d="M 13710.000000,28870.000000
13370.000000,29200.000000
" /> 
<path style="fill:#840000; fill-opacity:0.0; 
stroke:#840000; stroke-width:60.000000; stroke-opacity:1; 
stroke-linecap:round; stroke-linejoin:round;fill:none"
d="M 13710.000000,27870.000000
13370.000000,28200.000000
" /> 
<path style="fill:#840000; fill-opacity:0.0; 
stroke:#840000; stroke-width:60.000000; stroke-opacity:1; 
stroke-linecap:round; stroke-linejoin:round;fill:none"
d="M 13640.000000,29800.000000
13300.000000,30130.000000
" /> 
<path style="fill:#840000; fill-opacity:0.0; 
stroke:#840000; stroke-width:60.000000; stroke-opacity:1; 
stroke-linecap:round; stroke-linejoin:round;fill:none"
d="M 13640.000000,28800.000000
13300.000000,29130.000000
" /> 
<path style="fill:#840000; fill-opacity:0.0; 
stroke:#840000; stroke-width:60.000000; stroke-opacity:1; 
stroke-linecap:round; stroke-linejoin:round;fill:none"
d="M 13640.000000,27800.000000
13300.000000,28130.000000
" /> 
<circle cx="13500.000000" cy="29000.000000" r="250.000000" /> 
<circle cx="13500.000000" cy="28000.000000" r="250.000000" /> 
<path d="M14000 28000
L15500 28000
" />
</g>
<g style="fill:#A90000; fill-opacity:0.0; 
stroke:#A90000; stroke-width:60.000000; stroke-opacity:1; 
stroke-linecap:round; stroke-linejoin:round;">
<text x="14750.000000" y="27900.000000"
textLength="536.181102" font-size="666.653543" lengthAdjust="spacingAndGlyphs"
text-anchor="middle" opacity="0">1</text>
<g class="stroked-text"><desc>1</desc>
<path d="M14892 27876
L14607 27876
" />
<path d="M14750 27876
L14750 27376
L14702 27447
L14654 27495
L14607 27519
" />
</g></g>
<g style="fill:#840000; fill-opacity:0.0; 
stroke:#840000; stroke-width:60.000000; stroke-opacity:1; 
stroke-linecap:round; stroke-linejoin:round;">
<path d="M14000 29000
L15500 29000
" />
</g>
<g style="fill:#A90000; fill-opacity:0.0; 
stroke:#A90000; stroke-width:60.000000; stroke-opacity:1; 
stroke-linecap:round; stroke-linejoin:round;">
<text x="14750.000000" y="28900.000000"
textLength="536.181102" font-size="666.653543" lengthAdjust="spacingAndGlyphs"
text-anchor="middle" opacity="0">2</text>
<g class="stroked-text"><desc>2</desc>
<path d="M14607 28423
L14630 28400
L14678 28376
L14797 28376
L14845 28400
L14869 28423
L14892 28471
L14892 28519
L14869 28590
L14583 28876
L14892 28876
" />
</g></g>
<g style="fill:#840000; fill-opacity:0.0; 
stroke:#840000; stroke-width:60.000000; stroke-opacity:1; 
stroke-linecap:round; stroke-linejoin:round;">
<path d="M14000 30000
L15500 30000
" />
</g>
<g style="fill:#A90000; fill-opacity:0.0; 
stroke:#A90000; stroke-width:60.000000; stroke-opacity:1; 
stroke-linecap:round; stroke-linejoin:round;">
<text x="14750.000000" y="29900.000000"
textLength="536.181102" font-size="666.653543" lengthAdjust="spacingAndGlyphs"
text-anchor="middle" opacity="0">3</text>
<g class="stroked-text"><desc>3</desc>
<path d="M14583 29376
L14892 29376
L14726 29566
L14797 29566
L14845 29590
L14869 29614
L14892 29661
L14892 29780
L14869 29828
L14845 29852
L14797 29876
L14654 29876
L14607 29852
L14583 29828
" />
</g></g>
<g style="fill:#006464; fill-opacity:0.0; 
stroke:#006464; stroke-width:60.000000; stroke-opacity:1; 
stroke-linecap:round; stroke-linejoin:round;">
<text x="13499.960630" y="26749.960630"
textLength="3345.708661" font-size="666.653543" lengthAdjust="spacingAndGlyphs"
text-anchor="middle" opacity="0">CON_TC2</text>
<g class="stroked-text"><desc>CON_TC2</desc>
<path d="M12261 26678
L12238 26702
L12166 26726
L12118 26726
L12047 26702
L11999 26654
L11976 26607
L11952 26511
L11952 26440
L11976 26345
L11999 26297
L12047 26249
L12118 26226
L12166 26226
L12238 26249
L12261 26273
" />
<path d="M12571 26226
L12666 26226
L12714 26249
L12761 26297
L12785 26392
L12785 26559
L12761 26654
L12714 26702
L12666 26726
L12571 26726
L12523 26702
L12476 26654
L12452 26559
L12452 26392
L12476 26297
L12523 26249
L12571 26226
" />
<path d="M12999 26726
L12999 26226
L13285 26726
L13285 26226
" />
<path d="M13404 26773
L13785 26773
" />
<path d="M13833 26226
L14118 26226
" />
<path d="M13976 26726
L13976 26226
" />
<path d="M14571 26678
L14547 26702
L14476 26726
L14428 26726
L14357 26702
L14309 26654
L14285 26607
L14261 26511
L14261 26440
L14285 26345
L14309 26297
L14357 26249
L14428 26226
L14476 26226
L14547 26249
L14571 26273
" />
<path d="M14761 26273
L14785 26249
L14833 26226
L14952 26226
L14999 26249
L15023 26273
L15047 26321
L15047 26368
L15023 26440
L14738 26726
L15047 26726
" />
</g></g>
</g>
<g style="fill:#006464; fill-opacity:0.0; 
stroke:#006464; stroke-width:60.000000; stroke-opacity:1; 
stroke-linecap:round; stroke-linejoin:round;">
<g >
</g>
<g style="fill:#840000; fill-opacity:0.0; 
stroke:#840000; stroke-width:60.000000; stroke-opacity:1; 
stroke-linecap:round; stroke-linejoin:round;">
<path style="fill:#840000; fill-opacity:0.0; 
stroke:#840000; stroke-width:60.000000; stroke-opacity:1; 
stroke-linecap:round; stroke-linejoin:round;fill:none"
d="M 16700.000000,26500.000000
17000.000000,26000.000000
" /> 
<path style="fill:#840000; fill-opacity:0.0; 
stroke:#840000; stroke-width:60.000000; stroke-opacity:1; 
stroke-linecap:round; stroke-linejoin:round;fill:none"
d="M 17000.000000,27000.000000
17000.000000,26000.000000
" /> 
<path style="fill:#840000; fill-opacity:0.0; 
stroke:#840000; stroke-width:60.000000; stroke-opacity:1; 
stroke-linecap:round; stroke-linejoin:round;fill:none"
d="M 17000.000000,26000.000000
17300.000000,26500.000000
" /> 
</g>
<g style="fill:#006464; fill-opacity:0.0; 
stroke:#006464; stroke-width:60.000000; stroke-opacity:1; 
stroke-linecap:round; stroke-linejoin:round;">
<text x="17000.000000" y="25249.960630"
textLength="1583.818898" font-size="666.653543" lengthAdjust="spacingAndGlyphs"
text-anchor="middle" opacity="0">+5V</text>
<g class="stroked-text"><desc>+5V</desc>
<path d="M16357 25035
L16738 25035
" />
<path d="M16547 25226
L16547 24845
" />
<path d="M17214 24726
L16976 24726
L16952 24964
L16976 24940
L17023 24916
L17142 24916
L17190 24940
L17214 24964
L17238 25011
L17238 25130
L17214 25178
L17190 25202
L17142 25226
L17023 25226
L16976 25202
L16952 25178
" />
<path d="M17380 24726
L17547 25226
L17714 24726
" />
</g></g>
</g>
<g style="fill:#006464; fill-opacity:0.0; 
stroke:#006464; stroke-width:60.000000; stroke-opacity:1; 
stroke-linecap:round; stroke-linejoin:round;">
<g >
</g>
<g style="fill:#840000; fill-opacity:0.0; 
stroke:#840000; stroke-width:60.000000; stroke-opacity:1; 
stroke-linecap:round; stroke-linejoin:round;">
<path style="fill:#840000; fill-opacity:0.0; 
stroke:#840000; stroke-width:60.000000; stroke-opacity:1; 
stroke-linecap:round; stroke-linejoin:round;fill:none"
d="M 17000.000000,31500.000000
17000.000000,32000.000000
17500.000000,32000.000000
17000.000000,32500.000000
16500.000000,32000.000000
17000.000000,32000.000000
" /> 
</g>
<g style="fill:#006464; fill-opacity:0.0; 
stroke:#006464; stroke-width:60.000000; stroke-opacity:1; 
stroke-linecap:round; stroke-linejoin:round;">
<text x="17000.000000" y="33749.960630"
textLength="1583.818898" font-size="666.653543" lengthAdjust="spacingAndGlyphs"
text-anchor="middle" opacity="0">GND</text>
<g class="stroked-text"><desc>GND</desc>
<path d="M16619 33249
L16571 33226
L16500 33226
L16428 33249
L16380 33297
L16357 33345
L16333 33440
L16333 33511
L16357 33607
L16380 33654
L16428 33702
L16500 33726
L16547 33726
L16619 33702
L16642 33678
L16642 33511
L16547 33511
" />
<path d="M16857 33726
L16857 33226
L17142 33726
L17142 33226
" />
<path d="M17380 33726
L17380 33226
L17500 33226
L17571 33249
L17619 33297
L17642 33345
L17666 33440
L17666 33511
L17642 33607
L17619 33654
L17571 33702
L17500 33726
L17380 33726
" />
</g></g>
</g>
<g style="fill:#006464; fill-opacity:0.0; 
stroke:#006464; stroke-width:60.000000; stroke-opacity:1; 
stroke-linecap:round; stroke-linejoin:round;">
<g >
</g>
<g style="fill:#840000; fill-opacity:0.0; 
stroke:#840000; stroke-width:60.000000; stroke-opacity:1; 
stroke-linecap:round; stroke-linejoin:round;">
<path style="fill:#840000; fill-opacity:0.0; 
stroke:#840000; stroke-width:60.000000; stroke-opacity:1; 
stroke-linecap:round; stroke-linejoin:round;fill:none"
d="M 17000.000000,45000.000000
17000.000000,45500.000000
17500.000000,45500.000000
17000.000000,46000.000000
16500.000000,45500.000000
17000.000000,45500.000000
" /> 
</g>
<g style="fill:#006464; fill-opacity:0.0; 
stroke:#006464; stroke-width:60.000000; stroke-opacity:1; 
stroke-linecap:round; stroke-linejoin:round;">
<text x="17000.000000" y="47249.960630"
textLength="1583.818898" font-size="666.653543" lengthAdjust="spacingAndGlyphs"
text-anchor="middle" opacity="0">GND</text>
<g class="stroked-text"><desc>GND</desc>
<path d="M16619 46749
L16571 46726
L16500 46726
L16428 46749
L16380 46797
L16357 46845
L16333 46940
L16333 47011
L16357 47107
L16380 47154
L16428 47202
L16500 47226
L16547 47226
L16619 47202
L16642 47178
L16642 47011
L16547 47011
" />
<path d="M16857 47226
L16857 46726
L17142 47226
L17142 46726
" />
<path d="M17380 47226
L17380 46726
L17500 46726
L17571 46749
L17619 46797
L17642 46845
L17666 46940
L17666 47011
L17642 47107
L17619 47154
L17571 47202
L17500 47226
L17380 47226
" />
</g></g>
</g>
<g style="fill:#006464; fill-opacity:0.0; 
stroke:#006464; stroke-width:60.000000; stroke-opacity:1; 
stroke-linecap:round; stroke-linejoin:round;">
<g >
</g>
<g style="fill:#840000; fill-opacity:0.0; 
stroke:#840000; stroke-width:60.000000; stroke-opacity:1; 
stroke-linecap:round; stroke-linejoin:round;">
<path style="fill:#840000; fill-opacity:0.0; 
stroke:#840000; stroke-width:60.000000; stroke-opacity:1; 
stroke-linecap:round; stroke-linejoin:round;fill:none"
d="M 16700.000000,40000.000000
17000.000000,39500.000000
" /> 
<path style="fill:#840000; fill-opacity:0.0; 
stroke:#840000; stroke-width:60.000000; stroke-opacity:1; 
stroke-linecap:round; stroke-linejoin:round;fill:none"
d="M 17000.000000,40500.000000
17000.000000,39500.000000
" /> 
<path style="fill:#840000; fill-opacity:0.0; 
stroke:#840000; stroke-width:60.000000; stroke-opacity:1; 
stroke-linecap:round; stroke-linejoin:round;fill:none"
d="M 17000.000000,39500.000000
17300.000000,40000.000000
" /> 
</g>
<g style="fill:#006464; fill-opacity:0.0; 
stroke:#006464; stroke-width:60.000000; stroke-opacity:1; 
stroke-linecap:round; stroke-linejoin:round;">
<text x="17000.000000" y="38749.960630"
textLength="1583.818898" font-size="666.653543" lengthAdjust="spacingAndGlyphs"
text-anchor="middle" opacity="0">+5V</text>
<g class="stroked-text"><desc>+5V</desc>
<path d="M16357 38535
L16738 38535
" />
<path d="M16547 38726
L16547 38345
" />
<path d="M17214 38226
L16976 38226
L16952 38464
L16976 38440
L17023 38416
L17142 38416
L17190 38440
L17214 38464
L17238 38511
L17238 38630
L17214 38678
L17190 38702
L17142 38726
L17023 38726
L16976 38702
L16952 38678
" />
<path d="M17380 38226
L17547 38726
L17714 38226
" />
</g></g>
</g>
<g style="fill:#006464; fill-opacity:0.0; 
stroke:#006464; stroke-width:60.000000; stroke-opacity:1; 
stroke-linecap:round; stroke-linejoin:round;">
<g >
</g>
<g style="fill:#840000; fill-opacity:0.0; 
stroke:#840000; stroke-width:60.000000; stroke-opacity:1; 
stroke-linecap:round; stroke-linejoin:round;">
</g>
<g style="fill:#FFFFC2; fill-opacity:0.0; 
stroke:#FFFFC2; stroke-width:60.000000; stroke-opacity:1; 
stroke-linecap:round; stroke-linejoin:round;">
</g>
<g style="fill:#FFFFC2; fill-opacity:0.6; 
stroke:#FFFFC2; stroke-width:0.039370; stroke-opacity:1; 
stroke-linecap:round; stroke-linejoin:round;">
<rect x="13000.000000" y="56500.000000" width="1000.000000" height="3000.000000" rx="0.000000" />
</g>
<g style="fill:#840000; fill-opacity:0.6; 
stroke:#840000; stroke-width:0.039370; stroke-opacity:1; 
stroke-linecap:round; stroke-linejoin:round;">
</g>
<g style="fill:#840000; fill-opacity:0.0; 
stroke:#840000; stroke-width:100.000000; stroke-opacity:1; 
stroke-linecap:round; stroke-linejoin:round;">
<rect x="13000.000000" y="56500.000000" width="1000.000000" height="3000.000000" rx="0.000000" />
<rect x="13000.000000" y="56500.000000" width="1000.000000" height="3000.000000" rx="0.000000" />
</g>
<g style="fill:#840000; fill-opacity:0.0; 
stroke:#840000; stroke-width:60.000000; stroke-opacity:1; 
stroke-linecap:round; stroke-linejoin:round;">
<circle cx="13500.000000" cy="59000.000000" r="250.000000" /> 
<path style="fill:#840000; fill-opacity:0.0; 
stroke:#840000; stroke-width:60.000000; stroke-opacity:1; 
stroke-linecap:round; stroke-linejoin:round;fill:none"
d="M 13710.000000,58870.000000
13370.000000,59200.000000
" /> 
<path style="fill:#840000; fill-opacity:0.0; 
stroke:#840000; stroke-width:60.000000; stroke-opacity:1; 
stroke-linecap:round; stroke-linejoin:round;fill:none"
d="M 13710.000000,57870.000000
13370.000000,58200.000000
" /> 
<path style="fill:#840000; fill-opacity:0.0; 
stroke:#840000; stroke-width:60.000000; stroke-opacity:1; 
stroke-linecap:round; stroke-linejoin:round;fill:none"
d="M 13710.000000,56870.000000
13370.000000,57200.000000
" /> 
<path style="fill:#840000; fill-opacity:0.0; 
stroke:#840000; stroke-width:60.000000; stroke-opacity:1; 
stroke-linecap:round; stroke-linejoin:round;fill:none"
d="M 13640.000000,58800.000000
13300.000000,59130.000000
" /> 
<path style="fill:#840000; fill-opacity:0.0; 
stroke:#840000; stroke-width:60.000000; stroke-opacity:1; 
stroke-linecap:round; stroke-linejoin:round;fill:none"
d="M 13640.000000,57800.000000
13300.000000,58130.000000
" /> 
<path style="fill:#840000; fill-opacity:0.0; 
stroke:#840000; stroke-width:60.000000; stroke-opacity:1; 
stroke-linecap:round; stroke-linejoin:round;fill:none"
d="M 13640.000000,56800.000000
13300.000000,57130.000000
" /> 
<circle cx="13500.000000" cy="58000.000000" r="250.000000" /> 
<circle cx="13500.000000" cy="57000.000000" r="250.000000" /> 
<path d="M14000 57000
L15500 57000
" />
</g>
<g style="fill:#A90000; fill-opacity:0.0; 
stroke:#A90000; stroke-width:60.000000; stroke-opacity:1; 
stroke-linecap:round; stroke-linejoin:round;">
<text x="14750.000000" y="56900.000000"
textLength="536.181102" font-size="666.653543" lengthAdjust="spacingAndGlyphs"
text-anchor="middle" opacity="0">1</text>
<g class="stroked-text"><desc>1</desc>
<path d="M14892 56876
L14607 56876
" />
<path d="M14750 56876
L14750 56376
L14702 56447
L14654 56495
L14607 56519
" />
</g></g>
<g style="fill:#840000; fill-opacity:0.0; 
stroke:#840000; stroke-width:60.000000; stroke-opacity:1; 
stroke-linecap:round; stroke-linejoin:round;">
<path d="M14000 58000
L15500 58000
" />
</g>
<g style="fill:#A90000; fill-opacity:0.0; 
stroke:#A90000; stroke-width:60.000000; stroke-opacity:1; 
stroke-linecap:round; stroke-linejoin:round;">
<text x="14750.000000" y="57900.000000"
textLength="536.181102" font-size="666.653543" lengthAdjust="spacingAndGlyphs"
text-anchor="middle" opacity="0">2</text>
<g class="stroked-text"><desc>2</desc>
<path d="M14607 57423
L14630 57400
L14678 57376
L14797 57376
L14845 57400
L14869 57423
L14892 57471
L14892 57519
L14869 57590
L14583 57876
L14892 57876
" />
</g></g>
<g style="fill:#840000; fill-opacity:0.0; 
stroke:#840000; stroke-width:60.000000; stroke-opacity:1; 
stroke-linecap:round; stroke-linejoin:round;">
<path d="M14000 59000
L15500 59000
" />
</g>
<g style="fill:#A90000; fill-opacity:0.0; 
stroke:#A90000; stroke-width:60.000000; stroke-opacity:1; 
stroke-linecap:round; stroke-linejoin:round;">
<text x="14750.000000" y="58900.000000"
textLength="536.181102" font-size="666.653543" lengthAdjust="spacingAndGlyphs"
text-anchor="middle" opacity="0">3</text>
<g class="stroked-text"><desc>3</desc>
<path d="M14583 58376
L14892 58376
L14726 58566
L14797 58566
L14845 58590
L14869 58614
L14892 58661
L14892 58780
L14869 58828
L14845 58852
L14797 58876
L14654 58876
L14607 58852
L14583 58828
" />
</g></g>
<g style="fill:#006464; fill-opacity:0.0; 
stroke:#006464; stroke-width:60.000000; stroke-opacity:1; 
stroke-linecap:round; stroke-linejoin:round;">
<text x="13499.960630" y="55749.960630"
textLength="3345.708661" font-size="666.653543" lengthAdjust="spacingAndGlyphs"
text-anchor="middle" opacity="0">CON_TC4</text>
<g class="stroked-text"><desc>CON_TC4</desc>
<path d="M12261 55678
L12238 55702
L12166 55726
L12118 55726
L12047 55702
L11999 55654
L11976 55607
L11952 55511
L11952 55440
L11976 55345
L11999 55297
L12047 55249
L12118 55226
L12166 55226
L12238 55249
L12261 55273
" />
<path d="M12571 55226
L12666 55226
L12714 55249
L12761 55297
L12785 55392
L12785 55559
L12761 55654
L12714 55702
L12666 55726
L12571 55726
L12523 55702
L12476 55654
L12452 55559
L12452 55392
L12476 55297
L12523 55249
L12571 55226
" />
<path d="M12999 55726
L12999 55226
L13285 55726
L13285 55226
" />
<path d="M13404 55773
L13785 55773
" />
<path d="M13833 55226
L14118 55226
" />
<path d="M13976 55726
L13976 55226
" />
<path d="M14571 55678
L14547 55702
L14476 55726
L14428 55726
L14357 55702
L14309 55654
L14285 55607
L14261 55511
L14261 55440
L14285 55345
L14309 55297
L14357 55249
L14428 55226
L14476 55226
L14547 55249
L14571 55273
" />
<path d="M14999 55392
L14999 55726
" />
<path d="M14880 55202
L14761 55559
L15071 55559
" />
</g></g>
</g>
<g style="fill:#006464; fill-opacity:0.0; 
stroke:#006464; stroke-width:60.000000; stroke-opacity:1; 
stroke-linecap:round; stroke-linejoin:round;">
<g >
</g>
<g style="fill:#840000; fill-opacity:0.0; 
stroke:#840000; stroke-width:60.000000; stroke-opacity:1; 
stroke-linecap:round; stroke-linejoin:round;">
<path style="fill:#840000; fill-opacity:0.0; 
stroke:#840000; stroke-width:60.000000; stroke-opacity:1; 
stroke-linecap:round; stroke-linejoin:round;fill:none"
d="M 17000.000000,60500.000000
17000.000000,61000.000000
17500.000000,61000.000000
17000.000000,61500.000000
16500.000000,61000.000000
17000.000000,61000.000000
" /> 
</g>
<g style="fill:#006464; fill-opacity:0.0; 
stroke:#006464; stroke-width:60.000000; stroke-opacity:1; 
stroke-linecap:round; stroke-linejoin:round;">
<text x="17000.000000" y="62749.960630"
textLength="1583.818898" font-size="666.653543" lengthAdjust="spacingAndGlyphs"
text-anchor="middle" opacity="0">GND</text>
<g class="stroked-text"><desc>GND</desc>
<path d="M16619 62249
L16571 62226
L16500 62226
L16428 62249
L16380 62297
L16357 62345
L16333 62440
L16333 62511
L16357 62607
L16380 62654
L16428 62702
L16500 62726
L16547 62726
L16619 62702
L16642 62678
L16642 62511
L16547 62511
" />
<path d="M16857 62726
L16857 62226
L17142 62726
L17142 62226
" />
<path d="M17380 62726
L17380 62226
L17500 62226
L17571 62249
L17619 62297
L17642 62345
L17666 62440
L17666 62511
L17642 62607
L17619 62654
L17571 62702
L17500 62726
L17380 62726
" />
</g></g>
</g>
<g style="fill:#006464; fill-opacity:0.0; 
stroke:#006464; stroke-width:60.000000; stroke-opacity:1; 
stroke-linecap:round; stroke-linejoin:round;">
<g >
</g>
<g style="fill:#840000; fill-opacity:0.0; 
stroke:#840000; stroke-width:60.000000; stroke-opacity:1; 
stroke-linecap:round; stroke-linejoin:round;">
<path style="fill:#840000; fill-opacity:0.0; 
stroke:#840000; stroke-width:60.000000; stroke-opacity:1; 
stroke-linecap:round; stroke-linejoin:round;fill:none"
d="M 16700.000000,55500.000000
17000.000000,55000.000000
" /> 
<path style="fill:#840000; fill-opacity:0.0; 
stroke:#840000; stroke-width:60.000000; stroke-opacity:1; 
stroke-linecap:round; stroke-linejoin:round;fill:none"
d="M 17000.000000,56000.000000
17000.000000,55000.000000
" /> 
<path style="fill:#840000; fill-opacity:0.0; 
stroke:#840000; stroke-width:60.000000; stroke-opacity:1; 
stroke-linecap:round; stroke-linejoin:round;fill:none"
d="M 17000.000000,55000.000000
17300.000000,55500.000000
" /> 
</g>
<g style="fill:#006464; fill-opacity:0.0; 
stroke:#006464; stroke-width:60.000000; stroke-opacity:1; 
stroke-linecap:round; stroke-linejoin:round;">
<text x="17000.000000" y="54249.960630"
textLength="1583.818898" font-size="666.653543" lengthAdjust="spacingAndGlyphs"
text-anchor="middle" opacity="0">+5V</text>
<g class="stroked-text"><desc>+5V</desc>
<path d="M16357 54035
L16738 54035
" />
<path d="M16547 54226
L16547 53845
" />
<path d="M17214 53726
L16976 53726
L16952 53964
L16976 53940
L17023 53916
L17142 53916
L17190 53940
L17214 53964
L17238 54011
L17238 54130
L17214 54178
L17190 54202
L17142 54226
L17023 54226
L16976 54202
L16952 54178
" />
<path d="M17380 53726
L17547 54226
L17714 53726
" />
</g></g>
</g>
<g style="fill:#006464; fill-opacity:0.0; 
stroke:#006464; stroke-width:62.519685; stroke-opacity:1; 
stroke-linecap:round; stroke-linejoin:round;">
</g>
<g style="fill:#006464; fill-opacity:0.0; 
stroke:#006464; stroke-width:60.000000; stroke-opacity:1; 
stroke-linecap:round; stroke-linejoin:round;">
</g>
<g style="fill:#840000; fill-opacity:0.0; 
stroke:#840000; stroke-width:60.000000; stroke-opacity:1; 
stroke-linecap:round; stroke-linejoin:round;">
<text x="15687.519685" y="42785.748031"
textLength="1417.125984" font-size="666.653543" lengthAdjust="spacingAndGlyphs"
text-anchor="start" opacity="0">TC3</text>
<g class="stroked-text"><desc>TC3</desc>
<path d="M15765 42261
L16050 42261
" />
<path d="M15907 42761
L15907 42261
" />
<path d="M16503 42714
L16479 42738
L16407 42761
L16360 42761
L16288 42738
L16241 42690
L16217 42642
L16193 42547
L16193 42476
L16217 42380
L16241 42333
L16288 42285
L16360 42261
L16407 42261
L16479 42285
L16503 42309
" />
<path d="M16669 42261
L16979 42261
L16812 42452
L16884 42452
L16931 42476
L16955 42500
L16979 42547
L16979 42666
L16955 42714
L16931 42738
L16884 42761
L16741 42761
L16693 42738
L16669 42714
" />
</g><path style="fill:#840000; fill-opacity:0.0; 
stroke:#840000; stroke-width:60.000000; stroke-opacity:1; 
stroke-linecap:round; stroke-linejoin:round;fill:none"
d="M 15500.000000,42500.000000
15500.000000,43000.157480
17357.322835,43000.157480
17794.842520,42500.000000
17357.322835,41999.842520
15500.000000,41999.842520
Z" /> 
</g>
<g style="fill:#840000; fill-opacity:0.0; 
stroke:#840000; stroke-width:62.519685; stroke-opacity:1; 
stroke-linecap:round; stroke-linejoin:round;">
</g>
<g style="fill:#840000; fill-opacity:0.0; 
stroke:#840000; stroke-width:60.000000; stroke-opacity:1; 
stroke-linecap:round; stroke-linejoin:round;">
<text x="15687.519685" y="58285.748031"
textLength="1419.645669" font-size="666.653543" lengthAdjust="spacingAndGlyphs"
text-anchor="start" opacity="0">TC4</text>
<g class="stroked-text"><desc>TC4</desc>
<path d="M15765 57761
L16050 57761
" />
<path d="M15907 58261
L15907 57761
" />
<path d="M16503 58214
L16479 58238
L16407 58261
L16360 58261
L16288 58238
L16241 58190
L16217 58142
L16193 58047
L16193 57976
L16217 57880
L16241 57833
L16288 57785
L16360 57761
L16407 57761
L16479 57785
L16503 57809
" />
<path d="M16931 57928
L16931 58261
" />
<path d="M16812 57738
L16693 58095
L17003 58095
" />
</g><path style="fill:#840000; fill-opacity:0.0; 
stroke:#840000; stroke-width:60.000000; stroke-opacity:1; 
stroke-linecap:round; stroke-linejoin:round;fill:none"
d="M 15500.000000,58000.000000
15500.000000,58500.157480
17357.322835,58500.157480
17794.842520,58000.000000
17357.322835,57499.842520
15500.000000,57499.842520
Z" /> 
</g>
<g style="fill:#840000; fill-opacity:0.0; 
stroke:#840000; stroke-width:62.519685; stroke-opacity:1; 
stroke-linecap:round; stroke-linejoin:round;">
</g>
<g style="fill:#840000; fill-opacity:0.0; 
stroke:#840000; stroke-width:60.000000; stroke-opacity:1; 
stroke-linecap:round; stroke-linejoin:round;">
<text x="15687.519685" y="15285.748031"
textLength="1419.645669" font-size="666.653543" lengthAdjust="spacingAndGlyphs"
text-anchor="start" opacity="0">TC1</text>
<g class="stroked-text"><desc>TC1</desc>
<path d="M15765 14761
L16050 14761
" />
<path d="M15907 15261
L15907 14761
" />
<path d="M16503 15214
L16479 15238
L16407 15261
L16360 15261
L16288 15238
L16241 15190
L16217 15142
L16193 15047
L16193 14976
L16217 14880
L16241 14833
L16288 14785
L16360 14761
L16407 14761
L16479 14785
L16503 14809
" />
<path d="M16979 15261
L16693 15261
" />
<path d="M16836 15261
L16836 14761
L16788 14833
L16741 14880
L16693 14904
" />
</g><path style="fill:#840000; fill-opacity:0.0; 
stroke:#840000; stroke-width:60.000000; stroke-opacity:1; 
stroke-linecap:round; stroke-linejoin:round;fill:none"
d="M 15500.000000,15000.000000
15500.000000,15500.157480
17357.322835,15500.157480
17794.842520,15000.000000
17357.322835,14499.842520
15500.000000,14499.842520
Z" /> 
</g>
<g style="fill:#840000; fill-opacity:0.0; 
stroke:#840000; stroke-width:62.519685; stroke-opacity:1; 
stroke-linecap:round; stroke-linejoin:round;">
</g>
<g style="fill:#840000; fill-opacity:0.0; 
stroke:#840000; stroke-width:60.000000; stroke-opacity:1; 
stroke-linecap:round; stroke-linejoin:round;">
<text x="15687.519685" y="29285.748031"
textLength="1419.645669" font-size="666.653543" lengthAdjust="spacingAndGlyphs"
text-anchor="start" opacity="0">TC2</text>
<g class="stroked-text"><desc>TC2</desc>
<path d="M15765 28761
L16050 28761
" />
<path d="M15907 29261
L15907 28761
" />
<path d="M16503 29214
L16479 29238
L16407 29261
L16360 29261
L16288 29238
L16241 29190
L16217 29142
L16193 29047
L16193 28976
L16217 28880
L16241 28833
L16288 28785
L16360 28761
L16407 28761
L16479 28785
L16503 28809
" />
<path d="M16693 28809
L16717 28785
L16765 28761
L16884 28761
L16931 28785
L16955 28809
L16979 28857
L16979 28904
L16955 28976
L16669 29261
L16979 29261
" />
</g><path style="fill:#840000; fill-opacity:0.0; 
stroke:#840000; stroke-width:60.000000; stroke-opacity:1; 
stroke-linecap:round; stroke-linejoin:round;fill:none"
d="M 15500.000000,29000.000000
15500.000000,29500.157480
17357.322835,29500.157480
17794.842520,29000.000000
17357.322835,28499.842520
15500.000000,28499.842520
Z" /> 
</g>
<g style="fill:#009600; fill-opacity:0.0; 
stroke:#009600; stroke-width:60.000000; stroke-opacity:1; 
stroke-linecap:round; stroke-linejoin:round;">
<path d="M15500 14000
L17000 14000
" />
<path d="M15500 16000
L17000 16000
" />
<path d="M17000 16000
L17000 17500
" />
<path d="M17000 14000
L17000 13000
" />
<path d="M15500 41500
L17000 41500
" />
<path d="M17000 41500
L17000 40500
" />
<path d="M17000 43500
L17000 45000
" />
<path d="M15500 43500
L17000 43500
" />
<path d="M17000 28000
L17000 27000
" />
<path d="M17000 57000
L17000 56000
" />
<path d="M15500 59000
L17000 59000
" />
<path d="M17000 59000
L17000 60500
" />
<path d="M15500 57000
L17000 57000
" />
<path d="M17000 30000
L17000 31500
" />
<path d="M15500 28000
L17000 28000
" />
<path d="M15500 30000
L17000 30000
" />
</g> 
</svg>
